<mxfile host="app.diagrams.net" agent="Mozilla/5.0 (Windows NT 10.0; Win64; x64) AppleWebKit/537.36 (KHTML, like Gecko) Chrome/131.0.0.0 Safari/537.36" version="26.0.4">
  <diagram name="PÃ¡gina-1" id="bSN5M7OIJ_elb5-kbu0U">
    <mxGraphModel dx="1750" dy="870" grid="1" gridSize="10" guides="1" tooltips="1" connect="1" arrows="1" fold="1" page="1" pageScale="1" pageWidth="827" pageHeight="1169" math="0" shadow="0">
      <root>
        <mxCell id="0" />
        <mxCell id="1" parent="0" />
        <mxCell id="05AAa1fjyTa9ZjowC4g--2" value="" style="shape=image;verticalLabelPosition=bottom;labelBackgroundColor=default;verticalAlign=top;aspect=fixed;imageAspect=0;image=data:image/png,iVBORw0KGgoAAAANSUhEUgAAAgAAAAIACAYAAAD0eNT6AAAACXBIWXMAAA7DAAAOwwHHb6hkAAAAGXRFWHRTb2Z0d2FyZQB3d3cuaW5rc2NhcGUub3Jnm+48GgAAIABJREFUeJzs3Xd8W/W9+P+XhiXvPeKVOI7jDGeHAElIAgRSZhmlrEL7Ky20pe2l89vbcdve231vb3vpoEApLaus0jJCygohe+84iR2vOI73lmTtc35/yEkDZDjSkY7G+/l46CFH0vl83g+w9XmfzzQghIgGViDrlEf26CPzlNeSgTTAAmQA5tHXjUDO6HPWKWVmA4bT1JVzhhgcgOc0r3sBO+AHhkdfGxh9Hh593QG4gKHR1+yjDxsweMq/B4H+0c8LIXR0ui8HIURoTEABkD/6XPSBf48b/TkfyCPQaFt1iVQ/bqCPQDLQf8rPfUAP0A10Ae2n/FvRJVIh4pQkAEKcn1RgPFAMlI0+Sj7wWhGBu3GhHT+BJKCbQFLQBRwFjp3yOAqM6BWgELFGEgAh3s8CTAAqT/OoINCtLqJXH/9KCFqAJqABaBz92a1bZEJEGUkARCIyAROBaaOPav7VyJeNvi/ijwq0EUgGTjyOAAcJJAmnm/8gRNySBEDEMwswGZhOoHGvGf15GoGufCFO8AGtBHoJDgK1o897CExeFCLuSAIg4kUOgQZ+/imPqchYvAhdB7Bz9HEiMThIoEdBiJglCYCINQZgCjAXmD36PAco1DMokXAGgL2jj93AduAwslJBxBBJAES0ywIWAJcQuKtfSGDpnBDRxk4gIdjJ+3sMhIhKkgCIaGIh0MhfBFw4+lypa0RChKYd2AZsADYSSAq8ukYkxChJAISezAS68a8gcIe/lMDOd0LEqxECQwYnEoL1BHZHFCLiJAEQkZRGoAt/2ejjQhJvBzwhTuUjkBCsAd4hkBg4dY1IJAxJAEQ4GYF5wArgIwQa/yRdIxIiurmATQSSgdUEhgz8ukYk4pYkAEJr4/hXg38lgb3vhRDBGSDQO7Bq9NGhbzginkgCIEJlJHBnfz2BRn828nslRDiowC7g9dHHDmTZoQiBfFGLYFiB5cCNwEcJHH4jQmA0mkhLzyQtI5PU9EzS0jNJScsgNS3j5M9p6ZlYrMlYLMlYk1NIsliwJqeRlJRESmo6RrOZ1LQMjMbATsZp6RkYjB/eByktPQuD4cN/+s4RO36/70Ov+31+nCN2UFXs9iEAHMOBeWsO+zCqqjDisKH4Fey2QZwOO06nA+eIHafDjt02iGtk9N8jduzDg4HyRKi6gH8CrwJvIHMHxHmSBECMVRZwDYFG/2oC59GLM7Amp5BbMI6s7Hwyc/LIzM4jO7eArOzAz5nZuWTlFpCdk096Zg7JKYm1M7HP68E2NMDwUD+2oQFsQ/0MD/YzPNgXeH2wj4G+bvp7Oxns72ZooE/vkKOdg8AQwUsEegckwxLnJAmAOJt0Ag3+HQSW6ln0DSc6ZOXkk1cwjrzCEvIKi8nNH0d+USm5+UWB54JxpGfIoYFa8nk9DA700tfdzlB/L309HQz0ddPd3kp35zF6Oo/T292O3ydL7AlMJHyTQDLwGrLMUJyBJADig6zAVQQa/Y8CKfqGE3kWi5Wi0grGlU6gqGQC40onMK60gqKS8RSVViTc3XqsUBQ//b1do0lBGz0dx+jqaKXjWBMdx5rp7W7XO0Q9uAkMEzwNrESOQxankARAQGAi3zLgTuBjBA7WiWsGo5Gi4nJKJ0ymfGI1pRMmUzahipLySnLyZUpDPHK7nHS0NdHe2kRHW/PocxOtTXUMDybEEMMg8CKBZGADMoEw4UkCkNgqgHuATwNl+oYSHiaTmZLxk6iomk5ZxYnGvorSCZOxWGQPIhEwNNBHa9MhWpvqaG08RGtzHa2Nh7END+gdWrgcBZ4B/gw06ByL0IkkAInHAtwAfJbAuH7cHJebmp7JxKrpVFTPYOLkGiqrZzK+cioWa7LeoYkYNdDXTUtDLU11+0cf+2hva0ZV4ubmWQXeBf4I/APw6BuOiCRJABLHVAKN/ieJg8150jKymDx9LtXT5zFp2mwqq2dQVDJB77BEAnCO2GmqP0BT3T6a6vbTcGgPx5rrUZSY37CvB3iCQDJQr3MsIgIkAYhvRgIT+R4ALtU3lOCZkyxMnFxDdc08JtfMo3r6PEonVJ12LbsQenCO2Kmv3UXdgR3UH9hJ3YEdsbx0UQXeA34LvILMFYhb8g0anzIJjOt/GZikcyznLT0jm+lzLmLGvMVMm30hldWzSLLICkQRWzrbWjh8YAeH9m7lwK5NtLXUo6qq3mGdryYCicDjwLDOsQiNSQIQXyYCnwPuI4Zm8mfl5FNdM4/pcy5m9oXLmFQ987Q72AkRy4YG+qgbTQj2bltLY/3+WJpLYAOeBX4NHNY5FqERSQDiwwXAtwlM7jPpHMs5paZnMnvBUuZcdCkz5i2ivKJa75CEiDjb8AC1uzezZ+t77N66ho5jzXqHNBYKgWGBnwHbdY5FhEgSgNi2EPgOcC1R/P/SaDRRWT2D2RcuY86Fy6iZuxBzknTpC3Gqrvaj7Nm6lj3b1rJ321rstqjfwG8j8H0CqwhEDIraRkOc1RLgPwgctxuVcvKLWLB4BXMvvpRZC5aSkRkzIxJC6E5R/NQf2Mm2DW+xff2bHG08pHdIZ7MG+NHos4ghkgDElssIZNyX6hzHaZVVTObiZddw8bJrmDx9rozjC6GRzuNH2b7+Dbatf5MDuzdH65kHG4EfAKv1DkSMjSQAsSEH+ANwm96BnMpgNDKlZj4XX3oNFy29mtIJVXqHJETcc9iG2LlpNRvffZWdm97B43bpHdIHvQX8O7Bb70DE2UkCEP2yCWTU8/QOBMBgMDBt9kUsufImFl1+PTl5hXqHJETCco042Lb+TTa88zK7Nq/G44mas34U4Dnge0BMzG5MRJIARL9nCBzSo6vK6hks/cjHWHLlTRSMi8tjA4SIac4RO1vXvcH6t/7Ors3v4vf79A4JAlsL/wH4MdCrcyziAyQBiG5z0LEbraS8MtDor7hJluoJEUOGBnpZ+8bfeHfV8zTV7dc7HIAB4LvAI8jOglFDEoDo9ivgq5Gs0JqcwuLlN7DihruYPufiSFYthAiDo42HePf153jvjb8x0Nuldzg7gfuBbXoHIiQBiHYbgMWRqKhq6myuvPFulq24mdT0zEhUKYSIIL/fx7b1b/Lm359g97b39NyFUAH+RGDzspg9MCEeSAIQ3WqB6eEqPDU9k8uu/jhX3nA3ldUzwlWNECLKdLa18ObLT/LOa39laEC3ofk+Aj2cT+kVQKKTBCC6bSKw25+mSsoruf62+1h+3R0kp6ZpXbwQIkb4vB42vbuSV597mPraXXqF8QrweaBTrwASlSQA0e13wBe1Kmz2gqVcf/vnWLD4StmkRwjxPof2buWVZx9my3urUBR/pKvvA75EYOmgiBBJAKLbxcDmUAqwWKwsu+rjfPT2+5hQFbbRBCFEnOhqP8prz/+Rt195GueIPdLV/43AJMGeSFeciCQBiFKP7FCTxin99//kG5/45bZ1b5jP9/oki4XLr72d2z/7TfIKisMRohAijo04bLzy/OO8/PRvcdojejBRN/AJ4J1IVpqIJAGIQq9t775GVYwPYqBqoK+bf7/v2jEfFZqcmsY1H7uHm+76Ilk5+WGOVAgR7452DfDys39k88rHGBnuj1S1PgIHnv0CUCNVaaKRBCCKrFw/mKNY/T8H9b5TX+/r6eCX37uP2t1nHg1ITcvgulvv5YY7P09GVm7YYxVCJI6mPg+9A8Nse+MpNvzjIUZsA5GqehXwSWS5YFhIAhAlXtna93GDQf09UHC691VFYfN7r/POa89waN92HLYhLNZkKibXsPTKm7j8uttJz8iOcNRCiETg80NdtwuvX8U1YmPDP/7A5pWP4XU7I1H9MeBjwPZIVJZIJAHQ2aotfWU+o/oH4Dq9YxFCiDMZcik09/7rsCHHcB+bXnmUTa/9MRLHE7uAe4Bnw11RIjHpHUAie21r742KkX8Cs/WORQghzibZbMDlVXH5AkPyFmsqk2YvYcai6xjoaqWvI6yH/pmBmwA3sDGcFSUS6QHQwZo1zcm2tIxfAP+mdyxCCDFWHr/K4S4Xp9tFuHHfel7/4/fpPd4Q7jD+TGDjIE+4K4p30gMQYS9v6ZvuTU56Awwf1TsWIYQ4HyajARWwuz+cAeQWTWD+lXdgtiRz/MjucA4LzCWwR8pLQNjHHuKZJAAR9Or23rsNBlaCoVTvWIQQIhipSSb6HH6U0yzOM5rMVEy/iFlLb6Kn7Qj9nUfDFcYkYAmBJEB6AoIkQwAR8MILqil5Yt9PUPmW3rEIIUSoeuw+jg+e++a7dtNKXnvkO+FcNrgD+AgQsQ0K4okkAMFbDNwHXAaUEshCa4HXgIcY3cryjU1DuR6z9zngSp3iFEIITSkq1Ha48J+uG+ADbAPdrHz0uxza+ka4wtlOIAmI2OYE8UISgPOXDDwC3M2Z//sNA/e+vrVnjx/D6xioilh0QggRAR3DXrqGfWP+/O53X+D1x76Px+UIRzg7CNyMRfzwglgmcwDOjxX4J3AjZ0+erMAtOQXj7q6aNqckIpEJIUQEJZuN9DjGngAUT6yhZuE1tB7eiX2gW+twSoB5wAvAadYoiNORBGDsDMATwFhn7xt2b30vefHyj5KZnRfGsIQQIvJMRgN2t4LHP/at+lMzcph3+a143SO01e/WOqQqoBx4VeuC45UkAGP3nwTOqx4zRfEz2N/LJVfcEKaQhBBCPyow7Dq/G26j0UTVnGUUjq/myK41Wi8XnEOgXVujZaHxSuYAjM3dBO7+z/u/l8Vi5em36klOTdM+KiGE0JFPgQMdzqDP6+s6eoi//vyzDHS1ahsY3AU8o3Wh8caodwAxYAHwR4JMljweN8da6rWNSAghooDZCClJwTcjRROm8bn/XknlrEs0jAoITNSernWh8UYSgLPLAP5KYFJf0GxDskRVCBGfMiyhNSOpGTnc/R9PMWvpTRpFBEAa8OLoszgDSQDO7iEIfQlfemaOBqEIIUT0SbWG3oyYTGY+9sCDLLr+Xg0iOmk68ActC4w3MgnwzO4GfhBqIRaLlc987SeYTGYNQhJCiOhiNEKP3R9yOQaDgaq5yzBbkmner9mBf7OBRmCfVgXGE0kATq8MWEWIXf8Ayz5yC4uXy7k/Qoj4ZDIa6LKNfT+Ac5kwbQHWlHQa9qzVqsglBE4QHNGqwHghCcDpPUbgxKmQJKek8vUfP0pGlgwBCCHiV/+IH7+G2++UT5mP0Wim+cAmLYpLA4qAl7UoLJ5IAvBhK4CfaVHQl7/3ILMu0Hx2qxBCRJUhp/+8NgQai4qai/D7fBw9tE2L4mYDG4BmLQqLF5IAvJ+VwGE+IW/d9/FPf5Ub7vxC6BEJIUSUG3QpuH3aJgAAlbMWM9DdRmfLwVCLMgALgYeRrYJPklUA7/cloDrUQpasuIm7Pv8dDcIRQojoZwzjlnIf/fzPGT91gRZFTQY+pUVB8UJ2AvyXFKAJGBdKIVXT5vDzP76OxRLy/EEhhIgJR/s9DIyEvhLgTBxDvTzyresZ7G4LtaijBG7yPKFHFfukB+Bf7iPExj81LYP/95PHpPEXQiQUv6p99/+p0rLyue2bj2ixnHoC8FkNQooLMgcgwAo8D2SGUshXfvB7auYu1CYiIYSIET12P16NJwF+UGZuEUaTiabQ9wiYA/wOCF+XRYyQHoCATwCloRSwdMXNLFmh6VaWQggRE5QITau75Kb7mTD9wlCLKQVu1CCcmCcJQMA9oVycnpHNZ7/2E61iEUKImBLuu/8TjEYTN33pV5iTQh5mlWEAJAGAwISQRaEU8KkvfZ/s3AKNwhFCiNjh8alhnwNwqtxxE1j00ZDPDFgOTNQgnJgmCUBgWUjQqyHKJ05hxQ13aRiOEELEDmcY1v+fy5Kbv0hGTmEoRRgJsec3HkgCACG13nfc+00MRvnPKIRITC5v5OfSWVPSufz2r4dazC1axBLLEr3lmgaMD/biCZOmsfhyOehHCJG4HO7I9wAAzL70FtKzQxp6nUpgWWDCSvQE4IpQLr7u1nvl7l8IkbAUBexufVbTmZMsXHT1/xdqMSs0CCVmJXrrtTzYC5NT01j6kZu1jEUIIWLKsMuPok8HAAALrrobc5IllCI+olUssSiREwAjsCzYiy+54kZSUtM1DEcIIWLLsEvfvXRSM3KYNHtpKEVcqlEoMSmRE4DxQHawF1+4JKETRyFEglNUGHLqf7De9IuvCeXyPELcAj6WJXICMDXYC03mJGZdsETLWIQQIqb0OXwRXf9/JlMvvBJjaGcE1GgVS6yRBCAI1TXzSE3L0DIWIYSIKb12n94hAJCSnk1B2eRQipiuVSyxRhKAIFRUJezvixBCMOzy49ZhA6AzKZk0I5TLp2kVR6xJ5AQg6HGfCZMS9vdFCCHoGI6Ou/8TiitnhnJ5wu7jnsgJQNB9+MXlCb+FtBAiQQ2M+HF69J/8d6qcgrJQLg/pGPhYJglAENLSEvb3RQiRwBQVOoa9eofxIcnpQS/oAkkAElLQCUBKukwAFEIknh67F08Ujf2fkJKeFcrlkgAkoORgLzQaTVrGIYQQUc/pVeiMsrH/E0yhLQNM1SqOWJPICUDQHLYhvUMQQoiIUYHWAS9RsOz/tJx2+U4OhiQAQXDIL5sQIoF0DvuibuLfqZwO+U4OhiQAQRjo69Y7BCGEiAiHW6E7Cif+nco+0KN3CDFJEoAgNNcf0DsEIYQIO49PpbnPTZT2/J/U0SzfycGQBCAIjYf36h2CEEKElapCc78HX/T2/J/U0bRf7xBikiQAQWiq24/fF91dYkIIEYrWAW9Uj/uf4Pf76Gw5pHcYMUkSgCCMOGwc2LVJ7zCEECIs2oe8DIxE55K/D2ratwG30653GDFJEoAgbXr3Nb1DEEIIzXUO++i2xUbjD3Bw8yq9Q4hZkgAEacvaVfj9sfNHIoQQ59Jr99EZ5TP+T6X4fRze/rbeYcQsSQCCNNDXLb0AQoi40Wv30TYYO40/wIFNK3EM9eodRsySBCAE/3j693qHIIQQIeu2xV7jD7Bl5Z/0DiGmSQIQgoZDe6jds0XvMIQQImjtgz7ah2Kv8W8+sJm2I3v0DiOmSQIQoid++5+o0bpBthBCnIGqqhzt89Btj73GX1VV3n32f/QOI+ZJAhCiw/u3s+Htl/UOQwghxsynqDT2ehhw+vUOJSj717/M0UPb9Q4j5kkCoIE//+YHuJwjeochhBDnNOJRqetyY3dH/yY/p+P1uHj76V/oHUZckARAA73d7fz1kZ/rHYYQQpzVwIiPhh4XXn/sDlu+8/TPGeo9rncYcUESAI288tzD7N2+Tu8whBDiQ1QV2ga9HO33osRu20/j3vVsef1xvcOIG5IAaERVFP7vh1/ENtSvdyhCCHGSy6tS3+Oi1x7bG5c57UO8/PtvyKRrDUkCoKG+ng4e/K8voyqxObYmhIgvvQ4/9d0unJ7YbjQVxc9LDz7AUG+73qHEFUkANLZt/Zs8+dCP9Q5DCJHAfAq09HloG/DEdJf/CW8/+VPqd67WO4y4IwlAGLz05G9465Wn9A5DCJGABp1+Dne6GIzRJX4ftGfNi2x89VG9w4hLkgCEySP/8y327VivdxhCiATh86s093po6fPgi4fbfqBx33pe+cO39A4jbkkCECZej4cffe1Oandv1jsUIUSc67X7ONTpZsgVH3f9AK2Hd/Dsz+/F74u9nQpjhSQAYeR2OfnR1+6kvnaX3qEIIeLQiEehvttN26AXfxzNju9oPsDTP/kUHpdD71DimiQAYTbisPGfD9wmSYAQQjNev0rrgIf6bjcjnvhaddR2ZA9/+cHtuBzDeocS9yQBiADb8ADfu/9Gdm2WWaxCiOApKnTZvBzqdNHviJ/u/hOa9m3giR/egdM+pHcoCUESgAhxOUf48TfuZt2bf9c7FCFErFFV+hx+DnW66BjyxcXSvg/at/5lnvrR3biddr1DSRgmvQPQ0VeA7EhWqCh+Nq99nZSUNKbOWhDJqoUQMWrQ6ae5z0P/iD8uG36ADf/4Aysf/S6KPpuoDQIP6lGx3gx6B6CjZqBCr8qXrriZL3/vQazJKXqFIISIYsNOP53DXka8cdrqAz6vm1cf/jZ71ryoZxgtwEQ9A9CLJAA6qpwyk+/895MUFpfrGYYQIooMjvjpsvlweuNrct8HDfd38uzPP8vxhr16h9KCJAAJR/cEACAnr5Bv/PhRZs6/RO9QhBB6UVX6nQrdNi+uOL7jP6Fp/0b+9usvYR/s1TsUkAQgIUVFAgBgMBi47tZ7+fS//RBzkkXvcIQQEeJXVfrtfnocPjy++G/4Fb+PtX/7DWtf/A2KEjWrGFqQBCDhBJ0AGE1mFL/2R2tOmXEB3/jxIxSVTNC8bCFE9HD7VHodPvrt/rjawOdsBrpaefHXX6KtfrfmZYf4ndxCgiYAsgwwCPPv/AXm5HTNy607sIMH7rqM1Suf1bxsIYT+RrwKrQMeDne66LH5EqLxV1WVXauf56GvfyQsjX9Scgbz7/yF5uUmAkkAgpBXMYel9z+BJTVL87JH7MM8+F9f5of/divdHcc0L18IEVl+RaXX7uNwl5v6Ljf9Dj/x3+wHDPa08dSP7uLl338D94j26/uTkjNY/PnHyKuYo3nZiUASgCBll9dwyRf+HJYkAGDXlnf54m2LeOnJ36DqszZWCBGCEa/CsQEPtR0u2ga9uOJ8Vv+pVFVlx1vP8PuvXEnDnnVhqeNE4587YXZYyk8EkgCEILtsOos//yes6blhKd/tcvLE7/6Lf//c9TTVHwhLHUII7fgUlW67l8OdLuq73PQ54nfznjPpaD7An777MV59+N/DtqufNT2PJff/RRr/EEkCEKKc8hlc+pXnSS+oCFsdh/Zu5aufvJxf//B+hgb6wlaPEOL8KWpgt76mXjcHOty0D/pwJcCM/g9y2odY9acf8Mg3r6P18Paw1ZOWV86yf3uG7PKasNWRKCQB0EBaXjmXPvAceRPnhq0OVVFYs+oFvnDLRbz23CPRtIRGiIRkc/lp7fdwoMNJS5+HYZcCCTCp74NUVWHPe3/jN19axpbXHw/rd1PO+Flc+pXnwnrDlUgkAdCIJS2bxZ9/nHE1l4a1HrttkD/+6rs8cNdl7Nj4dljrEkK8n92t0DbopbbDRWPv6P78iTO0/yF1O97h919dwd9/81Ucw+HtnSyecTlLv/gk1vS8sNaTSMx6BxBPzJYUFn3mD9S/+xi1r/8aVQ3fN8PRhoP811fvYOrMBXzqS9+nZu7CsNUlRMJSVYbdCkNOP0MuPz7peAOgrX43bz/9M5oPbA5/ZQYD1Zd/lpprv4rBIPesWpIEQGsGA9XL7yW9oIIdf/13fG5HWKs7vH873/7c9Sy89Fo+8flvM75yaljrEyLe+VUVm1Nh2OVnyKkkxFr9seo+Vs87z/yCw9veikh95uR0FnziFxTPWB6R+hKNJABhUjLrSi4vnsyWx7/EcGdD2Ovb/N7rbFn3Ty5YdAV33Pv/qJom62KFGCu3T2XY6WfI7cfhVlGl0X+frqOH2fDyw+xf/3LE5h+lF1Rw8T2/I3NcVUTqS0SSAIRRekEFyx54jr0v/YjWHa+EvT5VUdi+4S12bHybC5dexW33fF0SASFOQ1XB7vZjcwfu9BPhAJ5gHG/Yy9oXH6RuxzsRTYomLLiR2R/7D8zWtIjVmYgkAQizpOR0LvjELyiatoTdL/4Qnys862JPpaoqW9f+k61r/8m8hcu5+e4vMeuCJWGvV4iopYLTqzDsVrC7/Dg8SsKtzz8fTfs2sOHlh2nYszai9SalZDL34z+gbO61Ea03UUkCECHl864jb+I8tj/9Tfqadkas3l2bV7Nr82omTq7hmls+w2XX3obFYo1Y/ULoxeVVcHgUbG4Fu0vBJy3+Wfl9Xg5ve5ONrzxC25E9Ea8/d8JsFtz1P6Tlj4943YlKTgMMwlX/sZrU3NKgKlUVP/XvPsbhNx/C73MHVUYocvKKuPbWz3L1zZ8iIys8OxgKEWkq4PQo2D2BMXy7W8EvDf6YjNgG2PHW02xd9RdsA90Rr99ktjL1qi9SfdlnMBhNQZUx0n+cN34U9ETBFhL0NEBJAIIQSgJwgr23ld3Pf4+ehm0hlRMsc5KF2Ys+woobP8mCi5dhNsnyGhE7fIqK0xO4w3e4VRzexF6PH4z2xv3sePsZ9q79O163U5cY8ibOY97tPyajsDKkciQBCI4MAegkPX88S+5/guYtL7L/lV+EfbngB/m8HnaufY2da18jv7SKBVfcymXX30V+bi6pFiMpSQYMhkTOD0W0UEfH7x0e5WSj707ArXa14B6xs3/DK2x740k6Ww7qFofJksy0FV9k8uWfkbX9Okrkb3hdewBONTLQzr6Xf0b7Pn139rMkpzJj8fXMuezjVEy/6GQikGoxkpxkJCXJiDGRf2NE2CkKuHwKIx4Fp1dhxKvi8sqyvFCoqsrRQ9vY/e4L1G5aicc1oms8ZXOuZuYN3yIle5xmZUoPQHCkByAKpOaUcPGnf0tPw1b2vvSjiOwbcDoe1wi7Vj/PrtXPk5VfwqwlNzLvitvJKx792zCA1WQg1WIiJclAcpKR5CSwyPCBCILHr+Dyqji9ge58l1fB5VcDA/oiZEO9x9m3/hV2vv1X+juP6h0OGYUTmXXTdymaeoneoYhRiXw/FzU9AKdS/D4a1j7B4bceiviwwOkYDAbKp1zAnEs/Rs2ia0lJz/7QZ4xGSDYbA48kw8mHxWhM7N8wAQQ22XF7FZynPvsUGbMPgxHbAAc3r2LPey9xrG5HVPScJCVnMO2qLzFpyV1BT/I7F+kBCE4ifz1HZQJwgtvWx6E3f0/LlhdQ/L6w1jVWJpOZylmXMGPx9Uy9cMVpk4FTGQxgNRtJNhuwmAxYkwxYzUasZgNJpkT+1YszKnj8Km6/iser4vYruL0qHr+Ky6ck4gF5EeW0D3Jo65sc2Phz4dqfAAAgAElEQVQazfs34o+S7wujKYmJi25j6or7saaHd8WRJADBkSGAKGXNyGPOLd+natmnqF31a47vfVP3o0b9fh9Hdr/Hkd3vBZKB2UuYsehEMpD1oc+ramAttsv74bIMBrCajFhGhxAsJgOW0UTBYjJiDs+NggiGCl5FxetX8fgCDbvHr+LxKYGG36fq/auZcJz2QQ5ve4sDm1bStHd91DT6ABgMlM+9hulXPyBr+qOcJABRLr1gAhd96v8YaN1H7eu/prs+AqdvjYHf7+PIrjUc2bUGk8nMhOkXMWXBFUxdsIKconP/0atqYLKXywfw4b5gowHMJgMWo4Eks+F9PycZA/9OMhlkUmKIFCVw9+5XAo26zx9o6H3qaGPvCzT+0dCVnOj6O49St+Nt6ra/Q8vBrVHTM3iqoimLqbnu62SXTdc7FDEGifz1GdVDAGfS17ybutWP0Fn7ni71j0VO0XimXHAFUxZcwcSahRhN4cszTyQKZqOBJCOYR3sPTEYwGQKJgslgwGQEszHwszFO5ywqCiiqildR8SuBtfJ+RcWngH/0tZPv+RW8flW2w41iqqrQ0VQbaPR3vEN74369QzqjvInzmH7NAxRUXaRL/TIEEBxJAIKgZwJwQl/zLg6/+Xu66jbqGse5pGXmUTn7EqpmL2PSnCVk5mq39CdoBgNmoxpIDAyBfxuNYDYYMI7+bDSceBjAoGIaXat8YsGD0WDgg3mE0cg5/6IUhQ/NclcINMSqqqKogQJO7GJ3YvtavxK4TFFU/GrgfUUNNPh+P3JkbZwY7u+kcc86Gvauo2nvBhzDfXqHdFZF05YybcX95Fboe+iYJADBkQQgCNGQAJzQf3Qv9e8+Rsf+1ahq9E+rLiyvpmrOMibNWUrF9ItIsqboHZIQuvG6nbTUbqFhzzoa966j+1i93iGdk8FoomTmcqov/yw542fpHQ4gCUCwJAEIQjQlACc4+o7RsO5JWra8iN/j0jucMTGazIyrmMakWUsYP/UCJtRcTHJqht5hCRE2XreT9qYDtB7eTtPeDRw9tA2fN/JnggTDaLZQNudqplz5uZC37tWaJADBkUmAcSItr5zZN32XaSvup3HDX2ne+CwuW6/eYZ2V4vfR3rj/5NimyWSmpGo2FdMvYkLNRYyfukASAhHTXCM2Wg9vp6V2C0drt3K8cV9UTt47m+TMAiov+QSVi+/Akvrh1T4idkkPQBCisQfggxS/l479q2ne/ALdRzbrvoQwWDlF4xk/dQElk2ZSMmkWZdVzMYVxUqEQwVIUP73HG2lv3Ed7435aD2+no6k2JobmTie7vIaqJXdTNu+6sE7k1YL0AAQnuv+viqAZTUmUzrmK0jlXMdReR9OGZzi28zV8Hn1O/QrWQFcrA12t7F37EgDWlHRKq2ZTVj0vkBRUziS7sEznKEUiGug6RkfzAdob93OsbiftjftwO+16hxUSszWN8Rd8lMrFd5JZPFnvcESYSQ9AEGKhB+B0vC47x3evomXrS/Qf3at3OJpJSc+iuHImxRNrKK6cQfHEGvJKKjGGadtRkVgUxU9fexMdzbV0NB0IPJoP4LQP6R2aZvImzmXChTdTNvcazNY0vcM5b9IDEBzpAUggScnpVCy8lYqFtzLc2cDRrS/RuuNV3PboXmp0Lk77EE37NtC0b8PJ1yzJqRSUTaZw/BQKy6spHD+FgrIqsgukt0Cc2WBPGz1tDXS31tF9rJ7u1jp62o7ofoJeOCRnFjD+ghuYcNHNUTepT0SG9AAEIVZ7AE5H8fvoOryeYztX0nFgNX5vbKwgCJY1Nf1kYlBQWkVe8UTyiieSM24C5iSL3uGJCPB5PfR3ttDX3kx/Zws9xwMNfs+xIzHfhX8uZksKxTOWUz7/OoqmLgnb4TyRJj0AwZEegARnNJkprrmM4prL8LkdtO97m2O7VtJdvxlV8esdnubcI3ba6nfTVr/7fa8bDEay8kvIK55IbnHFyefcovFk5ZdiTU3XKWIRDPeIncGeNga6j9HX0Ux/R8vJ56He9pidmBcMg9FE0ZRLKJ9/HcUzlmO2puodkogSkgCIk8zWNMYvuJHxC27Ebeujff/bHN/7Fj0NW+MyGTiVqioM9rQx2NNG4771H3o/OS2T7IIysgpKySkoI6uwjOz8EjLzS8jKKyYtu0BWJ0SI3+fFMdTLUF8Hw73tDPYcZ6jnOAM9bQx2tzHUexyXY1jvMHVlNFsomHwxJTOvoGTmFWE/jU/EJvnGEqdlzchj4qLbmbjodjyOQdr3v8PxfW/RU78ZxX+a4/3inMsxTKfjIJ0tB8/4mfTsfNKy8snMKyY9O5/M3HGkZReQmVNEamYuqRk5pGTkkJqRg8mcFMHoo5/f52XENoDTNsCIbYCR4X6GB7pwDPYw1NeJY7CH4f5OHEO92Aeje38LvSSlZDJu2lJKZl5B0bQlMTmZT0SWJADinCxp2VRcfAsVF9+C12Wj69B6OmrX0HV4PR7HoN7hRQ37YKBx6jp6+Jyftaakk5KRTVpG7smkwJqaQXJqBtbUDKwp6VhT0rCkpGNNTSc5LQtrchqW5FSSrKmYzGYsydHxBe9xOfD7fHjdI3hcI7hdDlyOIdwjdjxOO26nA7fTjnvEhmvEhnvEdrKxdwz347QPxv3Ye7ikZBdTPONySmYuJ3/ShVG/Xl9EF/ltEeclKTmDsrnXUDb3GlTFT1/zLjoPvkdH7XvYuhr1Di9muJ123E47g91tIZVjNJmxpqRhMBixpmZgMBhITsv81/tGE9aUD++maDAasKYGPuceGUY9zbGAbqcN5ZShH5djGFVVcY/YUFUF94j9fe+LyMgsrqZk5nKKZywnp6wGDIk8l1uEQhIAETSD0UT+pAXkT1rAjOu/icvWS1/jDrrrN9F5aD3OwQ69Q4x7it93cj36iG1A52hEOFjT88ivWkBh9SKKpl5Cak6J3iGJOCEJgNBMckb+yd0HIXBAUXf9ZrrrN9FdtwmvM7EnZgkxFmZLCrkVcymsXkhh9SKyy6bLXb4IC0kARNik5ZUzcWE5Exfeiqr4GTp+OJAM1G+mt3F7Qk4mFOKDDEYTWaVTKaxeRGH1QvInLcBokkmiIvwkARARYTCayC6vIbu8hurl9+JzO+hv2Utfy276j+6lv2WP9BCIhJCUmknuhDnkTphNXsVccifOxWxJ0TsskYAkARC6MFvTKJyyiMIpi06+5ug7Rl/TTgbaaulr3sVQ26GE2rBFxB+D0URG4USyywLJb/7E+WSVTcNgMOodmhCSAIjokZZXTlpeOeMX3AiA1zk82juwl/6W3fQf3YfXZdM5SiHOzJKWffLuPrdiDrkTZsl6fBG1JAEQUSspJZOiqUsomrrk5GuuoW4G2mqxdTYw3NnAYFstw12NoH54GZsQ4ZScWUB2eQ2Z4yaTWTSJ7PIZZBZNkgl7ImZIAiBiSnJWIcVZhRTXXHbyNa/LznB7HcNdjQx3HmHwWC2DbQfj/mAjERlGk5n0goqT3fiZ46rILp2GJS1H79CECIkkACLmJSWnk1c5n7zK+SdfU/w+bF2N2LoasHU3Y+tqxt7TjL27GZ/HqWO0IlqZrWmkF1aQUVBBemElGYUTySyuJqNwYtycmifEqSQBEHHJaDKTVTKFrJIpH3rPOzLMcOcRhrsacfQdY7jzCLbORkb6j8ukwwSQnFlA5rjJpOWVkTGuisxxVYH5J7ll0n0vEookACLhJKVmfqjHAMDvdWHvOcpI/3FG+o/j6D/OyMBxRgbaGelvx+OQnfZigTUjj9ScUlJzS0jNKTn5c1peOekFE2SNvRCjJAGIAs7BTtp2r6KveRfOoS7M1jSySqZSOuvKDzVSInxMScln7DUA8Hmco8lB28mkYGSgHedgJy5bL67hbvwemXcQTmZLCslZhVjT80jNLSU1p/j9jX1uKaakZL3DFCImSAKgI1Xxc/ith6hf/Rh+n/t97/Uc2ULD2r9QUHURs276NlklU3WKUpxgtqSQOdplfCY+9wiu4W7ctj5cwz24bL247X04B7tw2/sD79n78Y4MyVyEUWZrKkkpWaRkFWJNz8WaWUBKZgGWtNzAaxl5WDPySc4skA1zhNCQJAA6URU/W//yFdr3v33Wz/U0bOXd//0YlYvvYPrV/0ZSSuZZPy/0Zbamkl5QQXpBxTk/q/g8eJzDeEeG8IwM43WeeB7GMzKId2Q48L7Tht/jxOd2oPi9eJ02FJ8Hn9eJz+VA1elEPqPJjMmaijkpBaPZQlJKBkZTEmZrGiZLCpbUTJJSsj7wnIklNYuk1EwsKVkkpWbJEbZC6ET+8nRy+O0/nLPxP0FV/DSuf5q2Pf9kxnXfYPyCG2QnsThgNFtIzsgnOSM/pHJUVcHntOP3ufF7XSh+L373+3sXfF4nis/zvte8TjsASSnp74/LlITZkvr+15KsmJKsmCwpmEyBxl4mzCUOv8+N29aPyWzBmp4r/+/jhCQAOnDZeqlf/dh5X+e29bHz2W9zZM2fmHH9Nxg3/VLtgxMxx2AwkpSaiUxtE1pSFT+tO16lZcuL9LfsOblCxpKWTXHN5VQvv5eMwok6RylCIQmADlq3vxzSJjXDnQ1s+uPnGTdtGTOu/waZxZM1jE4Ikehctl62PP4l+lv2fOg9j2OQo9v+TuuOV5j50W9Stez/i3yAQhOSAOigr2mnJuV0HlpLV90Gxs+/nqkr7ictf7wm5QohEpfXOcz6330SW3fTWT+nKn72vfxzFL+P6ss/G6HohJZkIFkHLlufZmWpip+j21/mrZ9dza7nvoujr02zsoUQiWfvP356zsb/VLUrf8Xg8YNhjEiEiyQAOjBbU8/9ofOkKn5atr7E2z+7il0vfB9Hb6vmdQgh4pu95yjHdrx6XteoqsKhN34fpohEOEkCoINwjtkrfh8tm1/grZ9dzbYnv8Zgm2TmQoixad/3VlDbYXcdXo/PPRKGiEQ4SQKgg9JZK8Jeh6r4adu9inf/92Y2PHwP3fWbw16nECK2DXceCeo6xefB3tOibTAi7BJ5EmDQu6eEuvFK/qQFFE5ZRHfdppDKGavuuk10120ivaCCykvupOLij8uOakKID/G6HCFca9cwkvMT4neyPjtpRYFE7gEIur/K67SFXPn8O35GSlZRyOWcD3tPC/v+8VNW/WAJe//xE5kwKIR4H2tGXtDXJodwbahCTD70y1x0lsgJQNCtuMc5HHLlKVlFXHL/n8komhRyWefL57LTuO4p3vrJCjY9+jna97+j23ayQojokT9xXlDXWdPzxrT9dbh4Q/tODv2OLkYl8hBA0FmfVsfCZhRWcvnXXuLw2w9xZM2fUfxeTcodK1VV6Dy0ls5Da0nOLGDChTdTcfHHScsri2gcQojoUDzjcpJSM/GOnF+DOv6Cj2IwmsIU1bm57SEtrU7YBEC//2P6uwaYGcyFGYUTKZh8sSZBGE1mCqsXUjb3GuzdzTj6jmlS7vnyuUfoa9pJ0/qn6TmyBcXvIy2vTI5WFSKBmJKsmJOS6Tq8fszXWDPyuPCTv8Jk0e+7om3PP+lt3BHs5VuAf2gYTsxI5ARgNrAsmAtN1lTGz79e02AsadmMv+AGMourGTi6F69Lr6RUZWSgnc7aNTSsfYKB1v2AgfS88XJqmxAJIHf8LJyDnQweP3TOz5qtaSy+9xHSCyvCH9hZNK5/+rw2L/qAvwNrNQwnZiRyAlAK3BzMhT6XnerL7gnLiViZ4yZRecmdWNJy6D+6F8Xn1ryOsVJVBXtPC+373qJh7V/oP7oHo9FMesEEXbv7hBBhZDBQXHM5JksK/S27Ufy+034su3Q6i+59hOzymggH+AGqyr5Xfh7KPgSPAgc0jChmJPKZjhcDQS+Ov+yrL5IzPqgRhDHzOAY5/PYfaNrw14jPDzgbS1o2pbOvonz+deRNnCdHEwsRp1y2Xo7tfI2ehq04B7swW1LIKKqkeMZyxk1fFhV/+4PHD/LuL4O6lzthPrBLo3BiSiInABlAP0FOhKxefi8zrvu6thGdgaPvGIfe+B3Hdq2Mutn61ow8iqdfyrjpl1I4ZXFYtjkWItY5BzvoPLgWW3czis9LcmYBBZMvJrdidlQ0orGs7p1HqX39V8Fe7gFyCGFZeCxL5AQAYBuwIJgL0wsmsOI7b2ocztk5+tqoX/0oLVtfirpEAMBgNJE7YTbFNZdRPPMKOStcJDyPY4D9r/yC1h2vnnaL3aySqcy++bvkTwrqa0gAq//nBoba64K9fCNwiYbhxJREH8idAiwK5kLPyBD5VQtIy43ckjlLaibFNZdROvsjeBwD2LqaADVi9Z+TquIc7KC7fjNNG57h+L43GRnowGS2kpJVJHc6IqE4+o6x7rd30dOwjTP9nbptvbTueJWU7HFkl02PbIBxoP/oXurefjiUIp4C3tUonJiT6AmAFbgj2Is9jkHK51+nYThjY03PpXTOVZTNvQbF52a440hQB3iEm9veT1/zLo5u+ztNG//KcEc9PreDpNQsklIy9A5PiLDxe1ysf+hTY9sfX1XpPLiW/EkXRPSGIh4c/OdvGBrDaoWz+DEQ9PKBWJfoQwAZQBcQ3Mb4BgNXfmulLrv5ncpt66Np47M0rHsy1B2xIiY5s4C8yvkUVi+isHqRbD4k4srhtx/m4Kr/O69rMsdVsfybr8gKmzEaGejgrZ9+BMXnCbaIIWAc4NIuqtiS6L9pHgL7AQS9jsXjGKR09ke0iygIZmsqBVUXUrnwNiypmdh7WnQ9mGMsfO4RbJ0NdNauoXHdk7TueIWh44fxue1YUrNISpYeAhGjVJXtT38T33n+Dbrt/eRPWkBaXnmYAosv+1/979F9SoL2PPA3jcKJSYmeAAD4gNuCvXi4q4GCyReTmlOiYUjBMSVZyaucz6Qld5NVMgX3cC8jA+16hzUmXucwQ8cP0b7/HRrWPkHrjlcYbq/D47RhNJmxpGVjCMO+C0JobbirkfrVjwZ1bXJWIYXVQU1LSij2nqPsfuE/Qh36/HegUaOQYpJ8o0IygWGAzGALyC6bzmVf+1tUTnIbPH6QxnVP07ZnFX5P7PZ0ma1p5JTXkDN+JtnlM8gdP4vU3FK9wxLiQ7rqNrLx4c8EdW35vOtYcPcvNY4o/mx8+DN01W0MpYh+oIjADWDCkr1dIY1g5wCMGmw7SNOGZ5m05BMahaSd7NLpzL/jp8y66Tu07V5F88bnGDx+UO+wzpvP7aCnYdvojOqApOQMMosnk11eQ/7E+eRNuoDkjHwdoxQCjKak4K81WzSMJD4d27Uy1MYfAvO/soCQThGKdTIEAHcDN4RaSG/DNkpnXYk1PVeDkLRnMlvIKa9h4qLbKJq2BFQVe0/LGbf5jAWKz4NzsIOBo/s4vvcNjqx5nJatL9HXtJPhjnrc9j5UVcGSkikTq0TEGI1GGtY+EdS1ZXOuIr/yAo0jih9uez+bH7sfv8cZalEmoIEE3QHwBBkCgPcI8lCgD8ounc6lX30+pDuASPJ7XXTWvsfRHS/TdWh9VG4upAWD0URqTgkZ4yaROW4ymUWB54yiSbqeYCbi1+pf3hTU8rTl33yFrJIpYYgoDqgqm/90Px21a7Qq8V1guVaFxaJETwCKgTZAs8H7yZd+mpk3fEur4iLGOdhB647XaN3xCrauxJgXYzCaSM8fT8a4KjLHVZEzfhb5kxaQlJyud2gixrXtfp1tT57fVuHjpl/KontD2tQmrtWv/iMHVv6vlkX6CRwK16VlobEk0ftFbwQ+pmWB/S17SM0tJbt0mpbFhl1Scgb5lfOZdMknKJ55OUkpmbiGu2NmX4GgqCoexyC2riZ6G3fQtut1mtY/hWdkiLzK+THTkyOiT+a4yQx3Now5mbam57Lwnt+RlBL0XOS41tOwlZ3PfhtUTXc+NRIYAkjIkwBBEoAvA/O0LrTr0FryJy2I2VnqyZkFFFYvomrJ3RRNW0pScgbOwc7zXtccixS/j/6WPXQcWE3JzCswJ6fpHZKIRQYDxdMvw9bdOLpl95mlZI9j0b2P6L6hWLSydTez4eF7wrWKqRdYGY6CY0GiDwHUAdXhKNianseyB54lPX98OIqPOFVVGGjdT8f+1bTvfwdbd/zvnplVMoXLvvqizMwWwVNVWne+St3bD2Prbn7fW+bkdCouvJmpK+7HkpatU4DRzeMYYM3/3YajtzVcVRwGYqu7VkOJnAAUAZ3hrCA1p5ilX34mKjYJ0pqtu4n2/e/QsX81A637o/IsAi1Mv+YrTL3y83qHIeKArbsZe08Lfq+LlKxx5IyfIcNMZ+F12djwh88w0LovnNWoBNqCnnBWEq0SOQG4jAicApWaU8LSLz8dl0nACR7HAD1HttJRu4aOg2vwjsTPvIHkrEKu/v4aWUYoRAT5PE42PXofvY3bI1HdMmBdJCqKNon8rXYlcH24K/G6bHQdWk/p7BWYrfE5nmyypJA5roqSWVdSfdk9FE1ZTHJmPn6PE7etj6g6svg8+dwOSmZeQXJmgd6hCJEQfG4HGx/5LH1NOyNV5SYSdD+ARE4A7gAisum2xzHA8X1vUTRtKda0nEhUqRuDwUhqTgmF1QuZuOg2qpbcTW7FbJIz8vF7XXjsA8RaQlBYvZDMcVV6hyFE3POMDLHx0Xvpb9kdyWoPAe9EssJokchbAVdGsrKR/uOs++1dLL7vUbLLgz58MOYkpWZSMvMKSmZeAQSy+/6je+mu30x3/SaG2g5F/fwBgymR82QhIsPR18bGRz6DvedopKtO2OUXiTwH4B102AXKbE3jok//hqIpiyNddVRy2/vobdg+us//1qjchOjyb/yd7NLpeochRNwabDvIpj9+DtewLnPx3gZW6FGx3hI5AdgCXKRHxQajiZprvkL18nv1qD6quW199B/dy8Cx/Qy0Bh6ekSHd4knOLODqH66NypMehYgHbbtXsfO57+h5WukWYKFelespkROAWkDX27ryedcy77afyH7052DvbT2ZDAwc289gW23EvixqrvsaU5bfF5G6hEgkquKndtX/Uf/uY1rv8He+DgAz9QxAL4mcADQBE/UOIqd8Bhd9+jdxvUxQa6riZ7jzyMmkoL91P8Md9ZofZpRdXsOlDzwna7WF0Jjb1sf2Z75Jd90mvUMBaCbCc8KiRSInAM1Ahd5BQGBHsLkf/0/K512rdygxS/F5sHU3MdzZyHBHPbauJoY763H0tQWVGGSVTOGSLzyONT0vDNEKkbh6jmxh+zP/D9dQt96hnNBCFNwM6kESgChScfHHmXXTdzBbUvQOJW74fW7sXU0Md52SGHTU4+g/ftrEwJycTtXSu5ly5ecxma06RCxEfFIVPwf/+SD1qx+LtpU/LUgCkHCCTgAMlUtQmzdCGH6JMworueCu/yanfIbmZYt/8fvc2LoCB7U4B7swmS2kF0wgf9KFMidDCI0Ntdex89lvM9h2UPvCTRaM1VegHFoVbAktSAKQcIJOAIwXfxZDfhX+Vd8FjcedIbBKoPKSO6m59mvSGyCEiFmq4ufImsc5+MZvUXwe7SswJWG6/n9QO/ahbH082FJaSNAEQNY2BaO3AeOUFZiu/hGEYXmYqvhpXPcU7/7yJnqbdmhevhBChNvAsQOs+dXHObDyf8PT+JstmG/4FcZJS6G3QfvyE0Ai7wQYNLWzFlAxTr0KDEb8q74Hik/zeuw9Laz/3SeZuOh2aq75CkmpmZrXIYQQWvI6h6l9/f9o3vy85itzTrKkYv7o/2KYcBGoCkpHbXjqiXOJvMfpV4DgDuH2jGCcdCmG9HwM+ZMwls5BaXwP/GHIclEZOLafli0vYEyyklM+QzalEUJEpeN73mDjH++jt2Fb+Nb2p+VhvuVhDKVzAFA7D6Ds+msoJQ4CD2oRWqyRBCBIhvR8DOUXBH7OKsVYuQS1aR14HFrF9z5+r5uuw+vprH2PzOLJpOYUh6UeIYQ4XwOt+9n+5Nc58t7j+D3OsNVjyC7DfOujGPL/tX2/su8l1LaQDvNL2ARAJgEGyZBfhflTL7zvNXW4E//fv4zaF+b97A0Gyuddx/SrHyAtryy8dQkhxBk4+o5Ru/JXtO19I+y7+RnK5mP+6P9Ayqn3bSq+P38Mtb8llKJbSNBJgJIAhMB822MYyua9/0W3Hf8/v4fSuC6UosfEaEpi4uLbmXrlF7Cm54a9PiGEAHDb+6l751GaNjyD4veGvT7j3NswXfp1ML5/2praug3fi58PtfgWEjQBkCGAUHidGKdc+f7XzBaMUz+CwWBAbdsNhC8rVlWFgaP7aN70HIrfS075DIxm2bZWCBEenpEhDr/1ENuf/ga9jdvDv6GPyYJpxfcwXfSZ0664Utb+KtS7f5AhgIQU+k6ARhPme17GkFV62rfVpvX4Vn0P3LaQqhkrS1oOVcs+xaQld5GUnB6ROoUQ8c/rstHw3hM0rH0Crysy32eGzBJM1/8cw7jTb4qmDrTi+/PNWmzI1oL0ACSc0HsAVBWcgxgnLz/t24acCRgnL0dt3wuO3pCqGgu/10XPkS00b34Oxesmq2QKpiTZ1U4IEbzje95g06Ofo/Pge+FZz38axuorMN/8GwzZ5Wf8jPLOT7WabyU9AAlIm7MADEbMn3gKQ9G0M3/G78W/8SGUHU+FZfvgMzEnpzNp8Z1MWno3yZkFEatXCBEfGtc9xd6Xfxq543rNVkyXfh3j7FvO+jG18wC+Zz6FRkOsLUgPQMIJvQcAABV1oBVjzXWcMZ8ymjBOuBhj6VzU1m1hWyr4QYrPQ1/zThrXP42jt5W0vDKSM/IjUrcQIrb1Ne1k21Nfj9hNi6FwKuabf4ux8pKzf1BV8K/6Dgx3aFV1wvYASAKgheF2DGn5GMZNP+vHDFmlGGuuh+GO8C8VPIWqKgy1H6Z503P0Ne/EkpZDev4EMCRyB5AQ4my2PfFVnIOaNbJnZkrCtPA+TFf/F8LaC3YAACAASURBVIa0c9+gKHteQNn7Ny0jSNgEIJFbAG2PA7akYv7k82ecEPhBSsN7KKt/hmrv0SyE85FROJGKhbcy4cKbsaRm6RKDECI6DXc28M4vrgt7PYbCqZiu+k8MBZPH9Hl1sA3fk7eBV9PNhlqQIYCEo10PAIDfi9pzBOP0a8d0Z23IrcA480ZwDqF212kWxlh5HIN0122kcd1T2HtasGbkye6CQggAOg6spqN2TfgqSErBtPgLmK76IYb0Mc5PUvz4X/06DB7TOpqE7QGQBEBLw+3g92CccNHYPm+2Ypy0DGP5PNSOWnAOahrOWKiKn6H2Oo5ufYnj+95EVRTS88sxyTHEQiSsrrqN9NRvDkvZxqpLMd30IMbKJed1mqp/3YOoh98MR0iSACQg7RMAQD2+F0P+JAx5lWO+xpBVinH2xzBY01E79kMEdtY6Hbe9n65D62hY+ySDbQcxmpNIyx+PwZjIvyZCJJ6h44fpOqTtbqaGrFJMV/8I08L7MFgzzutape4tlPd+pWk8p0jYBEDmAIRDUirmO/+CIb/q/K919OJf9xuUg68Tzl0Ex8qSlk35vGsZf8EN5IyfpXc4QogI6G3awbrf3qVNYZZUTBd+GuP8u8BsPe/L1e46fM/do/W4/6laSNA5AJIAhIkhvQDT7Y+PeVLgB6kd+/Gv/TXq8T0aRxa8tPzxlM2+itI5V5FddvYVD0KI2OVXFf75n5fhGeoKvhCjCePMmzAt+hyk5gVVhDrYhu+5T4OjL/g4zq0FSQASTlgTAABDdjnmOx4P+pcfQGlci7L+dxFdNjgW6fnjKZ1zFWVzriar9CybIAkhYoZbUTnm8NFs9zGy6wX87/wsqHIMlUswLX3gvIZCP8TRi+/ZT6MOHQ++jLFpQRKAhBP2BADAUFCN+dZHIDmEpXaqglL7Gsqmh1FtIWTkYZKeP57iGcsZV3MZ+ZXzZc6AEDGmz+On1eGnfcSHcmLkUVXwv/YtlCOrx1yOYfyFmBZ/AUPJ7NACcg7he/E+1J4joZUzNi1IApBwIpIAABgKJmO+5aGQegIA8HtQ9r+Msu3PUZkIAFhSsyiatpTiGZdTNPUSkpLPb7KPEGKUqjLUUUfX4Y30NGxl8NgBPI5BrBl5ZJfXMOGCGymZdWXQCbdXUWl3+mm2+7B5z7Dbn6rgX/srlJ1/PWtZhtI5mC75Ioay+UHF8j6OPnx/+wJqb0PoZY1NC5IAJJyIJQAQWPdvuuUPGDKKQi/M70U58EogEdBuO0zNGU1m8ictoHDKYoqmLCarZKrsPijEWbhtfXTVbaR79OGynf0QsdwJs1lw9y9JyzvzoTmnUoFeV+Buv9N1yt3+ua7r+P/Zu+/wNq4r8fvfGQAsAAn23imK6hLVmyXZlrvjGid2nMRxerKb+tvUN05vu5vdeHeTOMk6GzsuiePEseUqd8mSrN4rSbGIvReQAEGUue8fQ8mSrUKCAAYg7ud5+ICCOPceF2LO3HYOo+19HO3UDnA79Dctiajla1Dn3YYy3q3Pl+pnqBP/3z6H6D8VlPbGqRGZAMScsCYAMFbe8o4HUNKKg9Og34t27Hm03Y+E+xcmIPFJGWTPWEXOjNVkz1gtCxRJMU/zeeip30tX9TY6q7cx2HZiwoV3ElNyWPvFxy6aBAx5NdpG/LS4/Lh8kzzbf2QQhG/yI5rvIvpP4f/7PyMcbUFtdxwakQlAzAl7AgBAQgrmm3+BUrQkeG0KDa3uLbQ9j0TUroFLsedVklWxjMxpS8mctoT4pOB+oEhSpBGan4GWY/Q27KWz+m166nbh97gn3W56aRXrvvj4OdMBbr+gfcRP24ifvlH/pPsIJdG8G9+z3wD3oBHdNyITgJhjTAIAevGL9d/WjwIOMtF+BG3PI2i1b4S19HAw2HMrziQDmdOWyRECKep53UP0Neynt/EAvfV76W86hM8Tmv3sKz7xKzLmXEXHiJ92l58ej4YIVxnfSdAOP63vNtB8RoXQiEwAYo5xCcAYdclHMa35EoRg1bxwdKAdegrt8NPg6gt6++FgyywmvWTB2Nd8Ugpmo5rMRoclSRfk7G2ht2EffY376anfy1DHSUSYEvHEGVei3fQf457XN5zmx//Wf6HtfdzoSBqRCUDMMTwBAFAKF2K68ecoSdmh6cDvQat5De3Ak4i2Q6HpI0xM5nhSi2aTXlJFeskCUovmjHvxkyQFm8fZz0DLcQZaj9PfdIjexv24B7sMi0dJzsH8mZcM638ixFAn/he+HSlTlo3IBCDmREQCAEBiGuYbfoJSujKk3Yiuan33wPGXjJprCzpLop3UglmkFs4mtXA2KQWzSM4uk2cRSEHl7G1msPUEA63HGGg9zmDrCUYGOowO61xxNixf3GJ0FJckGrfje/E+GOk3OpTTGpEJQMyJnAQAQFFRl30c08rPgMkS2r58HrSTb6Id2YBo2hV1awUuxRSXQEreDFLyZ2DPnU5y7jTsudPlmgLpkjSfh6HOOgZaTzDYevzMzd7rHjI6tEtS7LmYP/2i0WFcmN+Lf/vv0XY9HGmfOY3IBCDmBJwATL/iE9RuemjC23XGQ8megem6H6FkTQ962+cjHB2IY8+jHX8J0dcQlj6NEmdNOSshqCQ5p4ykrFISU3NRJlCWVIp+IwPtDHU1MtzdyHBXA0NdDQx3N+DqawvbnH2wqdPXY7r5F0aHcV6iuxb/S/eF5mQ/RWH65R+n9s0/BtpCIzIBiDkBJwDXffd1Oo5v5sBTPw5JEoDJgmnlZ1GX3TuhetmTJbpOoB3fiKh+OWJPGgwF1RxHUmYxtswSkrJKSBp7tWWWkJiaI5ODKOV1D+HsadZv7mfd5Ie7G/GNuowOL+hMt/wSteJyo8M4l+ZH2/0n/Nt/H5oy54pC1fu/R+6stWz88fpAW2kkRhMAuaQ6QOWr7wYUDjz1o+AnAX4v/q2/Rju5CdPV30HJnhHc9i9AyZ6JKXsmrP0SomUfWs1riLrNUz4Z0HweHB0ncXS89+hR1WQmMTUPa1oeiWn52NILSEzLx5qWhzUtH2taPqo5zoCoY5vm8+Aa6GBkoIOR/jZc/e2MDLTr74392TfqNDrMsFEKqlCnrTU6jHOIrhP4X/0pouNoaDpQFBbe8QPKVt2Jqy/kBYOmJJkATEL56g+hqCYO/P2HCC34B22IjiP4Hv8I6sK7MK3+PFisQe/jvBQVpWgJpqIlsP6biM7jaLVvIk5uiriqhKGm+X04e5tx9jZf8GfibGkkJGeQmJJDvD2LhLGvRHs2CfYs4pMziU9Ol3URxsHjGmR0uA+Psx+Ps5/R4T7cQ714hvtwDbSP3fDbL3lEbixRknMw3fCTsI4WXpTHif/t36Lt/yuE4HMRQFFNLPzADyhd8YGQtB8rZAIwSWUrP0h8Uhq7H/06fu/kT/R6D82PtvdxRM1rqFd8A3X6FcHv46IUlJzZmHJmw2X/jBhoRtS+gVa3Wd9WGKXzpcF0+mZ1vhGEsymqiThbKvG2NOKsqcTZxr6sqcTZ0rAkJmNJSMIcb8OcYMMSb8OckIQl0Y453hYVZyBoPg8+zwjeEQd+zwg+zwi+USfekWH8Hhe+USejZ27uA4wO9TDq7MMz3M+osz8kifRUpuTPx3TDT1Hs+UaHAoBW+wbam78I6aihyZLA0o/+B/nzrgpZH7FCrgEIwHXffR1resE57/U27GP7Hz6PxxXa7XVKyQpM674atkWCF+XqRTu5Ge3kJkTzLvB5jI5oSjOZ41Hj4olLtAOKPqKgKljik1BUE+Z4G4rJhDkuEfXsnSSKgiXRPq4+vCOOc6a0vG4nQrxzU/a5nWdu0p6RQfweN36PC++o85y/k0LIkoBSuAR13q36nH8EPPmL7hr8m+9HnNoZ0n7ibGms+tRvSS+tOud9V1+rXAMQAJkABOB8CQDAUFc9237/6dDPRykq6txb9GkBW2Zo+xovrwvRvBetaSfi1C5ETx167TFJkiZHQcmajlK6ErVkBUrBQoiUdSfOHvzbHkA78mzIRwNtGUWs/uyDJGWVvufvZAIQmMgfU4wiydnlXPHVJ9n58Ffoqdsduo6Ehnb4abQTL2Na9jHUxR8O3/qAC7FYUcrXYCpfo//Z2ftOMtC0c8ovJJSkoLJmoJYs5/RNH1uEFcryutD2PIZ/9yPgDf2OiqyKZSz72H8Rn5Qe8r5iiRwBCMCFRgBOE5qfoy/+FzWvPxhgaBOUmIppyT2oC+8CS0J4+pwgMdiKOLUTcWonWtOuKXMSoSQFhWpCyapEKV+LOm2tvvMnAob238PvQTv6PP63fwvO3rB0Wbbygyx4//cuugZGjgAERiYAAbhUAnBa055n2f/k90KzOPB8bJmYln8Cdf7tYIqQIcLzERqi4xiidT+i7SBa2yFwylXdUgyJT0LJm49asACloAold17EJu+AfuM/9A/8O/8Ytt9Vc1wiC+/8CUWLbrzkz8oEIDByCiCEipfcTEredHY98i8MddWHvkNnD/43/h1t959Ql9yDOu+2yPxQUVSUvLkoeXOBj2IChKMd0XYQ0X4Y0XYI0VVtZHlQSQoqxZ6v3+gLFqDkV6FkTovMJ/x3846gHX4Gbc8jYZ3GS86ZxrJ7fklKfnjOQIlVcgQgAOMdATjN73Vz5Pn/pO6tRwPpLnCJqahVd2JaeBckpoS378nSfIjuWn2UoPM4omUfwtFudFSSdGmKipJeOnbDr0IpXBQx2/TGzeNEO7IB/66HwjbUf1rxkluo+sAPMMcljvsaOQIQGDkCEAYmSwILbvsOmeVL2f/kd0O+VfCMkQG07b9H2/Mo6vxbURd9BMWeG56+J0s1o+TMQsmZdeYt4WjXRwa6qxHdNYiuGsSgPAFMMpApDiVzGkr2TJTsGfpXViVYxn/ziiTC0YG27zG0Q0+DdySsfcfZUll050/k/v4wkglAGBUsuIb0knnse+I+Oqu3ha9jrwtt75/R9v8VddrlqIvuQilcHL7+g0Sx56HY8+Ds885HhxHd1Xoy0F2jf99TF5pzx6XYFp/8zk0+ewZK1gyUjHKYAqWnRctetH1PoJ1805DDvXJmrmHRXT8hMSUn7H3HMpkAhFliah6rP/sHTu1+mkMb/hWvyxG+zjU/Wu3raLWvo2RNR114F+rM6yNzncB4xSehFC4+N6HRfIjeBj0h6K2D/lOI3kbEYItMDKRLM1lQUgpRMkoho+KdG37K+Kf9ooJvFO34i2j7nwhNlb5xiLOlMv+Wb1G89FZD+o91cg1AACa6BuBC3I5uDvz9R7QdfnXSbQUsIQV1zvtQ592KkjHNuDjCQfMjHG3Q14joa0D0NyH6GhF9jeDqMzo6KdxsmfpcfVqx/ppeCmkl+nz9FHiqvxDRW6cv7Dv2PIwYtx23sOp6Ftx+H/HJkz/jQK4BCIxMAAIQrATgtNaDr3DomZ8zMmDsIjclbx7qvNtQZ1wNcTZDYwm70SFE3ylE/ykYbNXXGzjawNGur36WIwfRyZaBkpyLkpKv39zTS1HGXmPq/3GPE636FbTDzyDaDxsaijUtnwW330fe3CuD1qZMAAIjpwAiQMGCa8iZtYbqV39H7aaH0Aw6U1+0H8bffhj/m/+BOvMa1Nk3oRRWERN5YnzyWVsT30VoCGcPDLa9kxSMfZ1JEMK8YEpCPxPfng/JOfpNPjkH7Hkoybln3ouYI3ONIDRE6wG0o8+hVb8alhP7LsZkjqdy/aeoXP9pTNE87TiFxMAn+wVFzAjA2YZ7mjj09M/oOLYpJO1PlGLPQ5l1PerM61AyK4wOJ3J5RxDDXeDq15MFZw/C1QfDXQhXPzi7wdmrvycL5lyYyYKSmAqJaWBNR7GmQWKq/p41HWxZKPZclKSc6NvaGiai5yTa8RcRJzYiHB1GhwNA3tz1zL/129gyCkPSvhwBCIxMAAIQygTgtI5jmzny/H/iaK8JaT8ToWRNR511A8qMa6NnO2HEETAyiHAPgnsIRh0ItwPcDn0aYmQQRh3gHtLfH3WAx4UYHQK/B8J1qmSgFFVfmGlJ1LfCWRIhwY5iTtC/j7NCXBJKYop+Qz99c09MQ7FlxNawfBAJRzvixMv6jb/n4mWpwyklfyZzb/46OTNWh7QfmQAERk4BRKjc2evImbWGpt0bOPbS/xi+PgBAdNfi7/5veOt/UHJno05fj1K5HiW1yOjQoojyzk3vnXcmxuMEvw/hGQbfqP7lGX7nPdBLM/tGz73O6wL/JU5XjE8694S6OBuo7/xZsVhBHfvYsJy+qdtQ4pL0P5vjJ/pPIwVI9J9C1LyOVvsGovOY0eGcw5pewOzrv0zR4vehRMOJhzFKJgARTFFUSpbdRuGiG6h76zFqXv/f8B0idFEC0XEUf8dR2PI/+sjA9CtRpq+X0wThMPaUrJxnCDyWh/Rigeiu0W/4tW9E1JP+aXG2NGZe/VnKV9+NGsvrL6KETACigMkcT+WVn6R89Yeo3/o4NW/8IUISAZ0+MlALb/9eP/O8dAVKyXLUstXGlymWpGjm8yBa9+ultWvf1HepRKA4WyrTLvsIFevuwZJoNzocaZxkAhBFzPFWKtd/mrLVH6Juy2Oc3PwwHueA0WGdQzjaEIf+AYf+gd+SgFq8DKV8DUrZZfoqbUmSLkoMdSLqt6DVb0E0747odR9xtjSmX/Fxpl32Yczxcv1GtJEJQBSyJCQx8+rPUbH2o9Rv/TMn33oEt6Pb6LDey+tGq3sL6t4CQEkvQylZhlK8DLVoqT7fLEmxbnQIrXkP4tRORNMu/WCqCJdgz6Ji3b2Ur/4Q5ng5yhetZAIQxczxNirXf5qKdR+jed/z1L75RxwdkTcveJroa0D0NcD+v+JXVJTc2SjFy1FLlqHkzZcLyKTY4BtFtB1Ca9qFaNqJ6DhmyPn7gbDnVTL98o9TtPh9qCaL0eFIkyQTgClANcdRsux2SpbeRsfxt6jd9BDdtTuMDuvihIZoP4JoP4K28//0/d85s1EKF6IWLEQpqIL4ZKOjlKTJczsQbQfRWvYhWg/oK/aj7GTJ7BmrmH75J/TtfIpcajpVyARgKlEUcmevI3f2OhztNdRtfZzmvc/hGzX2BLBx8XsRbQf1D0oe1muqZ5TrtdTzF+in9MnthlIUEP1NiI4jiLZDiJZ9iN76qHnCP5s53kbxkpspX3039rzpRocjhUAsp3IRfRBQsHjdw7Tsf5G6LY/iaDem4lfQxNlQsqajFFSh5Feh5s3VD5ORJKOMDiM6jqKNPdmL9iMw0m90VJOSlFVK6fL3U7byTizW6FjRLw8CCowcAZjiLAlJlK38IGUrPkBX7Q5O7XyKtkOv4n/3ITHRwOPUh1BbDwDgB5SUApTsmWdKtpJVKXcbSCEhhjoRXdXQXY3oqkZ0ntBrQ0wBJksCBQuuoWT5HWRVLDM6HClMZAIQKxSF7MqVZFeuxDvioHnf8zTufIqB5qNGRzYpYrAVMdgKta+/82Ziip4UZFXqiUF6OUpGmVxkKI2P162Xie6tQ3TX6Df7rmpwR87ZG8GSVjyf0uXvp3DRDVgS5JqbWCMTgBhkSbRTvvpuylffzWDbCZp2b6B5/wu4B7uMDi04Rgb1LVWndr7znqKi2PMgo1xfW5BeipIxTS8LK7cjxqbR4Xdu9H2NiJ466GvQqzxG4Zz9eCWm5lK48AZKlt2OPVee3BnLZAIQ41LyZzLvFr1gR1/DfloObqR57/N4nNE9j/keQtNHCgZbEfVbzv27BLs+lZBSCKn6q5JSgJI5DWyZxsQrBYfbMTZK1AID+qsYbIWBFsRgGyCMjjAsLIl28uZcQUHVdeTOWouimowOSYoAMgGQAL3uQEb5YjLKFzP3pq/RcXQzrQc30nFsU3TsIpgMt16RT3Qef+/fJaToyYA9F5Jz9frz9hyU5ByU5DywZYQ/XmmM0EssOzoQQx0w1Kk/vQ+16+8Ntk3JYfvxsiQkkzt7LQVV15M7a608m196D5kASO9hMsdTsOAaChZcg9/rpqt6G60HX6H96Jt4RxxGhxdebr107wWrrZni9OTAloFiywJbpl7W9vRrUrZe096aTmxvupkIAc4+hKsPhrvGXrsRrl5w9iCGu/XXoS69RLJ0RmJqLnlzriR/3lVkViyVh/VIFyUTAOmiTJYE8uauJ2/uejS/l+6a7bQdeYOOY5sYGegwOjzj+T2I/ibob7r4YLKi6mWAE+zvvCak6CMMiSnvfJ+QrBdQitO/lLik95bojQZC0+fYPcPgcelfXhdidAhGBvXEauz17O/PvDeF5+CDzZ5bQd7c9eTPu4q0ornyoB5p3GQCII2barKQM2stObPWAjDQeoyOo5toP/om/c1HQMTGfGpAhAausadaAph5Nsfr5yBYEiEhGVD0ssCqCcWcAKY4MMfpP6ea9QTibKpFv3Y8oXpHQHvXSXUeF2g+8I2Cz6MnPj43aH7wOPV/IveQfq3XFdEFbKKdoppIL60if+568uZdRVJmsdEhSVFKJgBSwFILZpNaMJuZ1/wT7qEeuqrfprvmbbpqtjMy2Gl0eFOLb1Q/Qx7gXdPaMu2a+hJTc8mevoKsypXkzFxDfJI8AEuaPJkASEGRkJxJ8ZKbKV5yMwDO3ma6arbTVfM2XTVv43XF2NoBSZoEc7yV9JKqsbM7VpFaOFsO7UtBJxMAKSRsGUWUrSyibOUHEZqfwdYTY8nAdnrq96D55OItSTpNUU2kFMwku3IV2ZUryZy2DNUkP56l0JL/h0khp6gmUovmkFo0h8r1n8bnGaG3fg+99XvpbdhPf/Phqb/VUJLOYo63klY0j4yyhWRWLCOjbBEmS4LRYUkxRiYAUtiZ4xLJmbmGnJlrABCan6GuBgaaj9DbsI/ehn04OuvkokJpykiwZ+nnbJQtIq1wDmkl8+UWPclwMgGQDKeoJuy5FdhzKyheeisAXvcQ/U2H6a3fR3/LEXrr9uJ1DxkcqSRdmjneSkr+TFKL5pBZtpjMimVy0Z4UkWQCIEUkS0Ly2HzoKkAfJRhsr2aw9YT+1XaCgdYTsXcwkRRR4qwppBTMIiV/JikFM0krnE1yzjR51K4UFWQCIEUFRTWd2XZ4NvdgF/0tRxnqOImj4yQDLUcZ6qxHyINkpCBLsGeRWjSHtMK52HMrSM6twJ4zTa7Ol6KWTACkqJaQkk1eSjZ5c644857XPXRmpMDReZLhrgaGuhpwO7oNjFSKFokpOSRllZKUXUZK/gz96T6/EnO8zejQJCmoZAIgTTmWhGQypy0lc9rSc97XfB6Ge5oY6jiJs7cZR8dJPUHorMfnGTEoWskIqjmOpMxiknMrsGUUYcsowp4zDXv+DCwJsjy0FBtkAiDFDNUcd2ax4dmE0HD1tTHc3cBwVyPOvhZcfW24+ltx9bfhcQ4YFLE0GfFJ6VjT8rGm52NNK8CWWURSVhnJ2aUkpuYZHZ4kGU4mABGif2wLnNvRjcmSQGrBLLKmr8Acb730xdKkKIqKLaMQW0bhma2JZ/P7RnEPduHsbcbZ24Kztxn3YBduRzfO3mZcfa1yzYEBLFb7maf3BHsWifbsM3+2ZZXIJ3lJugSZABisq2Y7h575GY722vf8nSXRTsW6j1F5xScxxclDQoxiMsefubFciNflYMTRhdvRdSY5GHF04XU5cDu6cTu6GBnskrsWLsFkjsditZOQkn3mpp5gz8ZitY99n0VCSjaJqblyH70kTZJMAAx0cvPDHN7w7xd8evSOODi+8Vec2vkU82/9Nvnzrw5zhNJ4Wax2LFb7e6YX3s036sI91IPXNYhnxKG/ugbxjjjOfXWd/vMg3lEn3pGh6DkYSVGwJCZjSUgmLjEFi9VOnNWOJTHlrNex98f+Pt6WRnxShkx0JSmMZAJgkLZDr3Jow7+N60Pd1d/Gjoe+SM6M1Sx4/3dJyioNfYBSSJjjrSTFB1a+VfP78I+68HlcaH4vXpcDze/F53HhGx17b0Q/LElofnzu4XOu9/s8+C9Rptdkicdkjj835gQbiqp/VMQl2lHNFkxxiZjjbaiqGYvVjmqyYI6zYoq3yjPsJSlKyN9UA/i9bg489aMJP9F1Vm/jtX+7ifLL7mbm1Z8nzpYaogilSKSazKhjIw0AZBgbjzT1Dfc0cWrnU/TU7WJksAtzXCJJWaXkzbuKokU3ymmYKCcTAAM073sh4D3pmt/Lyc1/4tSup5lx1WeYtvaj73likyRJmgyh+Tn6wv2c3Pwwmt93zt85Ok7Sdvg1TrzyAEs//O+kl1YZFKU0WarRAcSiruq3J92Gd8TBkef+g1d/dj2ndj2N0PxBiEySpFgnhMauR75KzRt/eM/N/2zOnibe+s09Qfk8k4whEwADuPpbg9hWG3v/8m1e/uk1NGx/UiYCkiRNSs3rD9J68JVx/azm87Dzka/gHuoJcVRSKMgEwABKCM4Od/W1sv/J7/Hav72P5n3Py0RAkqQJ8zgHqH7t9xO6xutycOKV34YoIimUZAJggKTMkpC1PdTVwO5Hv8YrP7+ehrefwO8bDVlfkiRNLW2HXsE36prwdS3yoSMqyQTAALmzLw95H86eJvb/7Qds/OEVHN/4azyuwZD3KUlSdOtrOhTQdR7XIENdDUGORgq1WE4AAj5VRUzyQJa8eetJygrdKMDZRof7OP7yr9n4oys58NSP5S+pJEkXNDrcN4lre4MYycRM8jM5Sk7YCr5YTgACLv/mGx2+9A9dhGqysPCDPw7rgSm+USf1Wx/n1X+9gW2//xQdxzbL8+slSTqHJdEe8LVx1pQgRjIxPvfQZC53BiuOaBPLCUDA/8ecPm1tMrIqlrHkI78I/9GnQtB5YitvP/hZXv3ZddS88X+GZu6SJEWOlPwZAV1niksgKbM0uMFMgGdyNTYm90QXxWI5AQj4P3qw5tMLq67niq/8jYyyRUFpb6KGe5o48twveOkHl7PzT1+hq/ptOSogSTGsYP416wD3KgAAIABJREFUKKppwtflzb7C0DoOXtekEoDJP9FFqYn/l546bgFmBXJhSsFMMssXByWI+OQMSpfdjjW9kL5TB/B7Ap6ZCJgQGkMdJ2nas4HmPc/idTlIsGcRb0sLeyySJBnHkmjH7ehmoPnIuK9RTWaWfex+4pPSQxjZxbUdfo3u2h2BXr4f+FsQw4kasZwALANWBXJhnDWFwqrrgheJopBaMIuyFR/A73Uz0HzUsMpv3hEHPXW7qN/6OK0HNzI63Ic1LZ84a+Bzg5IkRY+s6cvpPL4F99D4jiuvuuP75MxaE+KoLu7k5j8x1Fkf6OXPA68FMZyoEcsJQClwUyAXaj4PFWs/Gtxo0Cux5c5aS+HC6xkd7mWo42TQ+5iI0eE+PRnY8hhd1dvwjTqxZRRhjks0NC5JkkJHNVkoXHg9g23VOHtOXfDnTHEJLLrzJ5SuuCOM0Z3f0Rd+iTfwdQAPA/uCF030iOUEwA58LJALva5BipfeErJVr/G2NAqrriNz2hIc7TUBFw4KHsHIQDudJ7ZwcvPD9NbvBQS2zGJUs6wGJklTjckST/Him0gtnI3f48Lt6ELzewFIyiymZNntLPvoL4M2FToZzt4Wjr/868k08UvgwpnOFBb8M2mjRy7QHujF8275JtMv/3gQwzk/ITSa9z7P8Y2/wtnbHPL+JsIcbyV31jpy51xO7qy1xMk1A5J0QY6Okzh7mvB73SSm5JBWPA/VHGd0WOPmdQ9jssRHXAngmjf+jyPP/WIyTeQCnUEKJ6rEcgIAUAtUBHJhemkVl3/5iSCHc2Ga30fLvuc58coDDPc0ha3f8VIUlZTCWeTNvoK8OVeQWjgbQlDzQJKiiRAaTbs3UP3a7xjuPvch0xxvo2TZbcy85p8MXUAX7d68/wP0Nx0O9PIaILC9j1NArH9CPwh8KpALFUXl6m+/SFJWaXAjuoTTicDxl38TcSMCZ7Om5ZMz8zJy51xB9oxVmMzxRockSWHl97jZ/djXaDt88fVliSk5rPzkA6QWzQlTZFPHUGcdr/7b+yazaPpB4DNBDCmqxPIaAIBU4LbALhVofh95cy4PZjyXpKgqKQUzKV91F9a0PIa66iPynH+ve4iBlqO07HuBus1/or/5KL5RF3G2NCyJyUaHJ0mhJQS7H/sX2g69eskf9Y06aT30KgULrpO7bSbo6Av3M9BydDJN3A8EPHwQ7WJ9BCAfaCbAA5FMlgSu//6bhs59C6HRcWwz1a/+jr5TBw2LYyIS7FlklC8mu3IV2ZWrsGUUGh2SJAVV877n2f3o1yZ0Tc6staz+zP+GKKKpZ3S4l40/vHIyFU81oJBJrAWLdrE+AjAEXIm+JXDChOZDUc1kV64MalAToSgKydlllK74ABnlixgd7ovoqQEA36iLoY6TdBx9k7q3HqFpzwYGW0/gcw8RZ0vBkiBHCKTotuexbzA61DOha5w9p8iffzUJyZkhimpqqX7ld3TX7ZpME5uBSW0fiHaxngAAJADvC/TigaYjFC+5eVJFNILFllFE8ZKbKVx4I6DPj53euhPJvCMOBluP03b4NU5u/hNNezbgaKvG6x7GkmiXUwZSVBkZaOfI8/8Z0LWJqblkTlsS5IimHmdvM3se/yZC80+mmZ8De4MUUlSSCQDUA18lwH8XQvMz4ugK7smAkxRvSyN39jrKL7ubhOQMhnua8EbgOoEL8Y44GDgrIajf9hd66nYz3NOI3+PCkpiMOc5qdJiSdF4DLcdo2v1MQNda0/LIn3dVkCOaevY9cR+OjprJNOEFPskkqsJOBeGrRxu5nIAbCHhDbuuBjXSt3G7oVMD5WBKSqVh3L9PW3kN37Q4atj9J++HXo2JU4Gyjw710HNtEx7FNZ95LsGeRWjSHtMK5pBbNIaN0IXG2VOOClKQxmt8X+LW+6PrdNEJn9TbaDl96ceUljBDDVQBPkwkA3IB+KuCk7P3Lt1n/9Q2G1sS+EEVRzyy4Gx3q5dSuf9Cw4284I/A8gfFyO7rpOLqJjqObAP2fMSmrlLTieaQWzcGeW4E9dzoJ9ixjA5ViTmJKTsDXWtPygxjJ1OMdcbD/r/cFoyk7cD0Q2FDNFBHruwAAngQ+EIyGChZcy/J7/zsYTYWeEHTX7aZp9zO0HnwZ36jT6IhCwmK1Y8+dricEORUk51Zgz62QiYEUOkLw0o+uZGRg4ovL1/zTw2RNXxGCoKaGXY/8Cy37XwhWc08AHwpWY9Eo1hOAJPQjIIM2obzkw/9G8ZJbgtVcWPg9btoOv0rTng101Wyf7MKaqBBnTcGeO53k3Gn6a8400ornyh0IUlBUv/Z7jr5w/4SusedWsP7rG1BUuTTrfE7tepq9f/l2MJt0AjljrzEp1hOAm4Bng9mgyRzP2i8+Slrx/GA2GzbuwS5aDrxIy/6X6Gs6ZFhZYiMoqon00ipmXPlpcsN8wJM0tfg9bt68/w4c46zoqagmLvv8Q2RVLAtxZNFpoPkom3/9Yfwed7CbvhF4MdiNRotYTzU/DawKZoNC89NxbBOFC2/AkpAUzKbDwpxgI720itIVH6Bk6W0kpGTjcQ1EQEXCMBCCkf52mvc9j6uvhdzZ6+TTmBQQ1WQmZ9ZaOo5tuuQOHNVkZtGdP5ar/y/APdjFlgfuDdWJpy3Axc9qnsJi/dPtp0BBsBv1jbrord9D8eKbUU3Ru87Skmgno2wRZavupGjxTSSm5OAbdY0lA1N7ZGCw7QTOnmYKFlxjdChSlIqz2ilefBMeZz+D7TXnHU1LLZjNsnt+Sd7c9QZEGPl8nhG2/u4TDHc3hqoLC/CHUDUe6WJ5CiAZ6COEOyGyK1ex8tO/nXKFcDzOfjqObabl4Ea6qt9G83mMDilkln3sfgqrrjc6DCnKjQx00HH8LYY669F8HhJTc8iavoK04nkoSkAnkU95ft8o2x/8HF0120PZjRdII0bXAcRyArAc2BHqTnJmXsbKTz4QVXW/J8LrHqLrxDY6jr9F5/G3cE/w+NNIZ8+r5KpvBHWZiCRJl6D5fex46AtntvmG2FJgTzg6ijSxPAVwBXB7qDtx9jTh6DxJwYJrp2SmbzLHY8+tIH/eeqZf/nHy5q4nMS0PzTeqTxVE+SLC0eFeihbfJA8ZkqQwEZqfXY98lfYjb4Sry83EaEXAWE4A7gDWhaOjoc56BlqPkT/3qqheE3BJikKCPYvMaUsoXX4HFWs+SkZZFQnJmfi9o3iG+4jGtQPZlStJzi43OgxJmvL8Hjc7HvpSOG/+oN/8N4ezw0gxhe9Gl1QRzs46jm5i6+8+zspP/S4iTwsMBYvVTt7c9WcWOPlGnfSdOkhXzXa6at5msOU4QmgGR3lpkznaVZKk8fG4Bnn7wc/S13gg3F1PD3eHkSKW1wC8DIR9ibc9t4LVn/0Diam54e464owO99FTt5vu2p301O0a957pcFv7hUfJnLbU6DAkacoaGWhn2+8/bdRnwEb0Y4FjTiwnANsI8hkA4xWflM7ye/9b3lTeZXSol+66XfQ1HqS/+TADLUdDcfDHhJjiEnjfT3ZgsiQYGockTVW9DfvZ+fCXjDxrZCuwxqjOjRTLCcBBwLDj+lRzHFXv/y6lK4JShmBKEpofR8dJ+psO0990iP6mIwy2V4f1qOKyVXey8AM/DFt/khRLGrc/yYGnfmx0hdKDQJWRARgllhOAk8A0o4OYtubDzLvl21N7cWAQaX4fw92N9Dbso7d+LwMtRxnqrA/JWoI4WxpXf/N54pMzgt62JMUyze/l0NM/o37bX4wOBaCOMK8JixSxnAA0AKVGBwGQVjSXpff8kqTMYqNDiUreEQf9zUdxdNQy1HESR8dJHJ0n8bocAbdpjrdx2ef+j/TSmHwwkKSQcfW1suvRfzFisd+FNAJlRgdhBJkARAhzvI2qO74XdZUEI5l7sEtPBjpqcXTWMdRRi6OjDu/IxRODjPLFLLrzJyRnx+RngiSFTOuBjex78nuX/B0Ms0ZkAhBzAk4AlPRSRF9jUIM5rXjJLSx4/3ejspBQtBgZ6DgnIXAPdqGaLSRnl5M7ex0Z5YuNDlGSphSve5gDf/8hzXufC0n7SloJov9UoJc3IhOAmBNwAmC67AuI4S60A08GN6IxCfYsqu74vqwOJklS1Os8/hb7//Z9XP3tIWlfnX87SnIu/m0PBNpEIzGaAEy9s2nDQPTWY1r/TdSFd4akfbejmx1//AI7//QVPM7+kPQhSZIUSt4RB/uf/B7b/vczIb35m676/xA9kXmGSKSTS88DILpOAAqmK78BQoRsJKD1wEZ66naz4Pb7ZEU6SZKiRsv+Fzn49E8ZHeoNWR/qog9huuJrgILorglZP1OZnAIIkPlTz6GkFACg7XoY/5ZfEcpz7rMqlrHg9vuw51WGrA9JkqTJGOpq4NDTP6PzxJaQ9qMuuxfTmi8BIAZb8f3hpsk010iMTgHEcjGgrwABl3hTUotR8ubq3xdUoaTkIeq3QojOtnf1tdKw/Uk8rgEyyhZiMseHpB9JkqSJ8o44OP7yr9n7+DcZ7m4IXUeqCdNV38G07N4zb4mjzyMa355MqwPAf08ysqgkE4BAaT7U2e8780clewZq3hy0k5tAC9GpVkLQf+oQp3b9g7iEZFIKZk7JEsOSJEUHoflp3PF3dvzxi3RVbw1tca84K+Zb7kedcW4JF//WX4OjbTItx2wCIKcAAqWomD/xNEpq0Tlvi64T+Df8C8IRmkUvZ0vOLmfOjV/VdwsosfyfUpKksBKC1kOvcuzF+xnqCuET/xjFnofp1vtRss6dAhV9jfgeej+TnH5tRE4BxJzJjQAgQDWhlp5bT0ixZaLOfh+iqxoGWyYX4SV4nP20HHiJjuNbSMoqxpZeGNL+JEmSehv2s+exr1P75v/hcQ6EvD+laAnmOx5ASX3v55u2/feIjiOT7UKOAMSgyZ8EGJ+M5TMvQpztvX8nNPxv/Q/ankcJ5eLAs+XMvIyZ1/wTGWWLwtKfJEmxo7d+LydeeYDO6m1h6lHRF/td9s9wvqnO0WG8/3s9eJyT7agROQIQcyY5AgD4PWCyoBYtee/fKQpq6QqUjHJE43YIQ7UrZ08Tp3Y+RU/9HqxpeXJEQJKkSeuu3cG+J77DsY3/g7O3OTydxidhuvFnmBbedcHpTf+OBxFNO4PRmxwBiEHBqQVgScTyyQ1gy7zgj4jBVvwvfgfRdmjS3U1ERvliZl79eXJmXhbWfiVJinJC0Fm9lROv/Jbehn1h7VopqMJ0w09Q7PkX/Bkx3IXvj7eC1x2MLhuJ0REAmQAEgTr/dkxX33fxH9L8+Hc8iLbjDyHbKnghKfkzqFh3L0WLbkQ1x4W1b0mSoofm89C873lqNz2Moz3Mh+uoJkwrPoW64tPnH/I/i//lH6Id2RCsnhuRCUDMCV41QEXF/MH/RSm89Ny7aD2A/6XvIgZbg9L1RCQkZ1J+2YcpX30Xcba0sPcvSVJk8jj7qd/2BPVbH8c91BP2/pWUAv2pP3/BJX9WNO/G9+TnCOLaqkZkAhBzgloOWEktxHzPX8GSeOkf9o7g3/obtP1PhH00AMBkSaBoyc2Ur7qL1MLZYe9fkqTIMNByjPq3n6B5z7P4gzOcPjGKirroLkyr/3l8n50eJ74/3YmY3L7/d2tEJgAxJ6gJAIBa9UFM67817p8X7Yfxv/xDRG99MMOYkLTieZStvJPCRTdijhvHL6AkSVHN5xmhZd8LNGz/K/1Nhw2LQ8mswHTN986cqDoe/ld/gnboH8EOpRGZAMScoCcAoGC66V9RK68e/yV+D/6df0Tb9bC+q8AgloRkipfeTNnKO2W9AUmaggbbqmnY/iTNe57F6x4yLhBTHKbln0Bd9nEwWcZ9mXb8JfwvficUETUiE4CYE4IEALBYMd/9MEpmxYQuEwMtaFt+hVbzatBDmih7bgXFS26hZNntxCdnGB2OJEkB8rgGaT34Mk27nwn7av7zUUqWY7ryGyjpE7vfiu5afH+5F7wjoQirEZkAxJzQJACAklaM+cOPQnzyhK8V9Vvwv/kfiIEw7be9CNVkJmfmGoqX3krenCvkDgJJigKaz0P7kTc4tecZOo9vQWh+o0NCSSvBdMXXUMpWT/xi9yC+xz4SyoXTjcgEIOaELAEAUAoXYX7/byCQqn1+D9rex/HveghGh4MfXAAsVjsF866moOo6sqavRDWZjQ5JkqQxmt9Hd+12Wva/RNuR1/C6HEaHpItPwrT8k6iL7p7QcP8ZXje+v38e0XYw+LG9oxGZAMSckCYAAEr5Gsy3/CeoAd4s3YP4d/8Jbd+fwWfc+oB3s1jt5M2+goKq68iZuUYmA5JkAKH56Ws8QMvBjbTse5HR4V6jQ3qHyYI65yZMq/8JrOmBtaH58D3z/xANW4Mb23s1IhOAmBPyBABAnX0jput/xGT+VQtHG9rWB9BObDRk2+DFxNlSyZ93NXlzriC7chWmuASjQ5KkKcvvcdNV8zbtR9+g7fBrYSnGMyGKijr7RtRVn0Ox5wXejtDwv3if/pkXeo3IBCDmhCUBAPRM+NrvX/J0q0sR3bVo2/8X7eSbEZcIgH6+QHblSvLmXknunCtISL7w8ciSJI2P29FNx9E3aT/6Jl01243Zr38piopacQXqqs9OeAH0e2h+/Bu/j3b8xeDEdmmNyAQg5oQtAQBQK6/CdMNPA5sHexfRcxJtx4NoNa9HZCIAoCgqqUVzyZtzBTkzV5NaOAdFjeXaU5I0PkLz0998hK7qbbQf3cRA8xFEhP6eo6iolVehrvjU5G/8AH4v/he+hVb75uTbGr9GZAIQc8KaAAAoZZdhvvkXgS0MPA/RW4+28//Qql+BCFjpezFx1hSyKleSM2M12TNWY027cKEPSYo1rv42uk5spbPmbbprtuNxDRod0sUpKurMa1GXfxIlozw4bXrd+J79GqLx7eC0N36NyAQg5oQ9AQBQ8uZivuV+sAVvf71wtKHt/TPa4WfA6wpau6GUnF1G9ozVZFUsJ6N8MfFJAS4UkqQoNDrcS0/dXnrqdtJ5YhvD3Y1GhzQ+FivqvFtQF92NklIQvHadPfie+Sqi42jw2hy/RmQCEHMMSQAAlKRsTLf+F0rOzOA27HGiHdmAtudRxFBncNsOMVtGEdmVK8koW0RmxXKsaZNYQCRJEWZ0qJeeut30NOylt2EfAy3HQAStmE3oWTNQF9yBadFdkJAS1KZFdy3+Z76McHQEtd0JaEQmADHHsAQAgDgrpht+hjptbfDb9nvRal5FO/Akou1Q8NsPg+TsMjLKFpFesoD00iqSc6bJNQRSVBCan6HOOvoaD9DbeIDehn3R84T/LkreXNSqO1FnXBOU9UvvptW+if+l+0J1wt94NSITgJhjbAIAgKJXwlr31cDPCrgE0XUC7eDf0Y6/ZPQv2aSY462k5M8ktWgOmWWLyZy2VB5TLEUEr3uI/qbD9Nbvo7/lCL0N+yLnIJ5AmONQy9ehLr57XOV5A6L58e/4A9qOByNhIXMjMgGIORGQAOiUwsWYbvwZSlJW6DpxO9COPod2ZAOi52To+gkja1oeqYVzSCmYRWrhbFILZpGYmmt0WNIUNjLQwUDrcQZajjLQcpzB1mO4+tuNDisolIxy1Hm3o869KaBjzMdLDHXif+HbiNYDIetjghqRCUDMiZgEAABrOubrf4xSujLkXYmOI2iHN6BVvxwxRw0HS3xSBqmFs0gtmI09fwb23GkkZ5fLOgbShGg+D0Nd9Tg66nC0VTPQeoyBlmOMDvcZHVpwxSehzrgWde4tEyrLGyjRsA3fS9+Dkf6Q9zUBjcgEIOYEnABkTltKT93u4EYDgIJa9QFMa78MlsQQtP8uvlG0mtfQjj2PaNodCUNxIaGoJmwZRdjzpmPPrcCeq78mZZehhmBeU4oe+o2+gaHOkzg6xr7aa3H2NkdEEZ2QUFSU4qWoc25Cnb4+aNuSL8rrwr/pfrRD/wCCv/gxq2IZ3Sd3BXp5IzIBiDkBJwDXfucVjr/8G5r2bAhuRGOUlAJM1/0ApXBxSNo/r5FBtNrX9WSg9SCh+CWNRBarHXtOBfbcCmwZRWe+knOnYbLIY42nAs3vY2SgHWdvM87eFpy9zTg6ahnqqMPV3zZ1b/TvomSUo1RejTr3JhR7+M7hEG0H8W/8PqK/KSTtF1Zdz+wbv8orP70m0CYakQlAzAk4Abjuu6+TmJrLnj9/i+a9zwU3qtMUFXXxRzCt+mx4RgPOIvpPoR3fiKh5DdFbF9a+I4WimrCm5WPLKCQxNQ9rej7WtAL9NTWPxLQ8OXoQITS/l5H+dlz9bbj623H1t+Lqa9P/3NcaUzf5d1PSy1BnXoMy83qUtOLwdu514d/2ANq+J0I2uli85GYWf+jnjAx0sPHH6wNtppEYTQBkGbcAKaqJJXf/K4qi0LTn2eB3IDS0PY8gal5FvfKbodkueAFKWomeeKz6LGKgGVH7BlrdZn1L4RSdJng3ofnHnhibz/8DikKCPQtbegHxyZkkpuSceU1IziAxNZf4pAy5U2EyhGB0uA/3UA8jAx2MDveNvfYwMtCFe6gbV38bbkd3dO2pDyVFRcmbh1pxOcq0dSjppYaEoZ18E+2Nfw/peSQlS29l0V0/lduDJ0EmAJOgqCYW3/2vxNnSOLn5TyHpQzja8T/zFUTFFahXfgMlOSck/VyIklqEsvRjqEs/Bq5etJOb9WSgaWdElSgOOyFwD3bhHuy66I+pJjPxyZnE2dKIt6USZ0sjzppKnG3sy5o69n4qlsQUzAk2zPE2zHHhHfUJNZ9nBN+oE5/biXdkEI9zgFHnAB7XAB7n2JdrAI+zn9Hh/rHXXjS/z+jQI585DqV4Oeq0dagV68BqXNIpHO1ob/w7Wt3mkPYz/fKPM/fmr6NMssBarJMJwCQpisr8W79NYmouR579RciKdmgn30Q7tRPT8k+gLv5weBbuvJs1A3X+7ajzbwevC61hG+LkJrT6rTA6FP54ooA+/9zByMDETjlTFBVzYhKWhGTM8TYspxODhCRM5nhMlnhUswVTnBXVZMYcZ0UxmTHH21AUFUtC0nvaNFkSUC0X3w2heT3nrTbndQ8jhIZv1Inw+/B5XGh+H36PC83nxe914/d58LmH8Y068bqdY69D+EaGI7eYTbRKSEEtvwyl4nLU0pVgsRobj9eNtvcx/LseCul5I4qiMu/Wb1Gx9p6Q9RFLZAIQJNMv/ziJKTns+fO30EL1ZOx14d/6a7RDf0e97Iuos67DsGUcFitq5dVQeTUmzYdo3oPWuAPRtBPRXRszUwWhIoSG1+WI7gNlpCBSULIqxp7016AULIJIGPoWGtrxl9C2/jrkx4+bzPEs+ci/U7Dg2pD2E0tkAhBEhQtvICElm50Pf5nRod6Q9SMcHfhf/A7avr9guvz/oRRUhayvcVHNKCUrMJWs0P880o/WtBtxaieiaRdisNXY+CQpCikpBSjFy1CKl6EWLwVrZBXMEi178W/6JaLzeMj7SkjOZPm9/01GeRh3RsUAuQsgANd993Ws6ReuhDUy2MnOh75E36mDAYY2MUrJckyXfQEld05Y+psoMdiqJwOndqI174KRCC91KklGSExFLVqKUrIcpWABSsY0oyM6L9Fdi7bjD2g1r4alv9SiOaz4+K8vWiDM1dcqdwEEIJYTgGqgMpALb/jBWySkZF/0ZzSfhwNP/YjGHX8PpIsAKKgVl6Ou+hxK1vQw9RkAoSG6qvVkoHU/ov2QTAik2JSQgpI/H7V4qf6knzWdSP5IFt01aNt+i1b3FuE6J6Rs1Z0suO07lzzJUyYAgYnlKYB2AkgAFNU0rq1dqjmORXf+hLTi+Rx6+mfnXVgVXEJfKFi3GbXyKtTln4zMREBRUXJmoeTMQuVeAERfI6L9MKLtEKL9EKKnTq4hkKYWRUXJnIaSNx8lf57+ml5CJN/wTxPdNWNP/K8Trhu/yZLAgtvvo3TFHWHpL1bFcgKwBVg30YsyyhZNaN9p2coPklm+mF2Pfo3B1tDPlSE0tOpX0KpfQSmoQl16b1jPEAiEkl6q71eec5P+hteF6KpBtB4YGyU4DCMDhsYoSRMSn4SSOwclv0pPdguqIMFudFQTIloP4N/1EKJ+K+E8GdSeW8HSj/4nKfkzwtZnrIr89DN0KoGjTDAJWvyhn1Oy7LYJd+b3jXLk2V9Qt/XxsB9aouQvQF12OhGIxv/kAtF3Sh8l6K5GdNUiuqvBLVfISxEgwY6SVal/5cxCyZsX/lP3gkVoaHWb0XY9rCfe4aQoVKy9h7nv+5cJF++SUwCBica7QTD9F/Dl8f5wWvE8Lv/yE5M6earj2Cb2PXEf7qGegNsIlJJeirrwLtTZN0KcLez9B5twtCO6qqG7BtFdo68tkDsOpJBRUFILULJmoGRXwumbvv3Ci9Oihseplwvf/1dE/6mwd59gz2Lxh35Gzsw1AV0vE4DAxHoCYAGeBy5ZRcKals+6Lz1OYurkf9k9rkEOPfNzmnY/M+m2AhJnQ517M2rVndH7pHIho8N6MnD6q+ekXoREjhZIExGfrE9NZU1HyZ6h3+gzK6ZE4nw20X8Kbf9f0Y4+Bx5n+ANQFEqW3sb8W76FxRr4FIlMAAIT6wkA6EnAT9FHAs477pQ3dz2L7vwR8UnBPWKz88QW9j/5PVz97UFtd9wUFaV0JeqCD6CWrY6Mg0VCxdWnLzbsa0T0NyH6GqD/lD5iEKOFYmKeakZJLURJK4H0UpS0YpS0En09SoTtuQ8qzY/WsBXtwN8QjdsxqvKnLaOQhR/8EdmVqybdlkwAAiMTgHeUAHcBqxKSM+emFMwqT8mvpGDBdaQVzwtZp75RJ0df+CX1254wtGKZkpSFMucm1Lm3oKQWGRZH2Pm9iMEWRG+jnhD0n0IMtoGjTT/ZTJNn0Uc1k0Wvn5Gch5JW9M4NPq0EJaVgaifdfrxIAAAgAElEQVS97yL6m9CObNCf9p3hn4I8TVFNTFvzUWbf8OWg1byQCUBgZAJwHrfff/xeUB4KZ58Drcc4+NRP6G3YF85uz0NBKVqMOu9W1Onrjak5ECmEhhjuBkc7wtE29qp/nXkvlgsiRQJzvH4jt+ehJOfq8/H2PP01JR/FlgmxXDDG60arfR3t8DOIln0Y9bR/Wua0pSy4/b6gr/CXCUBgYnkbYERJLZjNui8+TtPeZzny3H/oJU4NIRDNe/A378Ef9zPUiitRZ12PUrI89j5IFXXs6THnwsctO3v0kQJXH8LZC85uhKsPhsdenT0IZw+E/ByIKcZiRUnKAmuafhO3ZaBY08GWBdZ0lKRM/SafmGZ0pJFH8yOadupn9Ne+CV6X0RGRmJLD3Ju/QdHCG0CRz52RQiYAkURRKF5yC3lz11P96m+pe+sx/L5R4+LxuNCOPY927HmwZaDOuFZPBiL0yGFD2DL1GxSXGE7zuhBDXeDqR4z06acfjg4h3IP6AkX3EGLUMfa9A+F2TI0Ki4oKCcko8XZ9H3yCHSU+GeKT9e8T7Pr31rSxG3wmijUDLAlGRx51RPsRtBMvoZ14BVyhq0UyESZLAhXr7mHGVZ/DHG9wxULpPWQqdh5GTAGcz8hAO8de+h+adm+IqHKqSmoRyvQrUSvXjyUD8n+j0BB6MjA6rJdY9Xv1BEHzIrwj4BkBzQvuIfB7ED43eFzvrFvQfPrPnN2izw3+C0xbmOJQzO+68cYlgjr2nGCygCURxWLVv49PBpP5PO9ZIM6q3/Tj31uWWAoWod/0a99A1LwWUVtgFdVEybLbmHXtF0hMzQ15f3IKIDDyk/s8IiUBOG2os45jG39F64GNRofyHkpyDkrZapTytVN/J4EkGU1oiLZDaDWvImrfCHkJ3kBkV65i3i3fDOtJfjIBCIycAogCyTnTWP6x/6JnzR5OvPwbumq2Gx3SGWKoE3HoH3DoH/itGajll6GUX4ZasmLK7ZmWJEN4nGiN2xENW9HqtsBIv9ERnVf2jFXMuvaLZJQtNDoUaZxkAhBFMsuXcNnnH6K3YT/Vr/+ejqObjA7pXK5etCMb4MgG/IqqVzorX6uXN82ZZXR0khQ1TpfQ1uo2I07t0Kd/IlRG2SJm3/BlsiqWGx2KNEEyAYhCGWULWfWp39HbsJ8TrzxAZ/XWsNcXuCSh6cVEWg/AlrF1AyUrUEqWoxYtibrCKJIUUu5BtOY9iFO7EKe2IwZajI7o4hSF3JlrmXntP5FessDoaKQAyQQgimWULWT1Zx/E0V5D3ZbHaNq9wdhdAxchBpoRA81w8G/66ED2DD0ZKF6ub7GL5fMGpNjjGx2rdnkA0XYA0bw3Kg6dUk0WChfeQOWVn8SeN+Fq6lKEkQnAFGDPq2ThB3/EzGv/mbq3HqHh7SfxuiN4C5nQEJ3HEZ3H0XY9DOY4lNy5KAULUQsXouQvkOsHpKnF43znht+6D9FxNKoOkbJY7ZSvvItpaz5CQkq20eFIQSITgCkkMSWHuTd9nRlXf56m3Ruo3/o4Q131Rod1aT4PomUfomUf2k70A3iyK1EKFqEULkTNXwBje+0lKRqI4W79yb71AKJlP6K7BiJoK+942XMrKF/9IYqX3ib38U9BMgGYgiwJSUxb82GmrfkwvfV7ObnlUdoOvWporYEJERqi8wSi8wTs+zN+0A+IyZmFkjMbJWcWakGVXEcgRQavC9FVg+g8dmZkS/RGQeJ9AYqikjN7LRVr7yF7+kp5ct8UJhOAKS6jfDEZ5YsZGWinYfvfOLXraUYGDKo+OBnOHkT9FkT9FgB9HUFGOUruHD0xyKpEyZoupw6k0PI4Ed21iK5qRNdxRPtRvbJkFD7dv5s1LY+SZe+nbOUH5TB/jJAJQIxITM1j9vVfYtZ1X6CrehuNO5+i/cgbaFE0D3kOoSF6TiJ6TsKRDWNvKnp51+wZZ2q4k1Wpn+cvSRMkhjqhuwbRXTN2wz+BGGjF6II6wWQyx5M37ypKlt9OduVKlFir9xHjZAIQYxRFJWfmGnJmrsHjHKBp77M07X6GgZZjRocWBOKd3QY1r73zdnwySnopSuY0/TVjml7/PSUfeRhmjBOaXt2xrwHRW4/oa0T01OlP9aPDRkcXMmnF8yhZeitFi27CYpVTabFKJgAxLM6WSsXae6hYew9DXfU0732e5r3P4extNjq04BodQrQfRrQfPvd9S6KeEKQVQ2qRPnqQWoySWgS2DGNilULD2Yvob0IMNiP6m2GgGTHQhOhrjJlKjUlZJRQtuomixe8jKavU6HCkCCATAAmA5OxyZl//JWZf90X6Th2ked9ztB58xcCyxGHgHTmzaOs9LFaUtCKUlEJILdSnEU7XnE/OhcSU8McrXdjIIGKoXR+2H2wbe219Z0TIO3LpNqaghJRsChdcR9Hi95FWPN/ocKQIIxMA6VyKQnppFemlVcy/7Tv0Neyn9dArtB16BVd/FC4eDJTXNTbvW33+v7ck6vXok3NR7Llgy0KxZYyVB86ApGwUaxqY4sIb91Tj9yCcfTDchXD1gbP7nT8PdcBQJ8LRFjNP8eNhz60gb+6V5M+7irSieXIVv3RBMgGQLkhR1DO7CObf8i36mw/TevAV2o+8ER3nC4SSd0Tf6tVbf/ElYYkpen17a4aeECSk6O+d/Zpgh4SU/7+9+w6Pqz4TPf6dPtKod1lWce/d2NgYY2yWEjqEhBAWkk1C2mZJssndNAIJN2U3uWGXTXJ3CWSBEBICBLgQMMU2NuCK5d5k2Va15JFG0sxoiqbeP47s2I6LNHNmzpT38zzzjDTM+Z33QZZ+7/zaiy6nUCmnq8/QX8twEAKDRH1O8DuVUse+gTOe8Q8Q9faDt4+ox6G8T1yQTqenpGEu1TNXMWbWVeSV12sdkkgTGfqXJi5lHTveGFM2fiGW/FJ0Ut5WodNRXDeb4rrZzLzxGwz2ttG9by1d+97FcfRDIuHUP8ZUEz6n0uFdLFE4ncEM5hx05jwlITDnKFMS5lzle6MVjGbQm9CZckCvB3Oecq01H0C59uwV3ae/73wCgxA5a0tbNEI0MLwg7uQJk8PviwZ9EAlCaEh5+N1Eg14IeiHghaFB5dqAD8JpuuMkBRmMFsqnLGHMzFVUz1yJJU/WrIjRk7EhRR5wP3APcOqAa0teCTVzrmHKVfeRU1StWXCpLuhzceLg+9ibNmI/tBFv/3GtQxIi4+QWj6FiylIqpy6nctrlGM05WoeUMrx9nax+eFWsl7cA49SLJn1IAgBzgVeAuvO9wWCyMv/OH1E7//rkRZXGBnvb6GnaiL1pIz2HtxDwyjCuEKNlthVRPnExFZOXUj55CXll5/0TlfUkAYhNtk8BTAHWAUUXelM46GfbM99Ap4Ox8yQJuJi8sjryyuoYt/ROotEIzo4DyuhA0yYcR7enbMVCIbRkMFkpHTefislLqJi8lMKx0+RgHpFQ2TwCoAO2AQtGeoHRksvV330La74UpolVOOjHcazxVDIw0L5PEgKRlQxGC0W1MyifuIjyyUsobZiH3ii7RmIhIwCxyeYRgBsZRecPEBrycnjtE8y6+V8SFFLmM5isVExeSsXkpQBEwkEGOvbT17KTvpadOFp24Bvo1jhKIdSXW1xNScN8ShrmUFI/h6Kx09EbTFqHJbJYNicAt8dy0fE9b0sCoCK9wURJvfIHkSvuBcA30D2cDOykr2UHAx37iYSDGkcqxMgZTFaKamdQUj+H0nHzKKmbIwV2RMrJ5gRgeiwXeRwdhAI+WYGbQDlFVdTMvZaaudcCEAkF6G/fR3/bbpydBxjoPIj7RLNsPRQpQW8wUVA1icKaKRSNnUFJ/WwKa6ajN2Tzn1eRDrL5X2jMG2cDnn5JAJJIbzRTOm4epePmnXotEg7i7m5moPMgzuMHcXYeZOD4AYJel4aRikxnthVTVDOVwjFTKRx+zq+cIJ29SEvZ/K829gWQ0cwpB5qu9AYThTXTKKyZdsbr3v7jSjLQeQDn8YO4u5vxONpltECMit5gxFZaR+GYKcMd/RQKa6aRUyilpUXmyOYEQGSg3OIx5BaPoXrmylOvRSNhvP3H8TjacXU3DycFHXgc7ZlX+VCMiim3AFtpLQWVEymomoittBZbaS351RMxGC1ahydEQkkCIDKeTm849Yf95O6DkwJeJ4P2Y7jtR3HbjzFob8Hb14m3v1MOMMoQZlsxuSVjlI69vIG8ivHkV4wjr6IB0/DRyUJkI0kAUkQkHMLdfRi/qweDOYfC6imYcgu0DivjmXMLT1U/PFs4NITfaR8eKVBGDPxOO35XDx5HO96+TqLRyDlaFcl08lO8rbQWa0E5OQUVp763lddJJy/EeUgCoLGhQQcH3vw17Y2vnrGATac3UD5xEVOv/hJlEy7RMMLsZTBaTnUk5xIO+vE4OpSkwN3D0GAfvoETBDx9+Jx2hty9+N0OAp7+JEeeGSx5pVjyS7AWlGPNL8eSV4K1sAJLXinWgnJyi6vJLR4jh+cIESNJADTkOLqdTb/9x3N2ENFIGHvTJuxNm6iZcw2zb/mWFCRKMQaTlYIqZe74QiLhIENuB36XHb/bwZDbQcDrJOhzEvC6CPpcBL1OAl4ngZNf+1wZs9hUp9Njyi3AnFuIKacQc27Bac/K62ZbMZa8YqwFFVjzy6QSpxBJIAmARtz2Y3zw2H2EhjwXfW/nrjfpPrCeyVd+lilX3SefeNKM3mAip6iKnKKqUV0X9LlOJQjhgI9waIigb5BIOEhoyEM44CMSChD0uU+9Fgr4zjg0KehzcXod4mgkRPA8/+aM5ty/OZnOlJMPOmXDjMFoxmCyYrTY0BtNmKz56I1mDOYc5TWDCVNOHgajBYMlB3NOIabcAhmCFyJFSQKghWiUbb/75xF1/ieFA34OvPlL2htfY9ZN36R6ZsznXos0YcpRPiELoZVoJEzP4S30NG/G57RjtNjIK6+nesZKbKVjtQ5PxEkSAA10H1jPQMf+mK4d7Glh0xNfpmz8Qmbe9E3lCF0hhFBZ9/532f3yTxjsaf2b/7bn5Z9Su+BGZt/yLcy2Yg2iE2qQWpMa6Nq3Lu42eo9+yLv/cSdbn/oag71tKkQlhBCK5vVPsunxL52z8weIRiO0ffgK6x75GB5HR5KjE2qRBEAD7u4j6jQUjdKx8w3e/vG1bHnqq+f9ZRVCiJHq2ruG3a/864i2uHoc7Wx64ktS0jtNSQKggXAooGp70WiEzp2reedfr6fxuQfw9nWq2r4QIjtEQgF2/flHo9qB4upq4siGZxIYlUgUSQA0kFucmO18kXCIls3P89aPr2H7s9/C1d2ckPsIITJT94H1ePuPj/q6ox88m4BoRKJJAqCB8kmLE9p+JByiddvLvPNvN7Lx8S/gONaY0PsJITJDz+HNMV3n7euUuhppSBIADYyd+5Hk7I2ORune9y7rH72L9f/5STp3vUk0Ek78fYUQack3YI/j2m4VIxHJkM0JgC/WC0OBmC8FwGwrYsb1X42rjdFyHN3OlifvZ/XDV3FozWNyPK0Q4m/Ec8iYwWRVMZLRCQ1547k8rovTWTYnAO5YLwz6XBd/00WMX/ZJJi6/J+52Rss30MW+137BGz+4ksY/fpf+tt1Jj0EIkZryyutjuk6n05+3ZkYyBHxxVe6M/w96msrmBCDmH7oaCQDA7Fu/w4JP/FiT097CQT8tW15k3SMfY83Pb+XoB88S9MecEwkhMkD1jCtjuq503HzMtiKVoxm50wupxSBrE4BsrrZxCzAtlgtLGuZRUj9blSCKaqbRsPg2Ap5+nMcPqdLmaA25e+nev54j7/0OT28rppwCcour0Q2fAS+EyA45hZU4WhpHvaBv3sd+SF5ZXYKiurgTB9/jxMH3Yr28EXhexXDSRjYnACuBhbFcaM0vY8ws9c7iN5pzGTPrKqqmr8DZeRC/84RqbY9GNBzC2XmQtm0v0br5Bbz9xzFZbOQWVZ8qCCOEyGxl4xfS3vga4RGudaq/5BYmXfkPCY7qwo598Aecxw/GevkG4C8qhpM2sjkBmABcG+vF45feqWIoipzCChoW30ZOYQX97XtG/AuYCKEhD/2tu2nd+mc6drxOwDtATmGlpsN8QojEM+UUUDF5Cd0H1hPyD17wvfWLbmXexx/WvHTz/jceZWjQEevlTwNbVQwnbWRzApAPxLQKL+gdYMKyuzGYLCqHpCymKa6dyfjL7sJkzaOvdfcZ5V21EPAM0Nu8lSPvPUPnrtUMDfZhK6mRSnVCZChrQTn1l9xCNBLGbT9KJHjmUb9FtTOY+9EHmbLqPs07/4BngL2v/XxUpxee5f8Ax1QMKW1k87juGCDmM3MX3vVT6i65RcVwzs3vtLN/9aO0bn0ppfbw63R6yiYuombONVRNX5Gw0w2FyCRB/yDhgA9Lfik6XXqswY5Gwgx07MfvsmMw5ZBfOY6cotT5fW/Z8iKNf/xuPE1UAdrMu2osmxMAAAdQEsuF1TNXsuQzv1Y5nPPzODpoWvMYLVteTKlE4CRbaS1VM1ZQPeNKyicu1vxTgRCpYrCnlaZ1T9C1Z82pYWq9wUT5xEWMW3onY2ZdJWts4rDxN1+ge/+7sV7eC5SrF016yfZ/dX8Gbo3lQoPRwnU/2IA5t1DlkC7MbT/Kobf/m/bG11IyEQDloKPySZdSPX0F1bNWJefUQyFSUPP6J9n76s+JhEPnfU/llMtYdM8jmHJlSm20Ap5+Xn/oCiKxF1h7EfioiiGllWz/mFYM3BDLhdFIGKM1j7IJMW0kiJnFVsyY2X9HzZxrCPrduE8ciWfuKyHCQT/u7maO73mH5nefpPfIhwR8Tiy24qQnTEJo5dA7j7H31Z9dtKyux9GOvekD6hbejN5gTFJ0maFp3W/padoUTxOPoGwDzErZPgLQQByLPyx5pVz74FoMRvUXA46Ut/84h9/9H1o2P0844NcsjpGyFpRTOn4BFZOXUjF5KbbSsVqHJITq+lp3sf4/PnHRzv90Ey6/mzm3fS+BUWWWSCjA6h+uxO/ujaeZeqBNpZDSTraPAAwAnwDKYrk4HPBhK6mhaOwMdaMaBVNOPlXTljNuyccwmMy4upsJB1M3EQgNeXF3N9O9bx1HNjxN24ev4Ow8SMjvxmwrlOkCkREan3uAwd7WUV3j7NxP/eLbMVnzEhRVZmnZ8iIdO+Lavr8f+IlK4aSlbE8AAKqBy2O9uL9jH+OWfBy90aRiSKNnNOdQPulSJi6/h7zyejyOdobcMe+LTZqgz4Wz84AyXbD+KY5teo6+tt0EfS7MuYWYZV5UpJmg18WOFx4a9dRcNBohr6yO4rpZiQksg4SGPGz57VcIBeKq4/NfwDqVQkpLkgAoUwBfIcbpkNCQB4CKyUtUDCl2Or2BwpqpjL/sE5RNWEjQ58bT0wqk1jqB8zl7hKB120v0tezE23+caCSE2VYUV8UyIRJtoGMfLZtfiOnanKKqmM/jzyb733iUE4fej6eJCPApIK4qQulOVpwoCcBa4KpYG2h+90kaFt+OTcOzsM+lfNKllE+6FG9fJy2bn6dly4v4XT1ahzUq3r5OvH2ddOx8A1DOH8ivHE9x7UyK62ZRVDuTopppkhSIlHGx0/MuJOiTglwXM9jbRvOGp+Nt5m1gdHM0GUhGABQB4tgKohyUsY/6S25JycM9TDkFyvTAFfdSNHYaQd8gXkcH6TIqcKYoQ4N9OI8fpPvABlo2v0DT2t9wfO8aBjoOMDToQKfTYc4tlLMIhCZC/kGObfpTTNeWT76UqmnLVY4oc0SjEbb8z1dGXazoHL6NsgYgq2X7LoCTLMBRlNMBYzbj+q8x5arPqxNRgnn7Omnd+hJtH76ixi9TytHpDdhKaymonkRB5QQKqieRXzmB/IrxMlogEioSCvDaA0tjGglYdO8jjJ17XQKiygwH3/o1+994NN5mOlBqwcR8eECmkATgr74M/DKeBvQGIyvuf46iWu12BcRioH0frR++TPv21wh4+rUOJ6F0egO5xWPIr5pAQdVwclClJAcGs1Xr8ESGaPzT92kZ5SiA2VbMtQ+swWjJTVBU6a2/bTfrH73rgocqjdAXURYAZj1JAP7KDBxCORsgZrnFY7jy689jyStVJahkCoeG6NqzhvbGv3Di4HvxnK6Vdk4unqyatpwJy+7Gkp9+Pz+ROnwD3bzzbzcR9LlGfM28Ox5iXAKqjGaCIbeDdY98FG9/V7xNtQKTkU//gKwBOF0Y8AE3xtNI0O+mr2UHdQtuSrs5aL3eSEH1JGrnX8+E5XeTXzmBaCiIt79zVAeapKVoFL+rh94jH3Lsgz9gLaykqGaa1lGJNGWy5lE0djrHd745oiO7Gy79KNOv+6ckRJZ+IuEgmx7/Is7jh9Ro7uvAdjUaygTp1UMl3m6Ug4FiKhB0km+gG5+zWynykaYMRgtFNVOpXXAj45d9krzyeiLhEL6B7pStQaCWSDhE1941mHMLKamfo3U4Ik3lldVRMWUpjqPbCXgGzvkeg9nKjOvuZ+YN35CCQOex/Q/foWvfWjWaOgh8AWULoECmAM7lSmANKvy/mbTi08y6+V/ijyiFhAN+7Ic30blzNV171xL0Z+62JZ1Oz4qv/pHiutlahyLSWDQSpnPXao7vWctgzzHCwSFyiiqpmLSEuoU3Yy2s0DrElLXvL7/g0DuPqdFUFPg7lL/tYpgkAOf2FHCPGg1Nv+5+pl79RTWaSjmRcJCew5vp2ruOEwc34HF0aB2S6iqnXMZlX3hC6zCEyDoH3vwlB1bHtS77dE8An1WrsUwhCcC5laLsEVUlNZ95wz8zedXn1GgqpbntR+nev54TB96j9+iHGbGIUKc38JGHNsiiQCGSqHnD0+x+6cdqNdcLTBt+FqeRNQDn5gO6gdvUaMx+eDN6o5my8QvUaC5lWWzFlDbMo+6Sm5l4xb2UNMzFml9GOBQgMNhHWh48FI1SMeUy8lLslEchMtXJMsoq+iywVc0GM4UkAOe3GxgHzFWjsZ6mTQS8A1ROXYYuCxb76I0m8ivGUTn1csYvvZMJl99NScMcLPllhAN+hjx9Woc4YtXTV1BQPUnrMITIbNEoe179GQff+rWarf4e+KGaDWaSzO+J4mNDyRynq9Vg7fwbWHDXT9EbsrsMw9BgH71HttHTvJXe5i24upu1Dum8Lvv8b6icGnPBSCHERUTCQbY/+y3aG+Mq73u2vcBiIK6SgZlMEoCLm46SBNjUarB80qUsvvffMduK1Goy7Q25HfQc2Upv81b6Wnbh6m5S48SvuOl0eq5/eKP8rIRIkICnny1P3k9Ps6qj9G7gEpTD3cR5SAIwMncDv1OzQVvpWC79h19ROGaKms1mjEg4xGBPC45jjTiObmegYx/uE0eTfiBR1YwVLP2snBoqRCI4Ow+w6bf/iLevU81mo8BdwB/VbDQTSQIwcj8EHlCzQYPRwryPP0zdwpvUbDZjBX0u+tv30t+2l/62PfS37cbnPJGw++kNRlZ87U8U1ag2AySEGNax8w0a//AdQgGf2k1/H3hY7UYzkSQAI6dD2Uv6aXVb1TFx+b3MvOHrUqUuBn6nnf72PfS378XV3YyrqwmPoyP+0wp1OuZ99EE5m10IlUVCAfa++nOa3/sdRFXfGfQ4kPl7rlUiCcDoGIAXgZvVbrigaiKL7nlEVpurIBIK4D5xBNeJo7i6mpSvu5rw9HWOKDEwWfOZe8eD1M6/IQnRCpE93PajbHv6Gwx07k9E86+j/G3WfvFQmpAEYPTygLUoC0xUZTTnMPu279Gw+Ha1mxYo1Q7dJ47g7j6Cq/swruFnv8uOwWghr7yBqhlXMn7pnbLoTwiVtWx+nl0v/YhwwJ+I5rcCKwFPIhrPVJIAxKYYWA0sSkTj1TNXMe+Oh7AWlCeieSGESBq/086OFx6ia68qBX3OZQtwLXDuikvivCQBiF0e8CqwIhGNm6z5zLzpm4y79A6pEiaESEudO1ez4/kHCXidibrF+8D1gCtRN8hk0rPEJw94DbgiUTeomLKU+R97mNySmkTdQgghVOVxdLDjT9/H3rQxkbdZB9yIDPvHTBKA+OUCLwFXJ+oGBrOVKavuY9LKz2AwWhJ1GyGEiEs4NETTmsdpWvubRM31n/QGcDtK3RYRI6kFEL8gyoETZSRgYSBANByip3kLbdtewWIrorBmaiJuI4QQMevat45Nj3+R43veJprYUzwfB/4eGErkTbKBjACo638BPwH0ibxJ5dTLmX3rt8mvGJ/I2wghxEW5upvZ8/JPOHHog0TfKgJ8E/hFom+ULSQBUN+twDMoUwMJo9PpGTPnambd+E1ZHyCESDqf8wQH3/wVLVtejP/grYvzoBzJ/nKib5RNJAFIjEuAF4CEF5E3mKxMWP73TFn5OUy5BYm+nRAiywW9Lg6teYwj7z1DOJjQef6TWlDm+xuTcbNsIglA4pQCT6FsUUk4c24hk1Z+hgnLPonRolrhQiGEACA05OHIe7+nad3jBL1J23X3KvApoC9ZN8wmkgAklg74J+BngCkZNzRa8xh/2SdkREAIoYrQkIej7z9L09rHE7mf/29uC/wIpQhbckuAZhFJAJLjcuAPQNIm640WG/WLb2PKVZ/Hml+WrNsKITJEwDPAkfeeoXnD0wR9ST1npwO4E0j4qsJsJwlA8pQBvwbuSOZNjZZc6hfdxsTl92ArS/iSBCFEmvP0ttG84Slat/w5EaV6L+Y54MuAI9k3zkaSACTfHcCvgKQe9K/T6amcvpyJy++hYvLSZN5aCJEGBtr30bzhadobX0vGqv6z9aNMlz6T7BtnM0kAtFEJ/F+ULYNJV1w3i4lX3EvN7KvRG81ahCCESAGRUIDO3W/RvP4p+tv2aBXGn4EvAnatAshWkgBo65PAv6NMDySdJa+E+kW30rDk4+TJ9IAQWWOwt42WTc/RunYBIecAAAifSURBVPUlhgY1W2DfA3wVeFarALKdJADaKwYeQpn30uxo5tJx85m4/B6qZ12F3mDUKgwhRIJEI2F6mrfQvOFpuvevh2hUq1AiwO+BrwO9WgUhJAFIJQtR1gYs0jIIS34ptfNvpH7RLRSOkZoDQqQ7Z+cBWre9THvjawy5NV9btwXlw852rQMRkgCkGh1KkYufk+RFgudSUDWRuoU3U7foVtlKKEQaCXiddO56k2Mb/8hAx36twwFlkd8PgF8CSV9hKM5NEoDUVAJ8FyVT1rz+r05voHLKMsbO/wjVM1disuZrHZIQ4ixBv5uuPWto3/E69kMfaLGS/1z8KJ3+T5DT/FKOJACprRb4HvAZUqR0s95opmLKUsbOuZbqWaskGRBCQ+GAH/vhTXTuXE3n7jcJB5JyNv9IRIAXgW8BRzWORZyHJADpYQ7wU+BarQM5ncFooWLqMmrmXEPV9Csw5xZqHZIQGS/gddK9/106d73JiYPvEwkFtA7pbK8D3wZ2ax2IuDBJANLLSpR5tGVaB3I2nd5A2fgFVM24kuqZq2RboRAqGuxppWvfWrr2rsVxrDFVhvfPtgF4EHhX4zjECEkCkJ5WoEwNrNI4jvPKr5xA9YwrqZqxgtKGeej0KTGDIURaiEbCOFp20L3vXbr2rsVtT+lR9LeB/42SAIg0IglAelsCfAel5HDK/iyN5hxKGuZRMXkJFZOXUlQ7Q+uQhEg5Hkc79qZN2Js2Yj+0MdkFeGLxDvAAsFnrQERsUrbTEKOyAGXO7RZSZLHghdhKx1Ix5TIqJl9G+cRLMNuKtQ5JiKQbGuyj98g27Ic+wN60EY+jQ+uQRiIMvISyqr9R41hEnCQByCzjgM8D96GcMJgWbKW1VExeQum4+ZRNXExucbXWIQmhuiG3g7623TiONWJv2oiz4wDRaNqUunejlDT/BXBI41iESiQByEwFwKdRqmuN1ziWUcuvGE/ZhIWUjl9ASf0c8sobtA5JiFEb7Gmhr2UnvccacRzZhtt+TOuQYnEUeBT4LUoSIDKIJACZTQ/cDHwFZeFgWv68zbYiSurnUlI/m5L6uRTXz5LzB0RKCfrd9LXupq9lJ/2tu+lr20XAM6B1WLGKoqzk/0/gFZQ9/SIDpWWHIGIyGfgscC9QoXEscdHp9ORXjqeodiZFNdMoGjudwpppmKx5WocmskDQ78bZeZCBjv3Dj324TxxNp+H887EDTwGPA00axyKSQBKA7GNGWSz4OZRzBfTahqMSnY680loKx06naOx0imqmU1g9GWthWuc6QmN+px1nVxMDnUpn7+zYz6CjXctKemqLAGuA36B82k+5U4VE4kgCkN0mAJ8C7gYaNI0kQUy5BRRUTaKgaiIFVZPIr5xAQfUkKW4kzuB39+LqOoy7uxlX92FcJ47g6j5M0JvyW/FidQx4BngSOao3a0kCIED5d3AZSiJwB0oxooxmzi0kv3ICeeUN5JXXk1dWj628jryyBoyWXK3DEwkQGvIw2NvKYE8rnt42BntaGOxpxX3iCAGvU+vwkqEP+BPwe+ADlLl+kcUkARBnswDXoZQlvp4UqEaYbNaCciUxKKsjt6SG3OIxp56thZXoDUatQxTnEAmH8A104xvowtvXiaevE1//cQZ72xi0H8Pv7tU6RC34gb+gfNp/HRniF6eRBEBcSCFwA3A7SiGiHG3D0Z5Ob8BaUP7XxKC4GmtBxfCjTHkuLMdgzLq8KaHCoSH8zh78Ljt+V6/y7LTj7T9+6uF39aTqGfnJ5gPeQKnG9xqQsfMYIj6SAIiRsgEfQUkGrgdkyf0FmHILyCmowFpQjrWgArOtCHNukfJsK8JiKz7jNYPJqnXISRUO+gl4Bgh4Bwh4Bhjy9Cvfn/aa0tn34HPZM3kuXi1ulE/4L6B0/h5twxHpQBIAEYsc4GrgRpRkoErbcNKfwWzFlFOAyWLDaLFhyinAaLUp31uHX7PmY8rJB50eU04+OnQYc/LR6XQYLTb0eiMGS+7wFIUOc07BOe9lyj336+frZAM+FxAlEg4RHvISiYQIDXmIRiKE/INEiRL0uYlGwoT8gwR9bkIBDyG/h+DQ8LPPRWhI+T7oc6VS3fp01oXS6f8/4C2U4X4hRkwSAKGGGShTBTeiFCjKjK2FQqSe/cCrKEP7G5FDekQcJAEQaqtEGRW4DuWcgYzfUSBEAvUBa1E+6b8OnNA2HJFJJAEQiaQH5gHLULYZXgvIGb5CnJ8PZYveO8PPm4GQphGJjCUJgEgmK7AUWIUyOrAAMGkakRDaCgIfAutQOv1NyFy+SBJJAISWcoH5KKMDy4YfRZpGJERieYCdwPson/A3AFlxCpFIPZIAiFRi5K9TBsuARcBYTSMSIj7twFaUDv99lM5fhvRFSpAEQKS6amAhynTBAuBSQA7yF6nIBewBtg8/3kM5c1+IlCQJgEg3OpTSxpcAc097lGoZlMg6DmAHsGv4eRtwGDlfX6QRSQBEphgDTEc5k+DkaMFU5EwCEb8u/vqpfh/KXvz9SGcv0pwkACKTmYFJKInBeJTkYPrwI+vrGogzBFHm6/ejdPJHh7/eCQxqGJcQCSMJgMhGJmACSiIwcfjrCcNf1yKjBpkqjNLJHznt0YzS4R9BFueJLCMJgBBnMgPjODMpqEfZjVALVGgXmhgBO0on3w60cmZnfwwphyvEKZIACDE6VqAOJRkYi5Ic1KIURKpC2bVQgRxwpLYgSufeBXQPP3egdPLtw1+3IYfoCDFikgAIkRgVw49qlMSgAmX7Yunwo+S0RynZtybBi3LO/ekPx/CjF6WzP9nR24cfQggVSQIgRGrIQUkGCoE8oOC0r08+ioefLcP/DZSTE3UoNRaMKKcrWlCmMmznuI/+tGvP5uTc1eU8KEPnQygddwil/nwUGDjt2iGUBXP9w88nH06UPfInv+5DOfNeCKGh/w+2Non8WJSBsgAAAABJRU5ErkJggg==;" vertex="1" parent="1">
          <mxGeometry x="520" y="90" width="140" height="140" as="geometry" />
        </mxCell>
        <mxCell id="05AAa1fjyTa9ZjowC4g--3" value="Base de datos de&amp;nbsp;&lt;div&gt;clientes y&amp;nbsp;&lt;span style=&quot;background-color: transparent; color: light-dark(rgb(0, 0, 0), rgb(255, 255, 255));&quot;&gt;artÃ­culos.&lt;/span&gt;&lt;/div&gt;" style="text;html=1;align=center;verticalAlign=middle;resizable=0;points=[];autosize=1;strokeColor=none;fillColor=none;" vertex="1" parent="1">
          <mxGeometry x="525" y="250" width="130" height="40" as="geometry" />
        </mxCell>
        <mxCell id="05AAa1fjyTa9ZjowC4g--5" value="" style="shape=image;verticalLabelPosition=bottom;labelBackgroundColor=default;verticalAlign=top;aspect=fixed;imageAspect=0;image=data:image/png,iVBORw0KGgoAAAANSUhEUgAAAgAAAAIACAYAAAD0eNT6AAAACXBIWXMAAA7DAAAOwwHHb6hkAAAAGXRFWHRTb2Z0d2FyZQB3d3cuaW5rc2NhcGUub3Jnm+48GgAAIABJREFUeJzs3XmcXFWZN/Dfc28t3Z3e1ySEbBD2HQFFFgUZRXAclzij4quOiLxAgIwICaDTr0pARR0BN3RwRWdUcFxwG0TRqIiSsG+BrJBeq3qp3qrq3vO8f3QSQtJJd9d27q36fT8fNN2pqvtLddc9zz33LAIiCi1VjQ0Ojh054fvHCHSZqrMMjpkvIvPESL2KxlURdUQiqhqB7Hqq7PlSO/9XRDyj6okgKyppODpkVLsgznYx5jmFbKhy3UcbG2ueEJFMCf+5RFRAe54EiCiAtg8PHyZp5zyIdyrEOUKAAyCogcK1HM0HMKbAiw7wuDHOA5G6yM/aqqqetZyLiKbBAoAoYLqTw29Sg7eJyLEQXQigEQrHdq5ZMgodhDpbAH0UjvvDec1z7rEdiohewgKAyLK+VOpMk9ULFThVFIsU1q/qi0NgxEgfHF3nG+9781qa/ktEPNuxiCoVCwCiEtvWO/TGqCMXQXAKgA5U6udQoRD0QM0DxshX57c3/Mp2JKJKUpknHqISe7F/+M0OzEoR9yRAa2znCSKBZBV4UgS3tzfVfkVEjO1MROWMBQBREahqrHdg5EKovkcFJ0IRtZ0pTETEU9UNgN7V0Vx/o4iM2c5EVG5YABAVUM9A6q1q8DGBHq0I3cC9YBIYNfKIgf6/A1rrf2I7DlG5YAFAlKdNm7QxXp/6mEDfK5Bm23nKm4yJ6N3Ijl/V0dHRYzsNUZixACDK0fb+5AWORK8C9Bjws1RiooA+bdRbM7+1+bu20xCFEU9aRLOgqrHugZGbHcUHlIP5AkEEo6rytY7m2o9wWiHRzLEAIJqBJ1RrW5Opz6rgfVDEbOehvQkkq+r/fDzV8K9Llsig7TxEQccCgGg/enp6OtSNf1nE+ceyXaCn/BhV88eY+O9paWnZZjsMUVCxACCawtbBwYOiPu4QOKeDn5NwUigg98dd731NTU1bbMchChqe2Ih2o6o1vQOpr0LxLk7jKxsqgl8NN9X9yzKRYdthiIKCBQDRDt2JoU9A5Bou2lO2sga4bV5z3VVcZZCIBQARtvcPvccVuUWBRttZqCRGRMxVHc2NX7UdhMgmFgBUsbb1j50SFe+/ACy2nYVKTw02ZcX954Wtc/5mOwuRDSwAqOKoqtM7kPqWqrwbUH4GKpwIftneVPePXEOAKg1PflRRursHz5aY80NVNNnOQoEyrOK+a17znHtsByEqFRYAVBFUtap3IHW3qp7LX3uamkJV70+2NJx/pMiI7TRExcYzIZW93sGx5cb3vwku3UszoIoJABfPa63/lu0sRMXEAoDKlqrGupPD9wrkdNtZKIRUft/RUvt6EcnYjkJUDCwAqCx1daWOkDj+ANUW21kovER0MCaRs5qa5qy3nYWo0LjSGZWdnsTIVRLTx9j4U75UpTFj/L939w9dbzsLUaGxB4DKhqpWdSeGfiXinGk7C5UjeaSjufZUERmznYSoEFgAUFnY2j96Ukz8ewHU285CZW3EiHfu/ObmtbaDEOWLtwAo9LqSqUvj4j8ANv5UfLWuRu7vS6Yuth2EKF/sAaBQ606M/AfgX8FfZSopVYjIVzta6lkIUGjxrEmhpKpOd2LoPt7vJ5sEeKC9ue7V3F2QwogFAIXOBtX62kTqERFu4kP2CfBCZqzu2AMPlKTtLESzwQKAQmXb0NCyqCd/A9BgOwvRbkY0I6fMm1f3pO0gRDPFQYAUGj09g+dEPedJsPGn4Kl1Yni4b2DgtbaDEM0UCwAKhW29Q2/UiPNLQCO2sxBNRaFR37j3vtg//GbbWYhmggUABV5XcvS8iIufAXBtZyGahuM6uLtnIPVW20GIpsMCgAKtO5l8p6P+TwXC31UKB4WjRn/U1T/8XttRiPaHJ1UKrO39yQugkTuVv6cUPiKCb3QnBi+0HYRoX3hipUDqS6YudiT6bXCmCoWXQNzbt/eNXGk7CNFUeHKlwOnqHXi/RCL/CVX+flIZEDVq3ju/teE7tpMQ7Y4nWAqU7u7BsxF1fgP2TlEZEcD4vp43v73hV7azEO3EAoACY2Bg9Pi0MQ9yqh+VKc/xnZPa22sfth2ECGABQAHR399/QBaxDSKotp2FqGgUExMRc8TixsZNtqMQsZuVrNu0SRt9iT7Bxp/KnqCq2nfWbdqkjbajELEAIKtUNVZdn3pcIVzelyqCAo3V9amnVDVmOwtVNhYAZFV3YuQBAAfYzkFUYnO7k6k/2Q5BlY0FAFnTkxy6TUSPt52DyAYBXrG9b/BrtnNQ5eIgQLKiK5F6u0B/aDsHkV0KY/Du+W0N37OdhCoPCwAquc2Dg0uqfPcZQKO2sxDZJ142Yo44sKFhg+0kVFl4C4BKSlUj1Z77Vzb+RDtpJOo7f+GgQCo1FgBUUj3J4T+oaJvtHESBotrSnRz+re0YVFlYAFDJdPcOrwHkVbZzEAWRQE7r7h/6pO0cVDk4BoBKoqsrdYTE9TEoi06ifRHAwHOO7+iofdR2Fip/PBlTSUhUf8fGn2j/FHBMVH+rqvysUNHxl4yKrieZ+i4E7bZzEIWBqLZ2D6S+YTsHlT/eAqCi6kulzvQz+B2g/F0jmgXxzD90dDT+r+0cVL54UqaiUdVIb3K4n+v8E+Uk1dFc1yoiGdtBqDzxFgAVTU9i+Bds/IlyVtc7kPof2yGofLEAoKJ4sX/4zYCcYzsHUZip0XO7kqPn2c5B5Ym3AKgoepJDSVVpsp2DKOwEOtTeXN8sIsZ2Fiov7AGggutKpm5h409UGApp6EmOfNZ2Dio/7AGggurp6enQSPWLAFzbWYjKhQA+vPEDOjo6emxnofLBHgAqrEj1T8HGn6igFHARqf6J7RxUXtgDUEH6+vrmmUjNKQbmePi6SERiItqoRqpFtGrn41Q1JY54qjIINRshujmrsccWtFQ/IiIT+3r9bb1Db4w6cg9/q4iKQAF13PPnNc+5Z58PUa16ITF+bFQyR0NlMcRZOvkZ14iI1L30OJkQR8dVZRDQCXVkmwNnveON/bWtra2rJP8eso6n6jLU09PTYaI1bxej50BwrCo6RFCFfH/eCsBBGop+QLcI5E/iO99rb699GAC6EkMJgTQX4J9ARFMRJOc217cAQG/vyHHqmncp9NUKWSwiLaoaL8BJXVUxAaBHYB4Wx/1fzYz+aO7cub35vzQFCQuAMrBtmzZHq4cvEcd5u0IPgyJe2gTiKXRQgNbSHpeo8ijQL5BGQCMlPnAaIk874v9gdKjhS0uWyGBJj08FxwIgpLYODh4U891PQPV1ELTZzkNElSNrDNLGz7riPAbHv2RJa+tfbWei2WMBECKqGutOjF4pjvkQVJfyx0dENvhQjGSyACbPQq64acfFrxe3Nl4gIim76Wim2IKEwPbh4cMkq7cL5NXgzA0iCoDhTAa6x/dEgKjIlmh19J0L6uv/YiUYzRgLgADrSSROVcS+BOixtrMQEe1uNJuFp3uWADsJIo6MRCCXLupo+nZJg9GMsQAIoK39oyfFHP/7UBxkOwsR0VTGfR8Z39/vYwRA1HWGInD/5cD2hl+VJhnNFAuAANm+fXurW1X7bVV5A6D82RBRYGV8H+PTFAC7i7vOixHxz1rQ1vZsEWPRLLCRCYiexPBXFfgAuIoeEYWAr4qRbHZWz3EARB25b3FHy9nFSUWzwQLAsp6ekWM0Yn4NYK7tLEREM6cYysyuANgpIm5G3NjypW1zflrgUDQLHFFu0fbE8OfUNQ+DjT8RhY7AkdyuIT31Y543/pPNPckHChyKZoE9ABYkEokDs4g+AGC+7SxERLka8zxkjcnrNSKOjMdUTjlwbvNjBYpFM8QegBLb1jv0xqzENoCNPxGFnJtjD8DuPKPVE9BHXkgMXVmASDQL7AEooa5k6hZRXWE7BxFRIXjGYNTzCvJaAiDmRn6xuL3xvIK8IE2LBUAJqKrTkxxeC8irbGchIioUo4rULGcCTCfmyrbFbc1LRGTmcwwpJywAikxVY93J1CMCHGY7CxFRYeU+E2B/oo6Tqm1vmt8uMlLwF6ddWAAU0ROqta3J1FMKLLCdhYioGIazWeg+lwTOXVSciVontqS9vba74C9OAFgAFM327dtbnaraZ6Botp2FiKhYRjwPfp4zAfbFdZxsZDy+aPHiOV1FOUCF4yyAIlDVGidW+yQbfyIqd8VsRHxjon51estTw8MtRTxMxWIBUGCqGulODD8FQZvtLERExZbrYkAz5RkTjY97W1U1XtQDVSAWAAU0Odo/9YiILLSdhYioFJwS3EnOGlOzqW+AtwEKjAVAAfUkhn8J4AjbOYiISsV1SjOULOubps19ySdLcrAKwQKgQHqTg9dA5B9s5yAiKqUStf8AgLRnDt/Ul7yzdEcsb5wFUADbk8nTXI3cryyoiKgCDWcyKPxEwKkJgJqo+94FrU3fLtEhyxYLgDx1d3e3I1KzBYIq21mIiGwYyWbhF2EtgH1xHcdUZccWLViw4IWSHbQM8Yo1Txqpvo+NPxFVslJfSfrGOJnonIdLfNiywwIgD139I1eLyJG2cxAR2VTsqYBTyRq/ZWvvwDdLfuAywlsAOUokEgd6EtuoqhHbWYiIbBr3fWT80u/dIwDEdU9Y1t60vuQHLwPsAchRVqK/Y+NPRFSatQCmogAcNb+3cvAywAIgBz3JwQ9BcZDtHEREQWCzK9kzWr+1b+BzFiOEFm8BzJKqRnoHUoOqmGM7CxFREHiqGM0WflvgmXIdxxzU3lQjImlrIUKIPQCz1JNM3c7Gn4joJbavJH1jnC29A/dajhE6tn9uodLX1zfPd+IvgIUTEdEuRhUpiz0AwGRjVofsknnz5m22GiRE2JDNgi+xb4HvGRHRy0gAriUVwIQb/6XtHGHCxmyGNm3SRoicbTsHEVHQWFgGYEpZ3xz2/PZx7sY6QywAZqimPvU18P0iIppSEIoABeBG0v9jO0dYsEGbAVWtAeSfbOcgIgqqALT/AADP+Mf1qtbazhEGLABmoHdg+NMKLvpDRLRvwSgBfFUZ6xv+b9s5woAFwMy8y3YAIqIgC0bzP8mDOcd2hjDgVe00tieTp6lKk+0cYeb4KcTSzyCaeQ6RbDciXg/EjEOUa3ZQQKgBVAHjTf7nZQAvC5Ril3txADgwkVqYaCsyc47BeMNZ8GLzi3/sQhKZfA8DwPf96AuJxPIFLS0/tJ0lyIJUtAVSV//g70WcM23nCB9FfPxhVI/+CfH0U5MnWKIwUQW8CSAzDviln+NuYi0YbzoLIy3/jDB01o55WWRNMAoAAIg77ubFHU1LbOcIMhYA+7F1cPCgmO8+Dd7/n5WqsYcwZ/hniHg9tqMQFYafASZGrBQC6sYx3nI+Uq3vLvmxZ2PM85A1wSn0HQASibzi4LbGh2xnCSoWAJgc5d+VGHirI9E3AnqcAPMA1GsYyu4Acf0B1Ce/jVj6adtRiIojMzZZCJTi1sAeTKwZgwtWI1sVzH3IglYA7CQQOI54jkjKVWwQ0Z/UtjV9sVlkyHY22yqyAOju7m53YlUXqjpvUuAoqNYGYhJriMXHH0f9wDfhmFHbUYiKy3jA2CBg/NIfW1yMdrwTI81vLf2xpzHuecgEsACYmsAV+K6gx1Xn175OfHxJBS4hXDGtXt/AwGuNulcCeoZRaayYf3gJVI89gPqB7wJq4YRIZIMqMDZg5ZYAAEy0vA5DHZdYOfa+BLUHYEYEcMXxIpCnY1G9aX5z8522I5VCWbeD3d2DZyPiXgfoqRDEbecpR9Wjf0T9wPdho0uUyCrLRcB48z9geO7FVo49lXD1AOyfK6IRcTfFouZj5VwMlF0BkEgkDsyY2M3i6BsBcDWoIopPPIrGxFc5wp8qlxpgNGnndgCA0Y53YaTl7VaOvadx30fGL79ewIjj+K7jrI+J9575ra1lNcCpbAqA7f3JCwSR60VwqO0slcD1B9DccwPv+RP53mQRYKMXTBwMLL4BmWr7p71yLQB2EgAR1x2MQD+zsL15je08hRDqAkBVne7E6FUO9N9UtMN2nsqhaOr7HGLp52wHIQqG9BiQTlk5tEYb0LvsP2F70tKE7yNdxgXA7iKO+FHH/dGBrQ3vFpHQ/qNDWQCoaqR3YPhWhbwfynv7pVY99gDqk9+yHYMoQBQYSU7OELBgrPVNSLW/38qxdyr3HoCpuCIadZx7F7Y1ni8iGdt5ZitU89wnr/iHPtGdSA2rysVs/C1QH3OGf2Y7BVHACBCfY+3oNclfQcyEteMDgAZkGeBS8lVlwvfPea4nObGxd+DnqurazjQboSkAepKpS3oHUsOAXC+Catt5KlX1+INwvaTtGETBE60CHEvnf5NFXf937Rx7h1B2JxeIUZWs75/3fE8ys61v8DO288xU4AuA7QMDZ/Qkhrep6hdVYa/EJgBA9cha2xGIgitq79qkatjyZ7OSK4AdfFVnzPOu2tidGN3W0x+81Zr2ENgCQFWruvsH73aMe78CC2znIcD1+hHNbLIdgyi4YlXWDi2ZYUQnnrV2/Aq8A7BPWdWaMYO7Nvckn1+v2mg7z74EsgDo6h14f3ciNQBx3mI7C70kNvEkuOAP0X6IC7j29g6rGbzX2rF5athb2pildb0DiY09iY/azjKVQBUAqlrVkxz+BVz3DhHYK6VpSrEMp/0RTcuNWTt0dOxJa8dm+z813xjHM/rxzT3JF58Y0mbbeXYXmAJgW+/QG3uSIwlVnMtbScEUyb5oOwJR8Ln2BoI72QFrx1aWAPukANLGzI+PJ/s2dw9eaDvPToEoAHoSw1+JunIPoDW2s9C+KNxsn+0QRMEn9m4BiG93KiDtn6/qpNX/2ubegT/ZzgJYLgA2bdLG7kTqYQU+ZDMHTU80C4GdTU+IQkVsnlbV2vLcHAQ4U4q075/6fE8ytXXr6HybSaz9pm7rHzulqm5oO6DH2spAMyfKKwuiGRG7NzEdn+t0hIFnTG0mNrFtW9fQubYyWCkAuhODF0bF+7OIwwV9woI7/hHNkN0CQIydnjqeIWbPV3XGkf3F1p6Bj9s4fskLgO7k0K2AfM3GsYmIqBgUnAeQGwUwbsxHN/YO/LzUxy7paJWuxPAPoFheymMS5cuooG8wgpExF46jaKj10VxnZ9OXUsj6gr6BKMbTha3RoxFFLKporPVQFQvn9eLu701V3KC9MYtohA1fOH+aQaLI+v55W3oGHl/U0XRUqY5asgKgJzn8C1VYu9dBNFu9g1H88ZF6PLG5Bunsy7t1G+b4OH7ZKF591DBqqsrj9JcYiuC+9Q14YnMNsl5xu7HragzaGzNYPC+NpfMmsLAjA0eC25Amh6O4b93k70Jmt/cm6ioOXzSGs04YRltjBQ+SDe6PLlQmjH/k5p7ki4s7mg8oxfGKfrNKVZ3egZH1qnpMsY9FxeP4g2jrWm07RkmoAr9b34Dfra+H0f1/RKrjBm87I4HDF42XKF1xPLaxBnfd34Ksb+f+9Zxqg2OWjuLEQ0cxrzlYu6o+tqkGd/1+/+9NxFW8+bQkTlg2ChgDjNibMps86GZk40tLekzPKEa9Ci6ACizmur2L2xrni0hR91cu6n34HY3/Ojb+FBaqwP+sbcFv1zVM2/gDwHjawZ33tuHvz4R3n6qnt1bjv3/Xaq3xB4DRcQd/eaIOt909F9/8VRs2dwVjp+8NL1TjB/dN/954vuDuP7TgsY2VuZSJBrj3Jowyvt++uWegt9jbCxetAFBVpzeRekSV0/woPP78RN2sG3NV4Cdrm7GtNxiN1myks4K7/9gSqDncG16oxtfu6cB3ftOGgRF7i+pksg5+dH8zzAzfm8nisRljBR47EQY60zeJZiyjpnlTz0B3MY9RtN/UnuTwWhWUbDADUb5S4y7+92+5bdxlVPCTtU2Bakhn4sGn6jA6HswG6+mt1fjCj+bhwadrrRz/b8/Mwcj47C7AJjIOHniqvkiJgqs8RsEET1ZN66ae5OZivX5RPvldfan/BuRVxXhtomL5y+N1eXWDdyVjePaFcC1t8dSWYOfNeoKfrG3Gf/22FZlsaQuVJzfn1p3/1NZgv6cULhljFm3uGXisGK9d8E9Ud2LkP8TRdxT6dYmKyahg3bP538cvxGuUUt9g1HaEGXlsUw2++rN2DI+VbqOd/qHcbj/0D9rbDdAWE7aur5BJG/+oYqwTUNACYHv/0HsAc0UhX5OoFJ7dVo3ULLt7p/LUlupQ3QNOl/iqOh/dyRi+fk8HhkZLUwRM5PjeZDyBbyprT1MWAMWX9c15W/uTawr5mgX79PckEqc6It8s1OsRldJDBRrF7xvBI8+HpxdAQ3biTgxFcMcvOkozbiGPtyZc72r+uBVwKSjSWV29tX/gzYV6xYJ8irZt02aj0XsL9XpEpTQ24eDZF6oK9nphuw0QNv1DEdx5bxt8jjwLBAV3AiwVA0XG17t7ekY6CvF6BWmwYzWpB0TAkS8USus31MIr4Bz47f0xdCXCcW89rLb0xPGbHGdsUGGpVl6Ph02+Mc6oZJ8uxGvlXQB0JYe/pcCyQoQhsmH9c4W/Yi/Ga9LL/enxemwI2ayLcqTcKbTksr7fuLV34A/5vk5eBcCL/cNvFtX/k28IIlte7CvO1fr6DbUVNxCs1CYX3ml62dr8VHpFXauW9mnc90/f3D14YT6vkXMBsEG13gG+b3vva6J8PLShOIvMjE04eGZr4cYV0NQGRyJY+2jlLbwTJGEbSFpOfJivPqralOvzc15nsz6Z+l/lfX8KMc8TPPp88dZuX7ehFkcsDvcmQftz0PyJGdf/xgAj4y4GU5GC7znwp8frcOpRqdBuMRx2PgsAazw1Tm1f8lEAB+by/JwKgO7E8AcVODmX5xIFxZNbqgu+5/3untlahdSYg7qa8myY3ndu36y38PV8YFNXNR7fVI31G+YU5DbJRMbBX56oxWuPH877tWj2OAXQrqyvC7b0DHxsUUfTx2f73Fmf/VS1CsAXZvs8oqApVvf/TkYFj27kYMDdRVxg2YJxvOX0JK5c3oUjlxSmh+Rvz9RyKpol7AGwL2P8zqRqw2yfN+sCoCcxcg/Arn8Kt6FRFxtfLP49+oeesbORTRg013l419l9+KfTknDz7IgZGolgYxfHXJSaKtcACAIDyHD/wF9n+7xZfez6UqkzIeas2R6EKGjWPTtnxtu85qNnIIoX+ytvbfjZOOmwEbztjAQkz7sBj20s3ngOmpph939gpD09dFtP/1tn85xZFQB+Rjnqn0JPFVi3oXRd8+uKfKuhHBx78Chec1x+9/Cf3x4vUBqaKXb/B4kiC/nObJ4x4wKgq2/kwwDmzToTUcBs7o4jOVy6lfoeea4aHidLT+u1xw+irTGb8/OTw1EMjuQ8sYlywE2AgiVrtGZL/8AtM338jAoAVY1AzCdzj0UUHA89W9or8vG0i6e3sHt6Oq4DvP6kwbxeozvJ2y2lxB6A4PF8vVRVZ7Rl5owKgN6B4f8QAUfYUOhlsg6e2Fz6MaylvOUQZocuHMec6tynTfYNsgeglFgABI9njLO5b/jHM3nstAWAqsYU8sH8YxHZ98jzNcjkuM97Pja8UF2yfezDzBHg8IW5Tw1MplgAlMrkDAAWAEHkq3d+r+q0XZ3Tngl7kqmvQMF+NSoLtq7EjQKPcIOgGeloyuT83HSWg5RLxecmQIHlG5WxvsGfTfe4/RYAqhoBcEHBUhFZ1DcYxdae3EeKx6P5nfB4G2Bm6ufkPmIynWEBUCqcAhhsWWPOVNX9jnbebwHQnRy9CQA3NqeykG8DfOpRKcxrzv3qtG8wim29nKo2LbYroeCVYiENyplRlS19g3fu7zH7LQAE5kOFjURkh1HBw3kUACLA8QeP4oRDRvPKse5Z9gJMZ2g09/v48RgbpVLhFMDg81X3uzDQPguAnuTghwBwBRMqC89uq8LwWO6D8BbPnUBLg4fjDh5FxM39xPfoxhpkuX/9fvXmMZK/Ks/bNDRzLACCzzPG3dI30Lmvv99nAWB855qiJCKyIN8r751X/jVVBocemPso9YmMgyc3c02AfTEKPLUl92maTXVccakUPOUegGHhG125r7+bsgDYNjS0TBxdUrxIRKUzNuHgmW25NyqxqMFRi19q9E84ZCyvPOs4G2Cfnt5ajdGJ3Htq2hq9AqahfeHVf3hkjdZvHRx9xVR/N2UBEPPlZq75T+Vi/YZaeH7uv8/HLB1DbLeu5UMOHEddTe5dzc+/WIXBEa4JsCffCH79YFNerzG3OV2gNLQ/nuGtlvBQ+OnMHVP9zZQFgCrOKW4gotJZn+cV954D/xxRHHvQSM6vpwo8zF6Avdy3rgH9Q7nf/29p8NBYy1sApeBxDYBQMdAjp/r+XgVAd3L4TQBKv1YqURG82BdDVyL3maytDR4Wtu99VXlinrMB/v5MLfdR38365+bg/kfq83qNg+ZNFCgN7Y9R5e9uyHjGOFt6B1bs+f29CgBRXFeaSETF91CeW/GecMjIlPvUtzdlsaA19zUBBlIRbMljUaJy8rena/HjP7Tk3agcvTS/ooxmhuv/h5MPc/We39urAFDgxNLEISouzxM8+nzuI+4dAY47eN+NygmH5H4bAOCaAImhCO68tw3/s7YZfp49yo21PpbM4/3/UuD9/3DyDQ7Y83svKwB6BlJvBcDdNKgsPLm1BuPp3Df+WbZgHA37WZb22IPHEM1jTYDHNtnZmMgmzxM8s60ad/2hGV+4az6eLNDOjCcdlpqyp4YKz+cEwFAyqrKlZ/Ci3b/3ssZefVzCwf9ULtY9k98V9onTXOFXxQwOWzSOxzbm1suQyTp4fHM1TlgWzq7r/76vZdrJQpmMA18B3xeMjLsYHHXhFXghpKqYwSuPyK83hmZGFfC5BHBoGcesBHD7zq9ffrUvekqpAxEVw9Coi+e3V+X8/Joqg0NnsC3tCYeM5FwAAMC6Z2tDWwA8vikYCxqddnQKVTGFf7tGAAAgAElEQVR2S5cCR/+HmzG6bPevd/U/DgwMLAKX/qUyse7ZOcjnQmVyyd/pH7fsgAk01Oa++Mzm7jiSw9xvK1ctDR5OP3rYdoyK4XEAYKj5Rt3t/f2H7fx6VwGQ9t2L7UQiKizV/Hf+m+mmPyLAcQflvjKgKrD+uWBcSYeNCPCPr0oiEmGjVCocABhuCsBT56M7v95VAIgj51pJRFRg+V5Vz2/NzGrb331NFZypdc/O4bzqHJx+zDAOXsC5/6VioFwCuAz4Kmfv/POuAsAYPcROHKLCeujZ/O5knbhsdgPKWhs8HDjFYkEzNTgSwaYurgkwG4vnpnHOK4Zsx6goHgf/lQWj2rbzzw4AbN++vVWEq/9R+GWyDp7IY2qZ6yiOOXj2Xfr5DuRbl2fRUknam7K44Jx+OMIGqZS8fBdroEDwjXG2bh2dD+woANyqunfYjURUGI9urM5rbv0Ri8dRE5/9ie6Yg8YQzeNe9OObajCRqaw1AXLR0uDh/ef2ojrONf9LSpUzAMqEAkBN+jJgRwGgxufmP1QW8u7+z3GN/3jU4IjFuQ8GzPoSmGl1QbWgNYMPnd+N+ho2/qXmKbj8TxkxRt4I7CgAxHGOshuHKH/9QxFs6839Xnp9jY+DDph+7v++5LtBUKUvDbw/xx48ig+c34M51bwKtSHLq/+yYlQXAzsWAlLVedMu6UUUcA89m98OeyccMgonj4/B0nkTaKrzMJDKbTXtLT1x9A1G0daYzT1EmYlFDc575SBecShX+rPJM+x1KSeqWgsAjqo6gMO+Rwo1o4KH85j7LwKcMMvR/1O9xnE5DCDc3cPPsRdgp8MWjuOKt3Wz8bfMNyavRbUoeDyoCwCRFxLjJ0VFeflPobbhhSoMj81g6b59WNCaQU2VyWvzIAA4fNEYfrc+933t12+Yg7NPHMyrJyLMRIBDFozjNccNY2EHd/cLAq7+V4YUeLF/8HURx/VPBm/vUMg9lOfGP9v6YvjkdxYUKE3uhkZdPP9iNZYtyH0sQhjVVfs45qAxnHjICDqaeQskSLJc/a8sGThnRyJqjlDe/6cQG5tw8My28lnGYt2zNWVfADTM8dHemMXieRNYOi+NBe3piu31CDIDhc8egLLkGz02ogZL2f5TmD383Bx4fvn8Ej+5tQbj6QFU57AeQSn981kJONNMDovFDFx56c/xiKKx1kcsGux/G03i6n/lS+EviYgj81jgUZit21Beq+h5nuCxjTU4+fBgD347askYV+Mrc1mu/le2VKXVUdUG20GIcvVifwxdifLbTvchrglAlhlw9b+yplrtQByeaSi0ynXxnBf64uhJll9hQ+HBq//ypoKoA+UmQBROvhE8urE8CwAAWM81Acgijv4vb6oacSDKywwKpSc212Bsonw30Fm/YQ4Ml+ggC3zl6P+yJxAHquV7BqWyti7Puf9BNzLuYsMLVbZjUAXi1X8FUMCZXHuLKFyGRl08v738G8d8dzckykWGBUDZM6rigLsAUQite7a2ItYnf3pLFcbyXJ6YaDY8NVB2/5c/2bEdMFGYqFbOADnfCB55vjL+rRQMHP1fGRSAI5hmKS+igNncXYXEUG5b7oZRuY91oCBRZDn3vyKIChxlAUAhU65z//dle6I8Fzui4MkaBXv/K4QoImABQCGSzgoe31ST8/NFgKpY6a9wfANksrnfcVu3oRbntQwUMBHR3jLGtx2BSkQgGoGID9XK6U+lUHtsYw0yXu7jVo9aMoZ/Oau/gIlmZnjMxWe+f0DOAxcffm4O3nDyIFyH9ToVh6+Gm/9UGAeqGdshiGYq32lxJx4yWqAks1Nf4+PgAyZyfv7YhINntpb/tEeyJ8PGv6KIOL4DwM4ZkWiW+oci2NYbz/n59TU+DjpgvICJZueEQ/Lb3a/cdj2k4FAFsj67/yuJwHiOACnbQYhm4qFna/MaoHTioSNwLK56ccTicdRU5T7+4JmtVUiNceYuFV7GGA4GqzCiSDsGGLQdhGg6RgUPb8h99L8IcPzBdju7XEdx9NKxnJ9vtLw3PyJ7shz8V3EckTFH1LxgOwjRdDa8UIXhMTfn5y+eO4GWBq+AiXKT722Avz/D2wBUWJ7hxj8VSaTbgXGetp2DaDqPPZ/71D8AOGFZ7lfehbSgNYOOpmzOz+8diKJ3kGsCUOFkeO+/IjmiTzlOLLLedhCi6eSz8U88qjhqaXDGup6Q50yETdtzHwhJtDtVcOW/CqUqDziSHV1rOwjR/qhObo2bq6OXjiIWCU4X53EHj8LNYyxfKo/3orCC854GTVh2WEvz3n/FUpP+udPW1talYAlIwZbPAjj5XnEXWm21j2ULcr8l4RRwIkB1PLePflXMWJ1RUQrV8dx+52JRE4oFmxRc+a9SiQCL587dNHkqESdpOQ/RPokArQ253TdvbchiYXu6wInyd8IhuRcA7Y25jyHYU2uOAyNb6+0PqCy2lvrcf+fCIO37XPe/QjlwMpP/D8BR3Wg3DtH+HbEktwV8TjpsFBLAK9XDFo6jrmb2V99RV7FsQeEWMzp8UW6vdfjiYAyqLKYjcvw3Hr7Q3mJTMzV59c+O30rlivYDOwoAABwISIH2yiNSs97Ep7bax8mHB3OdK9dRnH7M0Kyf96qjUohHC3fZdvLhKcypnt37Wh03OOXwYN1WKYaTDh1FbfXsusirYgavPHy4SIkKJ+P7UF7+VyxHnCeAHQWACu6xG4do/2riBv90enLGV/MiwNtfkwjU4L89verIESyZN/PbE/NbMnjt8bMvGvYnHlW8/cz+Gd/PFwHefFoS1fHyv3ccixq8/czkrN6bfzotiZocx1WUjiLjBz0jFZXKj4AdBUBHU909UA7ppWA7eskY3nJaApFpGvVoRPHOs/qwLI/Nd0rBEcUF5/TNqEt/YUca/+f1vUUpaA5ZMIHlr00g6u7/tSMRxdvOTODoJeXf/b/TsgXjeMdZ/YhO875HXMVbz0jktdJjqWR8Ay78W7kEwML2hv8EgAgAiIjp6U/1KrTDajKiaZx46CgWdmRw37p6PLWlBln/pcuzWERx5OIxnP2KITTVhmOQWlXM4L2v78P6DbVY+1gdegZevshPc52HVx81jJMOH8lr6uB0jlk6igWtGfx2XT2e2FyD7G5bLkcjisMXjePsEwZzHjQYZkcvGcMBLVnct+O92X076qirOHzRGM4+cTgUg/8UnPpX6SKOTIiID+w2XbUrMfQrgbzeXiwKMscfRFvXatsxXsbzBN2DUaTTDqrjBm2N2Wmv1IJuaCSCRCoCVaCp1kdzjiPR85H1Bb0DUYylHdTEDNqbwv++FsqM3htjgJE+OwEBJA+6Gdn40in/LmsMxrzKK+LoJXHXeWpxe/MRwI4eAAAQ6I/AAoBCJBJRLGjN2I5RUA21Hhos915EXcUBZfa+FkrY35sJLvtb8UTlv3b+eVenYkdzw7c5DoCIqDxljQ/Dkf8VTSBY2N54086vdxUAIpJR6DY7sSjwhPvQE82M3UZWnb03i1IAEx5H/lc615EREdnVhfWys7qq/qb0kSgMVHLfjIeooli+yjZu817fyxqO/CcgIvKX3b9+WQEQrav6TGnjUFioRKESsx2DKPisbq0iMM6cl31HwXv/BECArMjLRnK/rABoq6p6VoFEaVNROAj8SKvtEETBp/YGcaq7d09d2uOqfwS4cDIHtzU+tPv39r6xq/h5yRJRqHjRA2xHIAo+i1fbJvry7n8D5bx/AgBEHPxpz+/tVQBkI+YTrBVpKpnYwbYjEAWfZ2+aYKbmyJd9nfbY+BMACOKuXrbnd/cqABY2Nj4vwPbShKIwyVQdid3WjiKiPakPGHu3AMYbz9r1Z6OKLHf8IwBRwdi8lpYn9/z+lHO71NGvFD8ShY0fadnnCmNEBCBjb/8JjdUjW3XIrq/HfZ/j/gkA4Dju96b8/lTfnNtYf6NAuF4k7WV8zqttRyAKruz0GzsVy0T96bv+7BsDj1f/BMAV0UVtDZdO9XdTFgAi4qniD8WNRWE0Xn0y/EiL7RhEwZNNA7YG3DlRpFrfvevLcU77ox0i4mzcffGf3e1zeTfNYoXtFa0ogMTFSP2bbKcgCp7MiLVDjzW/AepMTgHMGAOf0/5oB7cq/u59/d0+C4B58+qeVMjTxYlEYTZRczIy8WW2YxAFR3oM8O3cNTXRBqTa3wsAUCgmLOWg4ImJkzywoeav+/r7/S7wrr6uLHwkCj/BcPP791pxjKgi+R6QtnT1Lw6GFqzCzlP5uOfbXomYAsR15MP7+/tp53R1J4a7AMwtWCIqG/GJR9GY+KrlpU+JLFIDjCat3fsf7bgAIy1vBQB4ajCa5dU/TYo6Mr60o6Vmf4+Zdos3cWTK0YNE6apjMNz4L+DaAFSRVIGxQWuN/0TzObsaf+jk1T/RTo4T/eh0j5nRmbs7MfwCAK4DS1OqHnsA9QPfnVwEhagSqAJjA4CftXL4iZbXYajjkpe+9n2kOfKfdog6zujSjuba6R43o03efQV7AWifxmteicGWizkmgCqD8YDRhJ3G33ExMve9L2v8jSrSPm/D0UtcOP82k8fNuO+2JzH8jAKHTP9IqlSun0T9wHcRm3jKdhSi4siMARMjsDFF2sSaMbhgNbJVB73s+6Oex0V/aJeo6w4sbW9qnv6RsygAurpSR0hMH5/Nc6gyVY0/hDlDP0fE67YdhagwvMzkSH8LV/3qxjHW8iaMtL5rr7/LGoMxjwP/aJIAqIu4r5nX1nT/TB8/Y13J4XtE8cacklGFUcTHH0b16J8RTz/F8QEUPmoALw1kxq00/CbeivHG12Kk5Z8x5c7tqkhlPSgXbKMd4o77+OKOpqNn+vhZFQAbVOtrB0b6RDU2+2hUqRx/BLH0M4hmNiCS7UbE64GYMYja2zaV6GVUJxt8403+52UAL4uSdPWLAHBhIrUw0VZkao/BeP3Z8GLz9vu0sayHLKfg0g6uiKarm1uPbJDkTJ8z6+787oHU5TD6hdk+j4iICoNd/7Sn6kj08wvbGmY0+G+nnO7nd/UPPy2CQ3N5LhER5U5VkfKyXPGPdok5TnJJR/Osd2mb0TTAPVW5/uuVy78REZXcGJf7pd2IAFURPX36R+4tpwKgqalpi6hen8tziYgoN2lj4PHai3YTd50757W0PJnLc/Oa0tedSD0M6LH5vAYREU3P7Bj1z23aaaeo4/Ys7WjKea+enHoAdko1156hiol8XoOIiPZPgR2D/tj40yRXROcgmtcFeF4FwDKRYXHwDojwt5KIqEgyvg+fN/5pBwEQgXtRR0dtTz6vk1cBAABzm+t/BqOfyvd1iIhob74x3OiHXibqRn+2eG7j1/N9nYIt69uVGH5QgJMK9XpERJVOoRjJeDDs+qcdYo7z4pKO5gWFeK2CFQCqWtWdTL0gwKznIhIR0d5Gsx5H/dMuEXEySzuaGkVkvBCvl/ctgJ1EZCJi0kcDKEgwIqJKNuH5bPxpF1dEa6J6fKEaf6CABQAAtLW1dcUd99Xc+YWIKHeeMUgbnkZpkgBwEP2nXOf770tBCwAAaGqas95xo+8E56sQEc2aUWDM5zr/NGlypT/335bOrf9poV+74AUAALQ31vwQwIUApwcSEc2UAhjnOv+0gwCoEvcTC9uaPl+s1y+avmTqYl/1y8U8BhFRuRj3PGQM7/sTAAjijvPFxR1NlxXrCEXpAdiprbnuK46YVcU8BhFROcgaw8afAExemcdd9+vFbPyBIhcAANDe3PgpEbmUtwOIiKbmq+5Y6pcqnQCojkRuXtze+MFiH6voBQAAdDTXfUlV3w8ODCQiehmjk/P9iQRAxJGPHdjW+JFSHa9kursHz0bU+SWAaCmPS0QURApgNJvlOv8ERxyNiXPxoo7G20t1zJIWAACwbWhoWdSTvwOoL/WxiYiCZNTz4PG+f8WLOI5fLZHXzG+vX1vK45a8AACAbdu0OVaTekSBgqxnTEQUNhOehzQb/4oXFRmLZKqWLVw4Z3upj22lANipJzn8HaO4wGoIIqISyxiDcQ76q2gCIBZxnlnU2nSkiFhZ9rEkgwD3paO5/j3GkcsBsAwmoorgqWKCjX9FEwDxSOT2xW3Nh9lq/HfmsK67O3WURHCfirbZzkJEVCxGFSPZLKdDVTDXdbLVrnPeAS2N/2s7SyAKAABQVacnMfQjQN4CCUwsIqKCUFWMeFkYtv4VSQBEHdmyuL35EBHJ2M4DWL4FsDsRMXNbG9/qRJx/UeWWwkRUPhSKUc9j41+hXMcxc2KxjyzpaFkclMYfCFAPwO5UtaonMfQ9iPMW21mIiPKhAEayWRjO9a9AgpiDLQ3tzcc2iwzZTrOnwPQA7E5EJua2Nr4VWfM6BRK28xAR5UIBjLHxr0gRcTJ1cblgSUfL4iA2/kBAewD21NU/crXAfByCuO0sREQzosCon4XHfv+K4jqijji/WNredL7tLNMJRQEAAE+o1rYkUt8VwZs0oD0XREQ7jXkeslzop2IIBFHXebShrfGMoF7x7yk0BcBO3d3d7YhUfQWO82YoCwEiCp5xz+PWvhVCBIiKbIm7+ob5ra1P284zG6ErAHZKJBIHZjV2B0TPAnsEiCggJnwPaZ+Nf7kTAFHX3RB3/H8MW8O/U2gLgJ2eUK1tTaY+q4r3cowAEdnExr/8uSLqOs5j7kTsXBvr9xdS6AuA3W3vT17gSORaAIfbzkJElYWb+5QzQVQw7jjunYvaGi62uXxvIZVVAbDTtqGhZdGsfhoi5wAyx3YeIipvvOdfniKO47sij3siHzi4rfEh23kKrSwLgN1tHxg4w1V3laqcCWiN7TxEVD4Uk93+GXb7lw1XxERc9xlx8LFFLY0/sp2nmMq+ANhdT8/IMb5jLnccPQeQA1Fh/34iKhzF5JU/p/qFmwjgwhlzHXnQ9dF54Lym+21nKpWKbQBVNdI7OHa+GvMOiJ4ClQMBjdrORUQhoIpR34fHxj90HBF1REYjkCch+O7CtsavBml9/lKq2AJgKv39/Qf4TuR8wD0d0GOMYp4A9YDG+FYR0STdscgPV/gLLoErUIFkXUFKIM87rnsfzMQdB7a3b7CdLijYqs3QwMDo8Vkxh/ieLIKjC+Cjw3G1To3ERSbHFhjVOhHZtSbBQCKx1PN8Tk0MuGg0MtHY3LzJdg4qncFkckk261Xl8lw3FgWi7CwsBddx/Gg8ltr5tSiMABOTXzkTcEwWKqMK7XPE2eKI2ejAeeiA1sZ7bWUOExYARXT5By5/LJPNHGU7B+1fNBJ9/NY7bj3adg4qnRUfWPF4Nps90nYO2r9YNPb4Lf95Cz+bRcIV9IgAXs5VGkXMdgQi21gAUMVTKBuDisOfORELACJFte0IVGqS0/1/onLCAoAqnoHhapEVxih/5kQsAIgMeDVYYVSVs3Oo4rEAoIpnYDgIsMKo4aJfRCwAiBRY8d4VB9mOQaVx9b9ecaiCi/gQsQAgAuDG3NNtZ6DSSLs4w3YGoiBgAUAEQFVPsZ2BSkN9/qyJABYARJPUHGs7ApXMMbYDEAUBCwAiAL7Rg21noNLw1V9qOwNRELAAIAJgjGkB98aoBI7v+822QxAFAQsAIgBGjbPigyvOtp2DiuvKD1x5LljoEQFgAUC0i2Ocd9jOQMWlom+znYEoKFgAEO1g1H+t7QxUXMb4r7GdgSgoWAAQ7eD5/tLly5e7tnNQcSxfvtz1jb/Idg6ioGABQLSDqjoLGhcst52DimNe/bwLjFGe84h24IeBaDee733QdgYqmn+1HYAoSFgAEO3GGPNq2xmoOLJ+9pW2MxAFCQsAot34xo9f8cErOFK8zFz5oSvfqUZjtnMQBQkLgOIytgPQ7KnxP2I7AxWWZv1/s52BcsJzaBGxACgiEUnazkCz5/n+SZdcckmt7RxUGJdccklt1vgn2M5Bsyci/bYzlDMWAEWlm2wnoNkzRp1INvJx2zmoMGKZ2BpjDM914cRzaBHxQ1FEKvi67QyUG9/zL7SdgQoj62ffZzsD5cb13TtsZyhnLACK6Jav3fLniBsZtZ2DZs/3/bqVF668yHYOys+VF15+qe/7dbZz0Oy5rjvyuW987s+2c5QzFgBF5jru521noNxkTfYTtjNQfnyjnbYzUG4ikchnbGcod9wVq/jksn+97AXP8+bbDkKzVxOree/nvv65b9vOQbN35QevfM9EeoI/uxCKRiLbb73jtgNs5yh3EdsBKoA2VDecOjw+/Big7IoMGR/+RwCwEQklXR2N8BQXPjJcE6l5le0UlYA9ACXS+eEPt2bSsZ9DcIrtLDQrKuqcfMNtN/zddhCauetWXPdKhfkzeI4Lm7+owZtu/OKNCdtBKgHHAJRI52c/2x9rjZ8G0WsBDNvOQzMmKuZLnZ2d/KyExPLly12F+SLY+IfJMKCrYi3xM9j4lw4/IBZcffXVde64+y4BXgfgJAAHgsVYoClwyY233vhl2zloetetWHWZQm61nYP2ywDYBpEHBebeqFf1vc4vdY7YDlVpWAAEwEUXXRRtjDW2OY4zzzVYqoKlUGepii4VYD6AxQBqLMesdAOxbPawzq/c3Gs7CO3btVdc2wGjTwNotJ2lwmUB9AuwXUU2QrFRxGwUxUYx2jVe7W+++eabOUXaMo6QCYDbb789C2D7jv8emuoxq/7vqiZEsXRngaCQ+SIyT1SXKnAIAA4wLK6mTDTyKQDvtx2E9kPNzYCw8S++NBQvqmCjA3QpZPvOBt6LYGNVQ9XWzs5Oz3ZI2j/2AJSJj1zykbkxN7YQ6i8yjiyCYpFAFylksQCLANTbzlgGFCJnr7llze9sB6G9Xb9i1esM5Dfgea0QhhXYItDNCtkCwRbH6BaIuyXjZ7Z+5kuf6bYdkPLHD0qFWLlyZXUc8XkRb0cPgjpLIVgK1flQzINgCfj7MBM9Wd87jifAYOm8+Kr2TDT6MIB5trOExACALgW2i8pG7Lh69x1sNMZ0ffq2T2+3HZCKjyd8AgB0XtRZk46nF4vKIoFZBEcWGcUiAQ4FwJ3UdiPAb6It8XM7Ozu5VWkAdHZ2OulE+tc7BtXSS9Yp8Iwj2AKjWxTOFhXdEk/HN3fe3jlmOxzZxzEABADYcUJ4csd/u6xYsSJeh9oeAA1WggWQAv+QTqRXAVhjOwsB6UT6ejb+exmOpeKv7vxm54TtIBRcnHpG+3XrrbemBfip7RxBI8DHr79s1Vm2c1S61StWnynAx2znCBpR/JiNP02HBQBNyxj8wHaGAHKNyHeuueKahbaDVKpVV65aLMD3Abi2swSNcfiZpemxAKBpJbKJXwNI2s4RQPNd4/y28+Kr2m0HqTSdH/5wq+PLL8FBf1MZiDfH77UdgoKPBQBN6/bbb8+K4Ce2cwTUwZlo9Oedl3TW2g5SKTov6qzJZGI/BXCY7SzBJHd1dnZmbKeg4GMBQDMiqt+znSHATsq66R9edNFFUdtByl1nZ2csE0/fDYC7xe2LgJ9VmhEWADQjkZaq+wBssp0jqBR4Q0u85RvLly/n/egiWb58uZtOpL8J4PW2swTYc2tuWfN72yEoHFgA0Ix0dnYaqH7Ddo4gE+Ddy+Yuu2vlypXVtrOUmxUrVsSXzVv2fQHeaTtLoIneAUBtx6BwYAFAMyZR9w4Avu0cwaZvrvaqfnnNRddw3YQC6byks7ZOan8G1eW2swSc5xnzLdshKDxYANCM3fD5G14E9Fe2c4TAmW7cWXvdyusOsB0k7D5yyUfmZpz0H6E4x3aWEPgFl/Cl2WABQLOiKrfbzhASR2nW/GH1pasPsR0krK6/4vpDo27kzxAcZztLGKjB12xnoHBhAUCzcuNtN/4M0Gds5wgFwVJx8PfrVqzifetZWr1i9VuN8R8AsMR2lnDQDfG2+C9sp6Bw4YhlmrUzTjkNgLzRdo6QiAPytjNOOf2gs4973a9//9Dvs7YDBVnn+zqrXnX6qz4rwOcAVNnOExYK+egnP/3Jv9nOQeHCHgCatWi66g4ACds5wkSB92Ti6b999NJrjrSdJahWX7r6kGxd+gEBLredJWQGsvHst22HoPDhdsCUk2tXXHsToNfYzhFCKVG9OtpadTu3E57U2dnpZPsnLlaRTwHgioqzpXLjmtvWXGs7BoUPewAoJx682wBwudHZq1ORL2cS6Qeuu+y6V9gOY9uqK1adlEmk/6oiXwQb/1ykJSpftB2Cwok9AJSza1es/gqAD9nOEWJGgDujscy/dX72s/22w5RS55WdjWk//f8EuBQci5Q7kS+tuWXNpbZjUDixAKCcXXPFNQtd42wAELOdJcwU6HVU/31YRr9x6623pm3nKaYVK1bE63XOB1SkE0Cb7TwhlxHfOfiGL92wzXYQCicWAJQX9gIUjgK9IvLlmMY+13lr57DtPIV01VVXzYlNxC4E9CMQcIGkQhD5yppb1vxf2zEovFgAUF7YC1AM0g/BF03WfOGmL980YDtNPq6++uq6yFjkX0V0lQJzbecpI1nj6iE3/cdNm20HofBiAUB5u/aya++H6Bm2c5ShIYjcadR8/aZbb1pvO8xsXHvptSfA0QsBvBtAve08ZUflD2tuW3Om7RgUbiwAKC/Xrrj2fQB3CSyBdYD8l3HND4N61bfqylWLxZN3CPBOLt9bCvL+Nbeu+abtFBReLAAoZ6tWrDregfwJALe/LR0F8HcBfgk4v3y2+9m//fCHP7SyQ+Py5cvdg9sPPllcOReq5wI4ETynlNK4gb46bL1DFBz8sFJOOld2Nme89N/BtdptGxTFn43gTyLyl5gbe6Tz853JYhyoc2Vns5edOM44eJUYOVUFrwbAbY/t2hSLxF9RrJ85lTcWADRrnZ2dTjaRvkeBN9jOQlNQvAjB4wA2ArIJgi2q2iMiCThImLSZGI2Mju2ccrhixYr4HG9OjRN3qmDQoqotItIBxSJAlwhwkAJHAZhv9x9GUy9KOycAABo5SURBVBHgV9GW+HlcWZJmK2I7AIVPJpnpBBv/4JqcZrdjqp0CuqPSVwV8wIkI6lCLa1esfuk5EQC+7nj6jsdi1ytQgCnwhmwi/e8A/t12FgoX9gDQrKy+dPX54uAn4DLSREGiIvq2G2656ce2g1B4sACgGVt15arFji9/B9BiOwsR7WXQ+HrSTV+66TnbQSgceBVHM7Jy5cpqx5e7wMafKKgaxZW7r7rqqjm2g1A4sACgGanJVn0ZwAm2cxDRvglwdDQd/ZrtHBQO3IWLpnXt5deuALB62gcSkXUCHH3GKacl/vjg2gdtZ6Fg4xgA2q/rVlz3SoW5H1zrnyhMsgqcfeOtN/7RdhAKLhYAtE/XXnFtB3x9iLu3EYWPAN1Z9U/89G2f3m47CwUTxwDQlDo7OyMw+t9s/InCSYG5EXF+2NnZyd47mhILAJpSJjnxaQDcbYwo1OTUdCJ9o+0UFEwcBEh7ue7yVW+ByufBW0REoSfAq05/5RlP/fGvf3zCdhYKFp7g6WWuv+L6Q43xHwT3cCcqJyOuMa/8xBc/xSKAduEtANrl6quvrjO++THY+BOVm1rfkR9fc9E13L2RdmEBQDtJZNy9A6KH2w5CRMUgy9y4822w55d24BgAAgBce/mq1YCssJ2DiIrq0NNOPn1i7YNr19oOQvaxEiRcf9mqs4zIb8CCkKgSGKi8cc1ta35tOwjZxQKgwl13yXUHqmseAtBmOwsRlUzSUfcVn7ztk5tsByF7OAaggq1YsSKurrkLbPyJKk2zin/XypUrq20HIXtYAFSwetTeCuAk2zmIqPQUOL46W/0ftnOQPbznW6FWX776PQA+aTsHEVkkOPG0k09/Ye2Da9fbjkKlxzEAFeiaFdcc68L5CwB2/xHRhKhz+g233fB320GotHgLoMJ0ruxsdtW5G2z8iWhSlYq5q/PDH261HYRKi7cAKkhnZ6eTGZ34EUROtp2FiAKlwffdE+cumnfnk08+qbbDUGmwB6CCZPozHwfkXNs5iCiQzj5k7sGdtkNQ6XAMQIVYfenq88XBT8Cij4j2TRV4+4233ni37SBUfCwAKsCqS1Yd7LjyNwCNtrMQUeClVHHyjbfd+LTtIFRcvBoscytXrqx2XfkB2PgT0czUQfCDq666ao7tIFRcLADKXLUX/5ICx9vOQUThIcDRsXTkNts5qLh4C6CMXXvZtedC9Be2cxBROAmcf7zh1ht+ZjsHFQd7AMqZ6KdtRyCi8FIYrhZaxlgAlKnrrrjmNABH2c5BRKF2zHWXX3eq7RBUHCwAypVxXm87AhGFn0L/wXYGKg4WAOVKcYLtCERUBlQ5iLhMsQAoUyrKaX9EVAhNtgNQcbAAICKi/WE7Uab4gy1XIpttRyCiMiC6yXYEKg4WAGVKgfW2MxBRGTDOOtsRqDhYAJQpI+YHALitJxHlQ0WFGwOVKRYAZepTX/jUVgBcwYuIcqfyPzd88YYttmNQcbAAKGOquAZA2nYOIgqlCcdxrrEdgoqHBUAZu/G2G59WwQdt5yCi8FHFZZ+85ZMbbOeg4nFtB6DiWvvXtY+e/srTPEDOsp2FiEJC9Pobb73pC7ZjUHGxAKgAf/zr2j+efsoZYwDOsZ2FiAJO9WNrbr2JmwBVABYA/7+9e4+OqjzXAP68e5IJcilUytG22tpy8QIkaOPllGLNsrbVLrU9LZRLrax2lbZqxKNYCdh2eprMJBSKYYJl0fZU5aIST9fR2ttpu1yVy6keBMJFQBFRwApCRAyByWT2e/4go4gQSLK//e09+/n9x0rme981Gfb7zL5GxPJnl69iCCCiTqn+KNlQ+1PbbZA/GAAihCGAiE6Kwz9yGAAihiGAiN6Hwz+SGAAiiCGAiN7B4R9ZDAARxRBARBz+0cYAEGHLn12+6jOXj8kJwEsEjyGC36hivgAjIHwUaqgptitwt+NgPwA+1/4YCvww1cCz/aOMASDiVjy74mnuCXhHBirTkunUjBXPrlh79XWfa3Bb2zdBpAzAQNvNUZfsENF74gN7fbt6VvVzy59Z8fiYy698GcAXARTbbs461R9x+JPYboCCoaqy6l4BorwrcKfA+VpNuubZ43+QSCSKMs2ZSaKYDuACC73R6VLZDEFtfGB8aSKRaD/+xzMrZ16mcB8DcK6F7gJBgR+m0ikOf2IAoHf9ouGBv+7cuvVq231Y8Hc48vVkfXLPKX5P7q2cfrWKTFXFl8D/P0GyUuDU1aRrnsQpnoJZdWvVQMfBUgU+71NvgXHO0CGrbrn926Nt90HBwA0YAQBWbthWDcjMF9eswwurV9tuxy8KyKwXX39xZmNjY64rL5wxdUapqN6hiokASgz1R53LALokpnrfTxvqNnTlhWPHjo0NPXtoDaA/QES2g8PKyzH0klGA4OejRwy+y3Y/ZF8kPvjUufzwz/97e9MGbH7mGZst+eFtBb6VSqce68kiiTsSA7LukXHqyvchGOVVc9QJlc0Q90GF/GcqnXqjJ0vNrJx5vcJ9CMAAj7oLpGHln8LQS445B5IhgMAAEHnHD/+8Qt4ToMCmmBP7anV99VYv162aWnW54+LbCowH0M/LtQkHofKIiPz6ROdp9MS9U+89P+fm/kuA4V6uGxTvfPM/HkNA5DEARNjJhn9eYe4JkMdzmdzNdQvr3jJVITE50SvbL3sN4I5V4CsA+pqqVeCOiOCvqtIYz8V/m7g/0WKqUOKWRN9MLPMrAb5uqoYN7/vmfzyGgEhjAIioUw3/vALaE9AOlR8kG5Jz/SyauCXRNxs7cj0gk6N40ll3CPA/gD5QnOv1O5ND/0Rm3Dbj3yE6C0CRn3VNOOk3/+MxBEQWA0AEne7wz3tp3XpsedbTva5+ewMiE5Lzkn+z1UDVrVXDxIGnhxwKlSOxYdXzql+0Vb+qsmqMAI8C+LCtHnrqlN/8j8cQEEmO7QbIX10d/gAweFQpLrjsMlMtmbY657jlNoc/ALQ4La/gFJenEQBAiw4W7bTZQCqdWt6uuXIAK2320V1dHv4AoLhz5caX5pjpiIKKASBCujP880IZAlQWxgeWjK6rr3vVdivpdDojwKnuM0DA64kHEkdsNzGrYdZr8YElVwFSZ7uXrujW8M9jCIic0B/notPTk+GfN3hUKQCE4XDAEVXckmpI/sZ2I8dSxSsQnG27j2DTV2x3kNdxJ8HpMyunNynklwD62O6pMz0a/nlHQwB4OCAauAcgArwY/nkh2BOwDY5cnmpIBWr4AwAEgRluQaWQwL1HNenah1VRDpXNtns5GU+Gfx73BEQGA0CB83L45w0uK31MHKfKyzW9ob932/WyZH1yve1OTiw4326DygloSEo1pLbEJX4FgN/a7uV9JPaToZdcvMTTNRV3rtywbbana1LgMAAUMBPDH4rH2va/OqGmvqZWFfd4unb3KSB18YG9bqj9Re2btps5KXECOdwCxQ1uSEqkEweT6dTXAJ0OoEu3jjZFgR8n51Undm/+5M0AvA0BkLsYAgobA0CBMjn8Kyoq2gEg1ZCaFYAQ0OyKXpdMJ6cnEgnXci+dU+yw3ULQuY7ssN3DKWgyXVsHkWsU2Gu1EeDHqXTqPwBg3DjJMQRQVzEAFCA/hn+e1RCgWOcW6aW182r/ZKV+VwV093aQFOXcULxHyXnJp5ycUw7Ayhmxxw7/PIYA6ioGgALj5/DPsxICRBfH20pG186t3e5r3R5o79UeiuFmU6aPWr9k83TV3F+z8220XAnIr/yse6Lhn8cQQF3BOwEWEBvD/1hVt1X9QASmr5vOQOWeZEOy3nAdI2ZUVjUD+KDtPgKqOZlODbTdRHfMqJzxTUAXADjDZJ3Ohv+xli3T2Ecv3P4ggEkedzBn9Mgh07xdk2zhHoACYXv4A77sCdglcK4K6/AHACgPA5yMILzvTTKdfAiufAYwd57H6Q5/gHsC6PQwABSAIAz/PIMh4O9wpLwmXfMPA2v7R3gi4MmoBv4EwE4l5yfXxONtl0LwF6/X7srwz2MIoFNhAAi5IA3/PI9DgCowb19m/zXJ+mT4b6Urwb3MzTYtgPcmMWfOvhf/ue1aiPwEgCdXpXRn+OcxBFBnGABCLIjDP8+jEPC2AuNS6dTUhQsXZnu4VjC4vBfAyTghPgRwrMbGxlxyXjIhcL4M4EBP1urJ8M9jCKCTYQAIqSAP/7xUQ2oWINPQvW9CzztO7NJUOvWYF70ERSF8yzXFBUJzBcDpqEnX/M5xYlcAeL4bL3cBmdbT4Z/HEEAnwgAQQmEY/nnJdHJOxzeh107zJS4U6Xiu5PLq+uqtXvYSBAwAJ1eI7011ffXWeK7kcgUacPpB+DVAbkimk57ej58hgI7HywBDJkzD/1jTpk3rU3ykuFIENwG46AS/0groMrhOOjk/ucZUH7ZV3Vo1UBzss91HEKmLD6Xmp/bb7sOUGbfOuASOWwnIOAC9j/+5ApsEuqitpL1h9uzZh0z1wUsEKY8BIETCOvyPN/2O6ec57c75AvcDrohKTLbFB8Q3djx+teDNqKx6G0Bf230ETEsynepnuwk/JBKJorYDbSM0p0McVckJ3lJHt9TV1/l2CIQhgAAGgNAolOFPwIzKqk048V6QyFJgUyqdGmG7jyhhCCCeAxACHP6FpvCOdfeUwxsk+Y7nBBADQMBx+BcgPhb4fZQPSrKCISDaGAACjMO/MGmAn3lvD98TWxgCoosBIKA4/AuXU4CXu/UY94pYxRAQTQwAAcThX9hcN9z3vDdBQv4cgELAEBA9DAABw+Ff+HKS47fd42iMe0WCgCEgWhgAAoTDPxp6f6j36wAytvsIkLb4gHj4H/RUIBgCooMBICA4/KMjkUi4AHbZ7iNAXu14TyggGAKigQEgAFZufKnW6+Ev0GUc/sGlBfLkO4/wvQigceMk17bv1ckCXebtynLX0W0e2cYAYNmK9dtvQ88fm/teiscy+3ZO4vAPLoHusN1DUIhgh+0e6MQqKirad20ePBFe7wlQ3LNq4/ZbPV2TuowBwKL/XfvyeSLq7e4w7vYPBYXwW28H3hch2EwdDlDVny9f/8InvVyTuoYBwKJczJ0GoMSr9bjbP0R457t38R4AgWfocEDckaI7PFyPuogBwCIR3ODZWtBl3O0fHjF+632H8i6AoVBRUdGe2bdzkrchQD3bBlLXMQBY8tTLL/cCcK4ni/GYfwgVceh14D0AwsPAOQEf69gWkgUMAJb0acUAL9bhbv9w2tu2dxeAnO0+AiDX3Nq823YTdPo8PhwgXm0LqesYAMKM3/xDa+HChVkAr9nuIwB2d7wXFCLGrg4gXzEAhBXP9i8AvBIAvAdAaJm7WRD5hQEglGQ/h3/48eQ3AHwyYqjlDwcAst92L9R1DAAhpNAsh3/4Ofz2C7i8BDDsKioq2hXKwzghxABAZAu//UL5HhBZwwBAZE1so+0OrHPB94DIEgYAIktaY61rAUR512mm5FDJWttNEEUVAwCRJXPnzj0MkSds92GLAv+deCBxxHYfRFHFAEBkkeRy82z3YIlCkbbdBFGUMQAQWVQzv+5pARbZ7sN/+ptUQ2ql7S6IoowBgMiy4ljJ7QDW2+7DN4p1uYzeabsNoqhjACCyLHFf4gAc+bwABX9CnADPxduzX6hbWPeW7V6Ioo4BgCgAkvXJPQfR8q8K/BxAm+1+DMgA+rODaBmdWDB7r+1miAgost0AER2VTqczAO6aecvM+xBzv6eK6yAoAyC2e+smFWCdqvyhXdoXzErP2mW7ISJ6FwMAUcDU3F+zE8BMADOnTJlSPKjPoH/JIVfSnbVGf+n6qb1697m9O6890npo3srf/66+O6+NIZZ549Abe/mkP6LgYgAgCrCOAbq7u69f+a3vvNnd1/bu1+/N2rm127v7eiIKNp4DQEREFEEMAERERBHEAEBERBRBDABEREQRxABAREQUQQwAREREEcQAQEREFEEMAERERBHEAEBERBRBDABEREQRxABAREQUQQwAREREEcQAQEREFEEMAERERBHEAEBERBRBDABEREQRxABAREQUQQwAREREEcQAQEREFEEMAERERBHEAEBERBRBDABEREQRxABAREQUQQwAREREEcQAQEREFEEMAERERBHEAEBERBRBDABEREQRxABAREQUQQwAREREEcQAQEREFEEMAERERBHEAEBERBRBDABEREQRxABAREQUQQwAREREEcQAQEREFEFFthugdzloQy+8iWK0QACoOmiTvjiCM6GI2W6PCkRc30aJHICDNgCAizgyOgBt0s9yZ1QoBDn0QjPi2gIRFwogi6PbMhfFttujDgwAlvXVXRiEDeiPl9Bb3wCg7/0FBRQOWvBRHJAheEPKcBhnWumVwslBFgP1eZyJzeivL6MIh9/3MQOALHrjIM5Ds1yI/biIG2rqkl66H4OwHgN0G/piNwTu0R+857MmaMUgHMAQ7HNK0YKP2GiVOojtBqKqpenOb6oUPdhXd3fxlYIDMiQzAC+MltKlzxlpjgqCrh7bvzle9sQHdMeVRTjcpde24wwckE/+/UOtm26QK5YcNNQiFQBdO+nSA7HBywfo9pITJstOtMg5EDd3U99Rsxcbao86wQDgM10z/iOIFf0S0Ot6uJQLYAGyfe6W8oWtXvRGhUPXTfoKHMyH4sM9XOo1iN4ipUsf96QxKhjadFMfwJ0NYAp6fj7Zk8jKFClf/E8PWqPTxADgI10/4bPQWCOggzxcdhOc9htl5KMvebgmhZQuGxvD+cVzAJnq5bIQnYuRw+4WSbgerkshpZu+MQTt+gSACz1cdg8gY6Vs8XIP16ROMAD4RJsmXA84ywD0MrD864BzjZQt2mhgbQoJfeqqIgz86BIoxhkq8Si2tk2ScY05Q+tTCOj6SSOh+AuAswwsfwSKsTJqyZMG1qbj8DJAH2jTN8YYHP4AcDbg/lk3ffNjhtanMDjznAUGhz8AfB3nx39hcH0KOF07/jwAf4aZ4Q8AvSBYpmsnjTa0Ph2DewAM0w0TzoI6az04Fntqgv9DrO0zMryxzXgtChRtmvh9QO73pZjod6V06UJfalFg6OopxSg+9DSAK3wotwdZuZjnBJjFPQCm5WSBL8MfABSXIhuf7kstCgxtuukTgMzxr6DM1TUTP+5bPQqG4taZ8Gf4A8BZKNYGn2pFFgOAQbrhG9dA5Mu+FhVM1w3jz/W1JlnmzgZwho8FeyPm/MzHemTZ0cOLeo/PZf9NmyZd7XPNSGEAMMnVH1qoegbc2DQLdckCbbppBICvWKj8VV0z6SL/65IV2fa7Ye4cpk6IjW1oZDAAGKLrJgwHMMZKccFkXT2lt5Xa5C91vwc75/I4iOkUC3XJZ7pq7BkQuclS9c92hFwygAHAFHEmWKut+ACKW6+1Vp98oZpwIGLyrP9TkPGqPJG44PUuuR5Af2v1JWfxM17YGADMucZyfR47K3RNW8o8vqlUV52FjRNGWqxPfhD9nNX6rnBbZggDgAG6bGwM0DK7XbiX2q1PxjmxctstIOfY74EME7t/Y9FPHd2mktcYAEy4oPjjgJTYbUKG2q1PxrkYYrsFOODnrOCp5c+ZlGBojFc2GcAAYILEgvC83v761FV83HMhE7X/OXPFfg9kjK6eUgygn+0+4BTxc2YAA4ARGrfdAQDgzHMt74Ugs2zvZQIg6uf9B8hvZ7xp/zMGAI6NSxALHwOACe1uEB7P66J0URD6IHMO2W4AwNu2GyCDLhreCkBttwHkWmx3UIgYAEyIx1+33QIEe0SC8B+XzFH7nzMV+z2QMR2Pf95ruw+4RfycGcAAYIAMf+B1AAesNqHYYrU+madi/2/suPZ7IMOsf86apWyR/RBSgBgATBGstFtfV1itTz6I2f8bu0WrbLdAprl2t2WA/c95gWIAMOePdsur5fpkmox6aDeAjdYaUDR19ECFTC1vS9T2trRwMQCY0uY+CqDNSm3FNox8+B9WapO/BIvs1dbF1mqTf8oeXglgu53imkFJrNFO7cLHAGCIlD+8DwI7G0gH9/EEwIiItf0KNs7EFxyE4Ne+1yXfHd2WaL2V4uo8KBc+tN9K7QhgADBKawAc8bnoDvQr5oY5ImR4YzMEc30v7GKOlC590/e6ZMeh7C8BvOJz1cPQ9pTPNSOFAcAgKV26HaI1vhZVVMonHvA7dJBNLW21UGzzr6C+gP7Fs/yrR7bJpxsPA3K7z1Wr5eJHdvhbM1oYAEzbkk0BeNqXWoK0jFrypC+1KDDk042H4eh4QDM+lDsCOBMYMqNHyhY/AeB+n8o9ha2ZOp9qRRYDgGEyrjGHrPtVwPh1+X9DrG2a4RoUUFK69DkAkwG4Bsu4ULlZyhavMViDgizb5w4AfzJaQ7ENcMbLuMac0TrEAOAHKX94H5zc5yF43lCJPwLOjTK80c5VBxQIUrb0EQDfAtBuYPksVCfLqMXLDKxNISHlC7OA8zUAfzZUYhMEFbzxjz8YAHwiIx/ZiVjbGAh+7+GyCuA+ZPvcKGWLgnBfeLJMypY8CNFr4e3tW/cAzhdl1FJ7lxxSYEjZokMoarsBgrTHSz8B0TFStmSXx+vSSYjtBqJGFYINE78DlRSA7j/iUrEN0Ntk1FJTSZxCTDdNPhvt2TkAJvZkGQiWQNxpMvLhPV71RoVD10+6FippQAf3YJn9gExH6eJf8/JlfzEAWKJrJw9ArO02qHwXwDldeOlGQO9DUXYRd/nTqej6iZ+COvcAeiOA03xMtWYg8jjcXK2MemSt0QYp9HTT2Dhy8ZuhmApgeBdeuhOQBchm5kt541um+qOTYwCwTDXhYN22K+Ho56B6GUSG4eiegX4ADgC6F5AtEF0Fx/mTjFjcZLllCiHdNPZMZIu/BKACjoyAynmA9j/6U3kLojsAbICLp1Dc9gcZ3thsrVkKLV03/mIg9gWIfBrQCwAMAjAAR29W1QzVFwB5Bo7+BSOHreh42iBZ8v/Fwcq3ZOB6FAAAAABJRU5ErkJggg==;" vertex="1" parent="1">
          <mxGeometry x="200" y="100" width="160" height="160" as="geometry" />
        </mxCell>
        <mxCell id="05AAa1fjyTa9ZjowC4g--6" value="" style="endArrow=classic;startArrow=classic;html=1;rounded=0;" edge="1" parent="1">
          <mxGeometry x="-1" y="-166" width="50" height="50" relative="1" as="geometry">
            <mxPoint x="380" y="170" as="sourcePoint" />
            <mxPoint x="510" y="170" as="targetPoint" />
            <mxPoint x="-90" y="-26" as="offset" />
          </mxGeometry>
        </mxCell>
        <mxCell id="05AAa1fjyTa9ZjowC4g--7" value="ConexiÃ³n con API" style="text;html=1;align=center;verticalAlign=middle;resizable=0;points=[];autosize=1;strokeColor=none;fillColor=none;" vertex="1" parent="1">
          <mxGeometry x="220" y="285" width="120" height="30" as="geometry" />
        </mxCell>
        <mxCell id="05AAa1fjyTa9ZjowC4g--8" value="" style="shape=image;verticalLabelPosition=bottom;labelBackgroundColor=default;verticalAlign=top;aspect=fixed;imageAspect=0;image=data:image/png,iVBORw0KGgoAAAANSUhEUgAAAgAAAAIACAYAAAD0eNT6AAAACXBIWXMAAA7DAAAOwwHHb6hkAAAAGXRFWHRTb2Z0d2FyZQB3d3cuaW5rc2NhcGUub3Jnm+48GgAAIABJREFUeJzs3Xl4VNX5B/DvnUkyWQjZF5IQAmEJJCRACCZAWEVFXFDEDRdU1Fr33Wqr1aKW1p9aW5e2rsXWvSouZZdAWEMgBEJWkgBJyL6QZTKZzNzfH6gVC1nn3GXm+3ken6dNJud9uYS575x7znsAIiIiIiIiIiIiIiIiIiIiIiIiIiIiIiIiIiIiIiIiIiIiIiIiIiIiIiIiIiIiIiIiIiIiIiIiIiIiIiIiIiIiIiIiIiIiIiIiIiIiIiIiIiIiIiIiIiIiIiIiIiIiIiIiIiIiIiIiIiIiIiIiIiIiIiIiIiIiIiIiIiIiIiIiIiIiIiIiIiIiIiIiIiIiIiIiIiIiIiIiIiIiItIxSaW4bgAmAZgIIO77/0YC8AEQAGAIAHeVciMiInIkK4A2AE0A2gGUAigAUAjgIID9AGxKJ6VkATAKwMUA5gOYDWCogrGJiIi0qgVABoBNANYAKFciqOgCwAvARQBuw6kbv1ozDkRERHqRDeBvAD4A0CoqiKgbcjCAuwDcC8BfUAwiIiJn1gbgbQDPA6h29OCOLgACATwB4Hacep5PREREg9MG4A0Az+HUOgKHcFQBIAG4HsAfAYQ6aEwiIiL6r0YAvwLwdwDyYAdzRAEwGsBbAGY5YCwiIiLqWQaAWwAcGcwghkEmsRhAFnjzJyIiUspsAPsAXDWYQYwD/DkPAH8C8H8APAeTABEREfWbCcAVOLX2bhMAe38HGMgjAB8AnwBYOICfJSIiIsfaBOAy9HPLYH8LgEAAXwGY3s+fIyIiInGyACwCUNfXH+hPARCMUwsPJvQzKSIiIhIvD6fWBzT05cV9XQToDeBL8OZPRESkVfEAvsWp83R61ZcCwB3AZ+C0PxERkdZNA/AFTi0S7FFfdgG8AuDawWZEREREihgFwBfA2p5e1NsagKUAPnZURkRERKSYK3BqBv+MeioARgPYC8DP0RkRERGRcM0AkgGUnumbZ1sDIOHUUYS8+RMREemTP4B3cJYP+2crAG4EMFdURkRERKSIWQCWnekbZ6oKAgHkg6f6EREROYMaAOPxs6OEz7QL4HcAFiiREREREQk3BKc+8G/86Rd/PgMQBKAcfWwiQERERLrQDiAGQP0PX/j5GoAHwZs/ERGRs/EBcM9Pv/DTGYAhACoBDFUyIyIiIlJEC4BInJoNgNtPvrEEat38h4+qxPL7SzD30iHw9QuAhykMkuSjSi5ERESOJMtt6LLUoLmhEf/52IzVL49HXXWICpn4AbgcwGrg9BmA7wDMUTSVpLQC/OmTDgSGTFE0LhERkXpsOFqyB3cvjkJ58XCFY28CcC7w3wJgJIAj6N/xwAPn6d2BdzdnY8LkGej7iYRERETOxIItX+3EfVelw27ry9k8jmDHqXv+sR9uvhdDqZt/WGQNvjtWjgmT08GbPxERuS4T5lw8BxtLczA0oEWhmAYAi374HwAwT5Gw4cOrsbbYBh/fCYrEIyIi0rrg8GRsLKuFr/9JhSL++AjAiFP7Av2FhjN5mZFxvBTevvFC4xAREelRfU02FoxKgq3brfcXD0ozgGAJp04K2is4GPDhrm3fT/trgyy3Q5Y7YLN1qp0KAMBo9ITB4I1TezX17dS1bYfNZlE7FQDOdW1P6YBsM6Pb3qF2IgAAN4M3JKM3AC+1UyHSvYxvt+Duy+YoEGmKG4AE4WGS0gq+X/Cnjk5zMQ7uqcL6f5uQuzsEJXnDYe3ygRZvCB4mC8YkHENSaj0WXG5FwtQomDxHqZ3WWXWai3Bg9wls/OHaHtb2tR2XeBSJ5zT8eG09TNq9tgBg6TyCQ3srsfFzdxzcE4TCg9GwmL0BeONU507t8PJpx9jE40ie0YAFl9kxNikG7u5Kr3Am0rfZF6Zh5LhjKCuMFhwpQQLwPIDHhIbZfGwfgsOU3eon2xqRueEg/vTr4Sg6qO03+d5MmFKCe1dWInVeEiRJ7KOavpBtDdi67iBe+c0IFB8aqXY6gxKfXIz7nqvCtNmTIEnaOP5atjUgc8Mh/OWpKOTnxKqdzqCkzMnDPb9tQGJqMnt7EPVRRekuXDg+VXCU5yQAnwNYLCxEVEwVvi0cBqV2GchyEz5/OxerHp4Kc7tzveH4+rXiVy9n46JrpgCS8k2bZFsjPn3rIF54zAmvrf9J/ObP+3D+0qmQJHXaYcu2Bnz090N46XHnu74BwY146vVczLskBVqcHSLSFhvmRTehviZYYIx/SwByACQJC/HrVzJw5e2zhY3/U8V523Hrwjg01mhratTRwiJr8daGI4iOTVMsZvHBTKy4cAKaagMVi6mG8OHVeHtjOaJiRFffPyXjUFYmfnlpApobAhSMq7zhoyrx5roKDIs+R+1UiDTt3Re34sVfzRIYYb8BgK/AAMC8S8VX+7Lcjhce24ElU2Y4/c0fAGoqQ3HRhDS8/rtMAGahsWS5Dase3IklU2c6/c0fAKqPh+PCcan4+6ptAMQvEJXlJjy5Yi+unZnu9Dd/ADheGonzx5yDt19Q5voS6dWFV4teVDtUAlALQFxP4qyWIzB5inuOabdV45oZbcjfP1pYDC2bPL0A72wKhsHg+Kkim60KV6d2ojBX32soBipl1mG8uTYMklFMUWm1lGPxZDccPxIlZHytS07Px1vrQ4T87hLpXXd3Fab4RAiMUCfh1CdIT2EhcjtPCntebbUex+IkyWXfQH8QO6Ecn+71gNHouF8Wq/UoLk1wR0W5yF9A7Rs7sRQf7/aGwRju0HHN7YVYND5I8DM+7Rs1vhyf7nWHm1uk2qkQaUwnEk3i7s1ApwEib/6SJAu7+dvtdbgiWXb5mz8AHDkcg2unmyHLTQ4Zz26vxWWTDC5/8weAooOjcO3MNsiy49p0Wq1HefP/Xml+DK6YaoXdXq92KkQa43nqHipufL324u/CrQtrFdgnqR/5ObG494pjALoHOZIFNy9owLES7t/+weF9o/HAVaUAbIMeS5ZbcEWyxJv/T5Tmx+DWhTUAtNE4ishF6LMA+PCNncjawpbCP7fl6ySs/ThzUGO8/8pu7Msc76CMnMemLydj/b+3DXqcFx7NY+F6Bllb4vH+K7vVToPIlUgAxE0xSJKMA52O3f/fXH8As6MSIcvK9BXQG4PBju21BQM6cKmxbj/mDp/Ea3sWBqMNO2qL4T0kbkA/X5y3HUumqNcRUw82H81GcHiy2mkQaUKSpyzy/VhvMwDduHOxF29QPbDbDbhzsYRTZz73Rxduv9CP17YHdpsRd19mR/+vLSDLrfjlRa65U6U/VpwfDG4PJFKEvgqAw9k7cTBrrNppaN6+zPEoL+rfdGru7l0uu92vP7K2TkBF6Z5+/9x/Ps5GTVWYgIycS2nBCOzazEcBRArQUwFgxxMruDCtr359SxD6/njHhidvGyEyHafyq+UB6M+jM1luw/P3TRKXkJP59c3jIbrBFRHpqACoPbEPRw7HqJ2GbuTuGYuWhtw+vba6IhulBSwA+urA7nFobT7U59fn7tqHlkb1D3HSi9oToSg+uE/tNIicnX4KgH/8qUvtFHTn4zdP9ul17744+O1truazd/rec+HVZ5y/hbKjvb7SW+0UiJydXnYBWJEa3IWOVp4i1h8BoY3IOO6Pngs9C1L87bCYRfeddi4h4XXYdDQYvZ1yabdVY7JPGBdX9pPBYMf+tiZhbZiJ9IC7AACcbCrgzX8AmmoDYW4v7vk1Dfm8+Q9AXXUILOYjvb7uSMER3vwHwG434FhZkdppEDkzfRQAuXsa1U5Bt/Jzanr8/oEdzQpl4nwKc6t6fc22//R/yyCdkvG1Ve0UiJyZPgqAA7uNaqegW4eyev5+zi53ZRJxQnnZvT8+279DzFkYrmD/DrFHlRO5OH0UAHnZfBMdqLy9PT86OZTN1ekDdWhv7wvVCvY79hRBV5LPa0ckkj4KgIZqPv8fqNrqnm9S9by2A1Z3ove1E00NLLAGqrHeT+0UiJyZPgqAk01cpDZQzQ09X7u2Zm63GqiWxt5+L63ospgUycUZdXZ4A+A6ACJB3NROoE+sXULzjPIJqnAzSqos1rLa7MbK9sZIYQG6LD1fO6tV6LWNjIw87ubmJvJM67OyWq1uVVVVEcICWDp7u3ZdAIStsZAk2EdGGipEjd8XZZX2KFkW+kFC6DUkcmX6KAAE23fVKi+jJKmy39gm26tC375VjdCKyMrK8pUkSZVpcKvVejw62nlP3h3iJZmPrPVR9Q84dFpbe2uHzMdIRDqkj0cARERE5FAsAIiIiFwQCwAiIiIXxAKAiIjIBbEAICIickEsAIiIiFwQCwAiIiIXxAKAiIjIBbEAICIickEsAIiIiFwQCwAiIiIXxAKAiIjIBbEAICIickEsAIiIiFwQCwAiIiIXxAKAiIjIBbmpnYAWWGyWOg+Dh0WN2O3dnY0AItSIrQSz2Vzn4eHRoUbs9vb2JgDD1YitBJsdUne3XKVyDv5qxieigWMBAGD4e3fGqRjeaW/+ABAbGztGxfBOfW07OmVv90lt3mrnQUT6pI9HAO4e3WqnoFsepp6vnbs7r+1AmTx7u3buiuTh3DzUToDIWemjABji16l2CrrlF2ju8ftD/Hr+Pp2db0Bvv5cecPfoUiQXZ2TyMoNFFJEw+igAQsLb1U5Bt0LCer7BB4W3KZSJ8wkJ7714CghqViAT5xQQ3KJ2CkTOTB8FwISpfCMYqIRpPd/g46fw2g5UYkrvhenYpGoFMnFO8ZN57YgE0kcBkDiNz6kHKn6q3OP3k1I5RT1QE6ZIvb5mygwWWAOVNP2k2ikQOTN9FABJ5wSqnYJuJUwO6/H7U2b4KZSJ8xk3aVivr5m9sPcigc5s7iLuUiISSB8FgF9gHLx8uA6gvwKCG+HpM7aX14z/frEV9UdwWD08vUb3+rpRE2IVyMb5GAx2RMeOUzsNImemjwIA8MAVKw6onYTuLLs7D73/HXvisuW8tv11w32HAfT+6d5oHIZpc/PEJ+Rk5l58AJIxSO00iJyZXgoA4Mb7uR+4v65cMbRPr7v5If38HmjF5TcF9Pm1dz/VIDAT5/TL36jSPZLIlejnjT902BSMSShTOw3dSJxWBP/gxD69NjwqGaPGl4tNyIkkpRVgaEBCn1+fmJqMgNBGgRk5l7CIGoyZOEXtNIicnX4KAMCA596pVDsJ3Xj+3Ub0ZYr6FCOee+u4yHScyqr3WtD3awtIkg+eeDlXXEJO5vn3CgB4qZ0GkbPTUwEAjEtMQ1JagdppaN70BQcxPPacfv3MhOQ0JE4rEpSR85h5QS4iRkzr988tuHwqwodzX3tvYieUY+qs/v3uEtGA6KsAAIx47YtuGAx2tRPRLKNbN1762IT+fEI9xQ2vftnJa9sDN3crXvrQG/2/toAkDcHf1/IRVk8kScbbG5sBeKqdCpEr0FsBAPj6J+DZt7eqnYZmvfLZdnh597z172z8AhPx2ze2OTgj5/Hqlztg6sPWv7MZMToNtz2e6cCMnMuzb2UgIGiS2mkQuQr9FQAAsOiadJy7eL/aaWjO4hv3IP2C9EGOMQNzLuK2wJ+74pbdSJs/a9Dj3PXUZMQnFzsgI+cy/9L9uGjZTLXTIHIlEoCeW8UOanRJxoFOMZ3QZLkVN8ytxIGdcULG15uUWYfx5voRkCSfQY8ly624YXYVDuxmIxYASJmTh7fWxQAY/LUFALutBpckduFYyXCHjKd3E1OK8P62MEgSu1IS/VSSpwxZFtZNVJ8zAAAgSb54b3MQks4pVDsV1aXMycOb68IdcvMHvr+2W/wxMYWLAtPOPYQ310bAUTd/ADAYw/B5DjBy3DGHjalXKXPy8H5GEG/+RMrTbwEAAAZDCP6REYHzLt+ndiqqWXxjFt5aFwPJ4NjzEgyGMLy/LQzzL3XdRy1Lbt6Nv34zCpLU96Y/feXuPhyf53ghZY7rdglccvPuU7+77PhHpAb9PgI4nYxta7fi7stnwm4zKhBPfUa3bvz+H9tx/pJ0iC3kbFj3WSYevZ7XVoxurPtsOx69Lh12u74L8r5S9voS6ZfgRwDOUgCc0tFWgHuusGHPd/GKxVRDcno+/vK5DB/fCYrF7GgrwN1LbMja4tzXduYFuXjxQ094eg1sJ8VAtTTm4peXeOJglrJxlTbnogP44/s+g9pNQeQqWAD0mw2l+bvwq5vCkL/fud5kEqcV4fl3G79v8qPGMbM2FOftwuPLh6Ewd5QK8cWZPL0Az77TjKgYta4tAHSj+OBu/HpFOPJznOsUwbRzD+Hpv5oRHpWidipEusECYMDsaKw7gH+91o4PX5+Ik036XGQUENyIZXfl4arbhsIvKBHq3Zx+yo7Guhy8/xczPv5rgn6vbWgjrrsrD1fe6ge/wInQxrUFADua6g/gw9fb8cHr8WhucPwaBCWERdRg+QOFuGx5ELx9nXvmiEgEFgAOYUN7ayEO76vDwSwDDmf7oL7WC011PpDtWsgPMBjt8A/uQEiYGfEpbUhIkTFhUhi8h4yFtp+T2tDRWoC8ffU4mGXAoawhaKz31OS1DRvWgfHJ7ZiYAkyYHAYvnzHQ9rUFADs624twOKcWB7OA/P3eqK7wQUujF2xWbazJMLrb4BdoRuSINiQkdyB+qoRxSZEweTrXLAaR0lgAEBERuSD2ASAiIiJHYwFARETkglgAEBERuSAWAERERC6IBQAREZELYgFARETkgsRuAwQAv8BmoeMTERE5o5ZGf5HDiy8AiIiISHP4CICIiMgFsQAgIiJyQSwAiIiIXBALACIiIhfEAoCIiMgFsQAgIiJyQSwAiIiIXBALACIiIhfEAoCIiMgFsQAgIiJyQSwAiIiIXBALACIiIhfEAoCIiMgFsQAgIiJyQSwAiIiIXBALACIiIhfEAoCIiMgFsQAgIiJyQSwAiIiIXBALACIiIhfEAoCIiMgFsQAgIiJyQW4iB5ckSa6srGwRGYOIiMgZRUZG+smyLIkaX2gBAACSJPmLjkFEROSEZJGD8xEAERGRC2IBQERE5IJYABAREbkgFgBEREQuiAUAERGRC2IBQERE5IJYABAREbkgFgBEREQuiAUAERGRC2IBQERE5IJYABC5LpvaCRCReoSfBUBE4siy3NTR0VHd0NDQUlNT01VbW2uvqamRKisr3SsqKjwrKyt9mpubvbu7uw0tLS0+ANDa2uprs9mMAIw/Hcvb27vdw8PD6uXlZfHz8+sICgrqCAwMtISGhlqGDRtmjY6OtkdGRhpCQ0NNvr6+Pr6+vsEGgyEMgLDDSohIHAkCDxuQJEmuqqrimwPR4Jjb2trKjxw5Up+bm2s/ePCg5+HDh/1LSkqGtbS0DFUzMZPJ1DlmzJjK+Pj4xsTExI6kpCQpNjbWz8/PL1qSpAA1cyPSu4iICFnkaYAsAIg0RJbltrq6usIDBw60ZmZmmjIzM8MKCwtHfP+JXVciIiJqUlJSKs4999zW1NRUr2HDhsUYjcYwtfMi0gsWAEROzG63V5eVlZV999131i+++CIsJydntB5v9n0VFRV1Yv78+UcvvfRSy6RJk4Z5eXmNAR8hEJ0RCwAi59JRXV2d9+WXX5rff//9mJKSkmi1E1JTUFBQ40UXXVS0ZMmSrsmTJ49yc3OLUjsnIq1gAUCkc1ar9fjevXvL3n//fe9vv/02vrOz00vtnLQqKSmpZPny5ZUXXHBBgL+/fzx+tlCRyJWwACDSIZvNdmL37t3Fr776asB3332XIPIfsbMKDAxsvP766/NvuOEGj4iIiMngriVyMSwAiHTCbrfX7t69O/+VV14JzMjI4E3fgcLDw2vvuOOOgmuvvTZkyJAh49XOh0gJLACItM1eV1eX86c//cnyj3/8Y6rVanVXOyFnFx8fX/rYY48dnzdv3gSDwRCidj5EorAAINIgm81Ws3Hjxvynn356dFlZGReuqcDd3d1644037n3wwQd9/P39E9XOh8jRWAAQaUhbW9vhVatWtbz77rsp3d3dfCatEcnJyUXPPvtsTVJSUjIAb7XzIXIEFgBE6pPr6ur2P/fcc7YPP/wwRe1k6OyCgoIan3/++YMXXXTRREmSAtXOh2gwWAAQqceam5u764EHHojMy8sbpXYy1Hc+Pj7tTz755N5ly5aNNRqNw9TOh2ggWAAQKc9eVla2e/ny5RFFRUUj1E6GBs7d3b3roYce2n3nnXeOZRti0hsWAETKsZeVle2++eabwwsKCkaqnQw5joeHh+XBBx/cc9ddd8Vx5wDpBQsAIgVUVVVl3XLLLf45OTlj1M6FxPH19W179dVX9y5YsCAVgKfa+RD1hAUAkUBdXV3lDz/8cN3HH3/MxX0uJCoq6sTq1atL4+LipoOHEZFGiS4ADKIGJtIyWZab33777YzRo0dH8ubveioqKobNnTt3xtVXX51nNpsL1M6HSA0sAMjV2Pft27dt4sSJ9ieeeGI2O/e5toyMjIQxY8aMeeeddzJkWW5VOx8iJfERALmMrq6usptuuql18+bN7BpH/yMiIqLm008/LR05cmSa2rkQAXwEQOQI3Rs3bswYO3bsMN786WyqqqrCpk+fnnbvvfdm2Wy2GrXzIRKNMwDk1Nrb2/OvuuoqY3Z29li1cyH9CAoKavziiy8KRo8ePV3tXMh1cQaAaGBsa9eu3RIXFzeGN3/qr4aGhsD09PTpjz/++C5ZlpvUzodIBM4AkNPp7u6uuvnmm+s2bNiQpHYupH9RUVEn1q1bVxsYGMjfJ1IUZwCI+qG8vHzXxIkTvXnzJ0epqKgYlpCQkPj2229vBWBVOx8iR2EBQM6iY9WqVZlpaWmpzc3N/monQ85FlmXpiSeemHXdddfl2+12LhAkp8BHAKR73d3dVUuXLm3ZtWvXeLVzIecXEhLSsGnTpmMhISGT1c6FnBsfARD1oLq6eu/EiRO9efMnpdTV1QVNmTJlYmZmZobauRANBgsA0it548aNGcnJyVM45U9K6+7udlu6dOnsZ555ZgeATrXzIRoIFgCkRx2PPPLInuuvv3623W7n7zAASJKM3/xZ7CfSmDHHce2dO4XG0JnXX399+nXXXVdkt9sb1M6FqL/45km6Yrfb66644oqy1atXn6N2LpphMNjx4c7tWHzjCKFx3E3deOzFabjj1zuExtGZTZs2Jaanp3dYLJYjaudC1B8sAEg3LBbLsblz51q2b98er3YummEw2vDJ3p0YP3mmQhGNuOM3qXhw1VaF4ulCaWnp8EmTJgW1tLQcUDsXor5iAUC60NLScjA5OXlIUVFRlNq5aMqb6zMxJn6GwlENuPG+dKx4ZLvCcTWtubnZPzExMa68vHyX2rkQ9QULANK88vLyXYmJiWMbGhoC1c5FU+5+ZgumzpytUnQJ9/wuBfMuPqhSfE3q6uoyzZw5M+XAgQPb1M6FqDcsAEjTCgsLd6anp6d0dXWZ1M7lrDy9OxSPuXBpNm59VKlp/7PxwEsfRyJ2wlGV89AUm81mXLhw4UxuEyStYwFAmpWTk7Nt3rx553R3dxvVzuWM3D3MeOgP67HyTWWnfEeOO4ZVq8cAcFM07plIhkB8tMsOb992tVPRElmWpaVLl85eu3btJrVzITobFgCkSZmZmRkXXnjhTE1u8zMYbLjhvs3Y09SAG+6dhRceVW5RotHNin9uawGkoYrF7I2HaSTe27xf0Zi+fq1Yf2QPnntnC6JiqhSN3Q833XTT/K+++mqL2nkQnYn23lzJ5W3YsGHL0qVLZ4tsgTlgi2/cg91NR/HQqnkwukVh1+bdqD4eplj8lz/ejiF+ExWL11fjEmdi+QPKbQ9sbfGFycsDF107B98WhuKrvJ0Yl1iqWPx+uO222+Z88803W9TOg+jnWACQpuzcuXPbDTfcMEftPP5HRHQF/lO4Hc/8bRpMnqMAALLcgceXK/fpf9aFOZi9KF2xeP31wHMJiB59XLF4z91t//5/uWHE6DR8kjUCH+/O1OKMwIoVK+Zs2rTpO7XzIPopFgCkGQcPHtyxZMkStRe2nc7dowvPvbMFa4sDERlz+na7rf/Zg/qaYEXy8PZtx8ufhALQ5noIAIA0FP/c1gRJEnbA2GnWfTYFnebin3zFiLhJM/FtYRDeWp+BgOBGRfLoo+uuu25uZmbmZrXzIPoBCwDShKKioh0XXHBBqqam/edfkoOd9RW46No5ALx/9t1OPHOHcp/+X/54L9zcIhSLN1B+gYm44zfK9Qf44LXqM3zVhJTZs7GlwoCH/rAbBoMyBUkfXHnllXPz8/PZP4E0gQUAqa6iomL3/Pnzp2lmwZ/JqwN/+3YDXvokER6mUWd8Td7eLNRVhyiSz4TkIqTOm65ILEe4/fF4BIYp8+n7jWenAPLJM35Pkvxxw73nIKPyIMZPLlEkn17Isiydf/7502pra/eqnQuRNt5wyWW1trYenjVrVlJ3d7f6W9oAIGXOIWyvqUHq/AU4+78PGc/cqcyncYPBjr9/awHgrkg8R5CkALyxJk+RWOZ2H+zd1vMOBL/ARHy0awReW5MBk5dZkbx6YLVa3VNTU+NOnjzJJkqkKhYApJqurq6jaWlp4Waz2VPtXGB068Lv31uHt9aNg4dpZI+vranci/ycWEXy+uVT2+Hrr71V/72JmzQTMy/IVSTWyrtHALD38ip3zDx/NjaVFcPXv1WJtHpiNpuHpKenD7NarcotmiT6GRYApApZlpvOP/98WRPtfUeOO4btNaW48Orz0ZdP2qseUGa2wsunHSseGadILMeT8Mf33RRZEFhaEIP66r71IRgakIj1JRXw9VO9CKitrQ2+4IILugC0qJ0LuSYWAKSGrptvvrmioKAgRu1EcNnyPfjigB+8h8T16fWWziPY+MVkwVmd8uRre2EwhCoSSwQf3wm4YsUeRWKteqDvi0d9fMfj7//JEZhNnx0+fDj2jjvuKAbQrXYu5HpYAJDiVq5cmbV27Vp1p7XSfc5yAAAgAElEQVQNxm689PFGPP3XqZAkvz7/3OfvVgjM6r/8Aptw4VVJisQS6dH/C4XRzSY8zrrPpqCjraDPr5+QPBMpsw4LzKjPvvjii6nvvPMOdwaQ4lgAkKK2bduW8eqrryp9fO3pQsLr8N3xQ5h/6bno378BC17/nTKFy+9X50KS/BWJJZKHaSRWPLpTkVh/fqqpH6+WsPTWWmG59NPjjz8+Oy8vjycIkqJYAJBimpubDy1btkzdmz8AmDs8cbKx/yf4lRVmo6le/JqF8OHVmHHuNOFxlHL74yPh7tElPM4Hr0+DuaOoz69vO6mdnhMAFi1aNNVsNuernQe5DhYApAibzVY3f/78MKvVqv52v7aTvrg4IQ3vvrQJQN9vTK/82ktcUj/xzN8KASgTSwlubpG49THxawHsNiOeuKmvpxLa8dnbmmqsZLFYvObNm+cty7KmOhiS82IBQEroWrZsWU1VVZUyjXP6RsKLj83H7YuKYLP13jveaj2OzV9NEp6Vr99JpM5VZpGhkm5+KFKRjnwbv5iME8d6LzayMrYhL3uM8Hz6qby8fMSDDz5YAkAz3QvJebEAIOHefPPNXRkZGQlq53FGOzcmYN4IE+qre+7Mlrm2BEq0KX7oD/s1ddSvo3iYRuLSG7IUiXXjvGjI9rN/ii7N34FbF2rrzImf+OCDD6bt2LFjq9p5kPNjAUBC1dTU7HvyySe1e4IdADTVBeHckVPw77czAJy5U9zfno8SnoebexcuuV5zn0od5sHfK9Pwqfp4OO5begxA58++Y8f6z7bgsslpsNs0fKgScM0116Sazea+72ogGgAWACSM3W5vuOCCC4Zr6oCfs7HbDfjtHbNxycRqNDee3lTG0lmmyHTxLQ9nwWjU1HNphxoakIjpC5Rpf/vd15Nw28KSH08LtHQewf1Lc/HQtXMUmckZpK6uLtPChQs9ZFnu65oGon5jAUCiyA888EBpdbVCB+Y4SnnRSMyOSMK7L23CD2++3605qkjsWx4KUiSOmh7/U5tisXZtTsA0/zFIH9aMFL9YbFojfg2HAxUWFo567bXXstXOg5wXCwASIisra9tHH32UonYeAyLLBrz42HxcnNCIxrr9ePMP0cJjTpmZD0+fvnUj1LPo2KkIi6hRNGZLo277KTz77LPpPDmQRGEBQA7X1dVVftVVV01VO49BO1YyHHOHT0LRwTMfCexIDzxXJzyGNrjjzt/y2XYfybIsXXzxxRGyLKt+dgE5HxYA5Gjyrbfe2mI2m73VTsQhlHhebPLqwMRp+m/721eLrh2lyJZAJ3Hs2LGIl19+WRNnF5BzYQFADpWTk5O5fv1617mZOcLyB/b16zwCvXN3H45zF/ft9D4CAPzhD39Ir6ur4zUjh2IBQA5jt9trr7nmGv2dXa+26+92nZv/D+5ZaVE7Bb1ZunRpAP53ayPRgLEAIId5/PHHS5ubm3W74EoVI8cdw9AA1yuaomOT4R/Un8N7XF5hYWHMmjVrdqudBzkPFgDkEBUVFbvfe++9VLXz0J2bHypTOwWVeOD6ew+pnYTe3H333aldXV2laudBzoEFADmCZdmyZeFqJ6FLCy4PUzsF1VxxyxC1U9Cbrq4u05133tmidh7kHFgA0KCtW7duZ1FR0Qi189Cd6NHH4T1knNppqCYgOAnhw6vVTkNvvv7668mVlZXiT1ckp8cCgAbFbrfX3XPPPclq56FLKx4pBaD5trQCGXDTA4VqJ6FHV199dTgALqSkQWEBQIPy4osvFp48edJXsYAR0Sew+HplTpUT7bwloWqnoLqLlzlH++PF12cpOZtRUlISvXXr1l1KxSPnxAKABqy9vT3/pZdemq5YQIPBhg93ncAzb07Fy5/s1HUzGZOXGZ3mTgBdaqeioi50dXXB5HXmExj1QJJkrHxrM555Mxkf7qxS8nfyF7/4RSIArgegAWMBQAN2//33m+12u3K/Q8++vQ3+QVMASJh3SRrWHNoFLx99npZmMXthTtRkTAvoxkPX7EPWtq2w2arUTks4u70OxXnb8fsHdmJGWCfmRE2BxeyldloD4u3bjq/zduOS6+YBMCAwZAoee2mrUuGbmpoCPv30UzYHogGTAAirWCVJkquqqlz5GafTamlpORgXF6fc/vWU2Yfw1vpxANxP+3qnuQhXTPXGsZIoxXIRRZJkTJhSgkuuq8Kci7wQPnxcvzoEWi3lSB4aIyy/MQll+Cx7ZL9+xm6vR0VZMTavseKbf0WhMFf8uQpKiIw5jn/va4WXz4SffceCa2ccx6G9o5VIw9PTs6OkpKTFaDQOUyIeKSsiIkIWeZy6m6iBybndc889dsWC+fq14o1v/PDzmz8AeHqNxVe5jXjsxmz85xN9L0aUZQl52WOQlz0Gz98PGIw2JM84jIVX1WHaXA9EjIiGm1uk2mn2wA5LZxmOFZ/Azk12fPtRBPL3x0KWg9VOzKEuvHovnn9nFCTD8DN814S3NtiRHm5Bl8UkOpXOzk7vv/3tb3vvuOMOFgDUb5wBoH6rq6vbn5iYOFmxgF/kbMeo8TN6eZWM7eu34p4labB2eSiSlxpCwusw4/wyzFrYgbGJJoRGBMPTKxqASdEZAFluQXtrBSrLm5CXZcOWb/2xd2ss2k46795+D5MFr67ZhXPmzEJvuze2r8/AHRfPViItd3f3rtLS0jo3bReHNACiZwBYAFC/LVu27NDmzZsTFAl28bLdePbtc/r8+o62fCxL98aRw67Tl8BgtGHE6EpEj25CxjfiDmIaMrQNKbNKkJcdgdoTrrWDYezEI3g/wwpPn7g+/oQdN59XjL0ZivR5ePrpp7fedttts5SIRcphAUCaUldXl52YmKjMVLundzt21DXCze1MU609MeO9lw/i/x6dJiQvci23P7EFdz6ZAsCnXz/X3noYM0LjoMBCWZPJ1HnkyJEWo9Houp0lnZDoAoC7AKhfnnjiCeUKupc+2juAmz8AeOHG+6bhq7ydCA6rd3he5BrCh1djXfEe3PnkHPT35g8APr4TcNfT2x2e1xlYLBbP1atXFygRi5wHZwCoz8xmc1FsbOwYkRXpjyZMKcGHO0fgTAv/+kOWm/HWHw/ild+kOyYxcnqSJOOWR3fg7t9OgCQFDGosWW7C3BF2NNYIb3jk7e3dXlJS0iUNNmfSDM4AkGa8+OKLdYrc/A0GO/72rRmDvfkDgCT5Y8Uj6dhYvhdRMc6/z54GZ1TcUWypyME9T88Y9M0fACQpAK99edgBmfWqo6PD57vvvstVIhY5BxYA1Cd2u736r3/9qzLP1H/51HYMDXBsj4HQYVPxTYEvHly1FQaDclsYSR88TBb88f0t+OJAOAKCHbvDZcLkmUg7V5Gjjx955JGxcO3uktQPLACoTz766KNCq9U6+E/kvTF5tWPFw2OEjC1JvrjxvlnYUVeEGefxLHo65bKbdmJnQw3OXzoHgIi9+xL+uFqRFsGVlZXDioqKnOOsDBKOBQD1hfmZZ54Rt73sp556bS8MxnChMbyHxOH1r+Kx5uAeRIyoFRqLtCsprQBbKw/g6TfS4O4eLTTW0MCJWHjVXqExvvfkk0/2vXskuTQWANSrgoKCfc3Nzf7CAw0NaMGia5QpNAAJMWOnYW2RD/74rwx4mHi0qqsICG3EWxu3YvWWMfAPVur3DXjqNR9IkvCZgIyMjASz2cwdAdQrFgDUq5UrVyrT3e337+VAksQXGqfzwflLZmPB5QcVjktqefGDQ0hJnwXAqGhc7yHjceXtu5UI9e6779YpEYf0jQUA9airq6t08+bNicIDhUXWYOb5KcLjnE3ODvZSdxXZ29TbmvzwH8JgdLOJDvPyyy9PkmVZnydlkmJYAFCPPvroo2OKbP37vw8KAXgLj3MmstyKqmMRqsQm5e3YqN7hRB6mkbjpoV2iw5w8edI3Ly8vR3Qc0jcWANSTrlWrVon/9B8cVofEc9Rr29vWchRKFDmkDYeyRgKwqhb/F78KU2ItwAsvvND/7oXkUlgA0FlVVFTsb2hoCBQe6PE/5QHwFB7nbI4faVItNimvy+IJi/moavE9PEfjgqX7RIdZv359ktVqPS46DukXCwA6q3feeUf4s0p4mCyYd2m88Dg9yc1iYyBXc7ysRtX4D/9ReAhZlqWNGzceER6IdIsFAJ2NefXq1eKn/3/x6ywYDCHC4/Qke6uvqvFJebk7u1WNHxyejISpwm/OL7zwgtj+BqRrLADojI4ePXqgtbVV7PY/SZJx/T3qr77P2RmpdgqksB0b1S/6fv2K8LMpDh8+PMpsNpeIjkP6xAKAzujvf/+7+NalC6/KhskzVnicnshyM2qqeIa6q8nKjFE7BUxITlHiuOqNGzdWiI5B+sQCgM6k44MPPhA//X/v78SvMeiNua1SeAwFVnw7HdHXrKk2ELKs9uJPT9z12zzRQV555ZXhomOQPrEAoP9RWVl5qKOjQ+wWooCQBgyLduypawNRd6JFeIzsthqsLc7GPb/LRFTMCeHx9Cok/ARuvH8TvszNQFZLufB47a3qHw990bXCHz8dOnQotqurq1R0HNIfN7UTIO1Zs2ZNp/Agtz2aB2CW8Di9KSsUe3RqWEQN3NzCEREdjhWPACseASzmEuzdXonP3/LF1rVx6OxQpwGS2rx82jHrgkJcfksrpkyPhMlrNID/rgkZMrQNbSfFrUOprWzGkKHChu8TD8/RSEorwIGdcSLD7Nix4/icOXNGiYxB+sMCgP7HP//5z5HCgyxerl43tp8qyBX7byAptRLA6WsMTF6jMePc0ZhxLgDYYOk8guKDVdj8tQHrP43GsRLnnLINi6xF2rlHseDyDiSdE4ihAeMATDnr60fFVSF3z1hh+ZTkWzFqvLDh++yu39bg1vOFFgDvvvuu35w5c0SGIB1iAUCn6erqOnLkyBGxC/NGx5fCx3eC0Bh9dXif2J0OyTNbe3mFESbPWCSkxCIhBbjnacBmq0JF2VEcyrIge5sX9m6NwNGSKN10KzQYbRg57jimzqrG1JmdiE/2RMSImO+PeQ7t8zjjkpqQu0dcnoezPXDe5eLG76uUWfFwc+9Gt1XY+/GmTZviAbQA4FHB9CMWAHSaPXv2VAAQWwDcu/IYAG1MRxbl9v2GNBDxKf1fZ2M0RmDE6AiMGA0suubU12S5Hea2cpQXNaIgx46CgyYUHfRDWUEYmurFd2v8OUmSERpRi9gJtRid0Iqx8V0YP8kdkSOD4D0kBsAP/w3c+EliH0Xl7dPGzdBgCMaiq/fgy9XC2mF3d3e7l5WVHR45cmSaqBikPywA6DSrV68Wuz9akmTMOG+M0Bh9Z0F1RbjQCCNGO+YmI0k+8PaNx4RkYELy6d+T5TZYOk+g5FA1rp2Z7pB4ZxIWWYOPdldiqH8g3NyH4dSjDXFbKMfEi53xKMpVvwfFD1Y80o0vVwsN8fXXX3fffffdQmOQvnAXAP2UdcOGDUKfRSJhajHc3LTReKfLUgm7Xey/AV9/8TcZSRoCT68xGJcodu3A0IAOBIZMgZt7DACT0FgAEDlS7OLIpvpAyHKz0Bh9FT1mItw9hB5Q9Nlnn7ErIJ2GBQD9qLW1tchsNot9073qdvW3Xv2guaFB6PhePh0wGLSx2FGP/ALEX7uONm1sy5QkX8y6QGhPgMLCwhE2m00bf17SBBYA9KOcnBzhXckwe5Hyz6vPprZS7DPmmLFVAPSxcE+L3E0RMBjFNos62XRS6Pj9cdUdwntSFBcXsx8A/YgFAP3om2++ETut6xfYDL9Abaz+B4DKY2JPARyXoHanOb3zQMRwsaf21VWL7QPRH8kzRogOsW7dOp58ST9iAUA/Wr9+vdj9/5dcfxhaWnh6/IjY3/+xiWah47uCMQm1QsevrlC/HfUP3E0xGDW+XGSItWvXil30SrrCAoAAAF1dXUdPnDgh9lCcxddrqyf+sSJPoeOPTtDWn1eP4qf21kdhcKrKtfUeeO0dR0UOn5ubGyvLsnYee5CqtPXLT6o5evSo+ENxYieoe/Lfzx0rE9sEKCpG/Ep5Zzc2Qewn9GMl2vo7mnOJ0DM47Ha7ob6+nscDEwAWAPS9AwcOiH0WGhVT9X0nOO2oOCJ2QaJ/sPpnzutd+HCj0PGPCy4C+yskfAwMBqHP6fft28cZAALAAoC+t2XLFrFvhLMWCZ3aHIBu1NeK3Wbm6R0gdHxXEBjmJXT8qnJ/oeP3lyT5IW6S0JX627Zt09asB6mGBQABAHbu3BklNMDsRdpZbQ0ANlsd7DZxny4lSYabW5Cw8V3F0KFiC9OaymAA2lqrce5lQvfqZ2ZmaqcDIqmKBQBBluXGqqoqsdPzEyZr69NwZ4fYDnD+QU1Qolues/PwEvt702UxQWuL4mYvFNo7ori4OFqW5XaRMUgfWAAQmpqajgkN4ObeDb/A0UJj9Je5Xewb4LDoRqHjuwqDIVh4MyCbrU3o+P0VM1bobJzdbje0tbWViYxB+sACgFBcXCz2E1DitBIAYlsM91dri9hHEtGx2vpUqV9GBIWIbdlss2qrX4O7aQSCwoT+mY8ePaqNMxBIVSwACPn5+WKfgU6bK/YNfCBam7qFjh8Zo62bip6FRIgtprosFqHj95+EabPKRQbIz8/XTgMkUg0LAEJeXp7YhjjxyUJPORuQpgaxLVHDosQWGK7EP0hsMWW1aq0AACZNF/pYYt++fVyfQiwACMjPzxe70GrUOLEFxkA01Ig9pCdkmLZWlutZQLDYG3RHu/YK1PipQt+bc3JyuEOFWAAQUFJSInYHQPAw7ZwA+IP6WrG/+8Gh/LflKIEhYtdrmNu1N1szInaoyOELCgqioLXtj6Q4vkm5OFmWG1taWsS92UiSDE+vSGHjD1TdCXeh4/sFiR3flQSEiH1e3XFSe8/Dh/oL3QnQ2dnpZbfbeVqli2MB4OI6OjrEHrcaFlUDSRLa33xA6qs9hI4/NIDPWB0lMEjseo3Wk9r7JCwZgxAQKnQrqcViEXvSImkeCwAXd/LkSbF7oMcnVQsdf6Aaa8VuS/T21ta2Rz3zCxZ7g25r0V4BAAAJyRUih29oaOBWVRcnQeBzIEmS5KqqKrGLrWhQ8vPzt8+bN2+GsADuHl3wHtIhbPyBam3xFdoK2NevVXgDm5+z24xobRF3AJHBaIOvn9jjec+k02yCxSzuTACTZyc8vTuFjT9QHW3esHYJm6las2bN1pSUlFmixqfBi4iIkGVZFnYPdRM1MOlDTU2N2AVQ1i4PtDSKnW7XIpE3YrXYbUa0NGrr8BxHsHR6wtKpvZ0qglVXV4t9tEKax0cALq6urk6b059EJNSJEyf4/u/i+Avg4qqqqsSet05EmnTixAnOALs4FgAurqKiwvWm54kIlZWVLvfYg07HAsDFNTQ0cLsakQuqra0Vt7CSdIEFgItrb2/nNCCRC2ptbWXx7+JYALi4jo4OFgBELqitrY2PAFwcCwAX19nZyZa1RC6IBQCxAHBxLACIXFN7ezu7Vbo4FgAurqOjg7sAiFyQzWbj4z8XxwLAxVmtVs4AELkgu93O938Xx18AFydJEjsBErkgkT3mSR9YALg4Nzc37Z2FTkTCsQAgFgAujgUAkWv6fvaPM4AujAWAi3N3d2cBQOSCPDw8LDh1JDy5KBYALo4zAESuydPT06J2DqQuFgAujjMARK7Jy8uLBYCLYwHg4ry8vKxq50BEyjOZTPy37+JYALi4sLAws9o5EJHyAgICOtTOgdTFAsDFhYWFdaqdAxEpLyQkhAWAi2MB4OLCwsK61c6BiJTH4p9YALi48PBwLgIkckGhoaFcA+DiWAC4uODgYO4DJnJBYWFhLP5dHE+DcnFBQUFii8D0hbn4y+fRQmMMxPWzapG7Z6yw8bdWHoBf0Ahh459JR9sJpAWPFzb+qLij+DzHT9j4Z/PNBzl4/KY5wsb/7WsZuOzmJGHjD9SdlxxH5vqJooaPjtbeP0tSFgsAFxcaGuolNEDp4WBIkr/QGAMRMqxM6Ph22ab4n9vDo1no+EY3uyp/l11msbNUIZHQ5O9owQGh63OioqJ4EqiL4yMAFxcQEBAgNEDVsWEA2oXGGIjgYWKboLQ2cYGVozQ2iH2fGuqnvcdgsr0R9TXBIkMEBwf7iByftI8FgIszmUzhQgPIsoROc6XQGAMRMkzsAqjGBu6ucJSmOqPQ8b2Hih1/IFpbjosO4e3trb1ZD1IUCwDyCQwMbBQaoa5K7PgDERxqFzp+Q7XY8V1JQ62H0PG9fLT3KLS8+KTI4Q0Gg93Dw0Ns8U+axwKAMGrUqFqhAUoLtDcdHhQu9hjUuirtTSvrVVO9p9DxvX209yw8b6/QAnL48OEnAJhExiDtYwFAiIuLaxEa4FC29j5hBQje/XCiQns3Fb1qbhBbAHh4iJ1hGIicHUNEDj9x4kSxRT/pAgsAwuTJk8V+Qt+1MUTo+APhFyT2Bn38iNjdFa6kulLsQlUPk9gCo/9k7MoYKTJAQkJCm8jxSR9YABAmT54sdhHUwb2xkGVt7QTw8RU7/VlRpvx+eedkRUu92ALA4OYtdPz+6rKUoqk2UGSIxMRErlEhFgAEREdHBwkNYLe5obmxWGiM/vL2EfumX3VM7DV1FTZbHex2se9TRqOv0PH7q+RwlegQ8fHxQh8xkD6wACD4+PjEGI1GsW1BD+4R26Smvzy9hX7CQmuzHwCetjZYnR1if288vTsgSdoqADK+Fr6ANDg4OEp0DNI+FgAEAF6jR48Wu+94y1faeiZuMATDzV1sLwCrtV7o+K7gZJPYZ9XDhmvv72j9v4XenIOCghoNBkOYyBikDywACACQmppaLTTAlq9jhY7ffwaEDhP75m9u09ashx411Ijt2Bg5Ult/R7KtEaX5Qs+QSEtLOypyfNIPFgAEAEhPTxe7E6C+Jhjd3cK7m/VL5CixDYoa67S18FGPKo+JXawWGaOtxzTVlcWQZaGPAGbPni20yRDpBwsAAgCkpKQMFR6kYH+58Bj9ETNG7PTy8dIuoeO7gsJcsT0kYkZr6+9o3adiZzwApKenswEQAWABQN8LCQkZI3wh4CdvauuNZ8RosW+2Rw6zG+BgFR4Qu0AvapSWtsPJ+PD1MaKDDB8+PEZ0DNIHFgAEAJAkyXfixImlQoOs/SQegHbaAkfHin3zLzigrf3lelR8KFTo+KER2ulS2dle+P3pmcJERETUGAwGngFAAFgA0E9ceOGFYhcCmtt9UF+dJzRGf4QPF/vmX3yIvQAGpxO1lWILgKBw7XQBzNxwQnSI8847r0x0DNIPFgD0o3PPPVf8lPWGz7TTgjQ0Uuwn9GMlwwCIPXTImXVZqoQ3ARrqL37tS1998LrYYgfA4sWLtbXmgVTFAoB+FBsbO1x4kA9eF9rjvF+GBgQLHd/S6Qm7jYeuDFRzo9hdGpIkw9MrUmiMvrLb65G9dbzoMJMmTdLGn5c0gQUA/cjDw2NEbGys2K165cXRsJhLhMboKze3COHNgJqbRE7rWmC1lKO+Jht5e7fhg9ePCYwF1J3wx6Yvt6A4bztaGnPR3V0FoFtYvBPlYrfohUbUAvARGqOvDmfni57tCAsLqzGZTKNExiB90c4CGNKEa665pmzlypViZwL+83ElFt84WmiMvnHD8FFHUVYorvFKRclJBA5yokGWm9DUcBSlBS3Yt82AnB3+KM4LRW1VKGQ5BkCMAzLtXXNDAO6/cs5pXzO6dSMiuhKxE+oxZUYLpswAYsb6Y6h/DCANbnq9OE/s45Pxk6sBaKMj3msrhR8etWTJkiPQyp+XNIEFAJ3m0ksvNa1cuVJskFefGYfFN9oAiD2FsC/iEuuEFgAHs4DE1H78gHwSNVWFyMpox86NPsjeFvX9ynCxJ+INlK3bDcdLI3G8NBJbvj79e8NjK5A8swqp8zswddYQhISP61ff/cJcsdtGE6ZqoyFOt7UC29dNFB3miiuu0NKWR9IAFgB0msjIyHh3d3er1Wp1FxakpiIc9TX7EBw2RViMvhqf3IH/fCJu/P07hmDZ3Wf/vt1ej9qqMuza1IH1/w7Erk1x6LamiEtIQcePROH4kSh88d6p/28w2jAu8QgWXF6F2YsMGBU3Ckbj2be9FeSILXriJonte9FXm9eUQJaF9v83GAz2cePGxYmMQfrDAoBOI0nSkDlz5uRs2LBhktBA77/SifueFRqiT8YKPhc9NyviZ1+R0d6aj+++qsU//xKJvOwxAMQuRtQKu82I/P2xyN8fi1d+c+prE1OKcO2dVZhzUSh8fMcD+O9OlNJCoXviMWqcFrYAynj1t8LPyZg1a9Zhg8GQIDoO6QsLAPofN9xwQ/OGDRvEBvnXa5Nw78o2SJK655KPGC32JlB9PByy3ITmhhP45sMmrP7TaJw4NgHABKFx9eJg1lj8avlYAEBQ2AksvTUfS27xQUhYDFqbxT6vDgoXeyR0X7Q05KKsKEl0mOXLl2vv1ENSHQsA+h+zZs2KER6ks8MbhQcyETdppvBYPQkKFX8TmObvBUsnb/i9aagZhjdWDsMbKwGTp9iOkVrZAvjR3xRZhzBr1qyfz0QRcRsg/S8PD4+Y5OTkQuGBfv+g+p3yPL2iYDCIfQxg6dTCVLO+iL5mUSOrIEnqbgGU7Y148w/JosPExcWVeXl5jRUdh/SHBQCd0d133y28LSn2ZY5HU0OO8Dg988aIMRUq50BKmzZH/b/zjG9y0dkh/LyIBx544KjoGKRPLADojObNmyd8YRIA4OXH1W9NOilN7BkIpD1p55pVzqALz94jvPMfAJx33nniO3ySLrEAoDNyd3cfPnXq1ALhgb54LwWWTrGnEPYmZbbYjnOkPROSvVSNX5i7BzVVwpvyTJo0qdhkMilTzJPusACgs7r33ntrhAeRZQkfvK7udOyEyR6qxiflhUepuyhu5V3CD/4BgIcffrhKiTikTxIEnnvbaa4AABzPSURBVFYmSZJcVVUl/oQ5EsJut9fGxMQECG0KBACe3h3YXd8JyajOtixzRxHOCeAiKVcxNKAFmdVD8dOeA0pqrNuHOVHCm2C5ubl1Hz16tMFgMLD9r05FRETIsiwL+z3lDACdlcFgCF26dOl+4YE6O7zxzUe5wuOcjZf3CBjdxB1qQ9oyeXo51Lr5A8Dv7lQk9pVXXrmfN3/qCQsA6tH999+vTKDf3ZUCu12to3NNGBUn9hRE0o7p5zarFru+Zh82fTlZiVD3338/e/9Tj1gAUI+ioqKmREREiF8LYG73wfuviF90eGYyomPVuymQsqJVe9oj49EbxB5w9L3w8PDaqCjxjxlI31gAUG/cHn/88XxFIr386zRYrWLPtP85c3sh7lx8UKlPZaQBd16cjlee2q74jFNF+R5kbYlXItQzzzyTD0Ds2h3SPRYA1KtLL7001mg0ij85rdvqjld/q8xUvCw34f2/bEdayGhs+0+iIjFJG+x2A978/QykhXhj45ebAIhtO/x9VDx6vSKdL93d3bsWLVrEk/+oVywAqFdubm7Db7jhhixFgr37Yho620U+CrCjOG875o6w4w8PzoDdZhQYi7TM3DYED1w5HwvHNqI4bzsE7ohCyeGdOLhntLDxf+LWW2/dy8V/1BfcBkh90tLSciguLk6Z40TnX7ofL308CY5eqW3uKMIdF9uwL1ORDmykM+cv2Yfn3guBu7ujO+d1YNH4JhwvVeTwoaKiokO+vr48+tcJcBsgaYKfn1/CnDlzDioSbNOXk1FyeIcDR7Ri29oMzAyL4c2fzmrdZ1MwPSQY6z7LAGB12Lhf/3OPUjf/WbNm8eZPfcYZAOqzo0eP7kpNTU1VJFhAaCO2lGPQzYFamw9hxfleyM9hO1Tqu8RpRfjrt93w8R3cMc7d1nKkBg1Dl0WR1f/79+/PCg8PT1EiFonHGQDSjBEjRqTExsYqs0ivqTYQb76QN4gROvHhGxlIHzaBN3/qt9w9YzEzfCzWrN4CYOAHVj1yXZNSN//k5OSi8PDwqUrEIufAGQDqlwMHDmy74IIL0hUJZjDYsbUqD0MDJvbr5yydpVhxnhUHdo8TlBm5kikz8/H3b73gborp18+V5u/A4knTxST1vzIzM3fGxsamKRWPxOMMAGlKUlJSqmKzAHa7Abcv8kR/nsfm7tmGmeHDXO7m7x/UhPjkYqExPL07EJ9cDJOnEtvmtGNf5njMHBaCw/u39flnZLkVt1+o2MzThAkTSmNjY6cpFY+cg5vaCZDuuL/xxhtHFyxYoMwZ43nZY/D1v7bgomvn9PxC+SRWPViIf76qzOyEWoLD6nHOvHLMOK8N4ya6Y1i0H3x8IyAZAmG1tCB5qLjYw0fV4IMdYwDI6O6uwsmmGlSUtiJvr4zMDQHYv30U2k4OEZeAisztPrg6NR1X/2IHfvXyeEhSQI+vf+13B1BTNVOh7PDmm2/WABilVDxyDnwEQANhmzt37vGCgoIYRaIZDHZ8V5GLgKBJZ/x+R2seLp8SiKpjwxTJRykeJgumLyjAhVc1ISnVC6GRw2E0nv0YW6ulHMlDY4TlMyahDJ9lj+zhFXZ0WY7ixNETyNpqxdpPg5G9bRxs3c71QSMqpgqf7G2Bj++Zd5RUlO/CheOUWSwLYMqUKfnffPPNOHBG1+mIfgTAAoAGpKioaPvs2bNnKBYwfPgJrCsyQTKcviugNH8XrkqbBIvZU7FcRDG6dSNtXj4uuq4BqfP8EBgSB8Crzz+vfgHwv2S5DXXVBdi+rh1ffxCM7G1xTtF8ycNkxr+278XYiafPONnt9ZgfY0BDjWJHW+fk5GSHhYUlKxWPlMM1AKRJY8eOTU1KSipRLGD18WF49p6in3zFhs/f2YbFk1J1ffM3eZqxePlufLhzC7Jbm/DaVxNx4VVzEBgyGf25+WuVJA1B6LCpuGz5bLy1Lh77Wk/ik6yduPoX2fAeot+1BF0WL1wxNR3vvbwBwA9HScv49S1Hlbz5L1iw4ABv/jRQnAGgAauvr8+ZOHHimaflRflX5jbET03AI8vKsO4z/Z52ZvIy4/N9BxA1aiIAH4eMqcUZgJ614/iRg7h8yiRYOvVbxC1cmo3fr45Fzs4DuHHubKXCGgwGe1FRUYGPj8/gehWQZnEGgDQrODh40jXXXLNH0aA3n5eMxUmtur75A4DF7IWg8EA46uavTz4ICvPT9c0fAP7zSTIWJ53E7YsUbcDz4IMP7uTNnwaDBQANyqpVq8I9PDwsigXs7PBGWWG0YvFE2vxlldopqO7bD5U9kleUssJodHZ4KxXOx8en/b777lPkcCFyXiwAaFDc3d2jn3766V1q56FLf3s+Ru0UVGbH31e5Vr8GB3n99dezeOIfDRYLABq05cuXTwoJCWlQOw/dKSuMQUebyKOPta2xPhcnjoWrnYbexMfHly5YsECxDoPkvFgAkCP4ffzxx657IxuMjZ9Xq52Caj57q1XtFPRGkiT5o48+agHgoXYupH8sAMgh4uLiZixevDhb7Tx0581VsRC4E0fDLPjHy/0744Hw8MMPZwYFBU1WOw9yDiwAyGH+/Oc/h/v4+LSrnYeulBcPR0vjQbXTUNzRomy0NPqrnYaeBAUFNd57773xaudBzoMFADmMm5tb5Ntvv71X7Tx0572XXG8q/MVfKbZi3lmsWbOm0GAwKNZkiJwfCwByqFmzZs1MTU3NVzsPXVn95ymQ5Wa101CM1XoUW75JUjsNPbntttt2jho1ikf9kkOxACBHM3744Ycenp6eZrUTcQi/wGZIkthn9BazF/bvyBUaQ0u+eLcMArubAQAkSYZfoFMUVSEhIbVPPfXUGLXzIOfDAoAczmQyxf7rX//KUjuPQbvkuixkVHRixoJDwmP98WHnOsnw7Cx49XfiF//NWHAIGZVWXPUL3feo+Prrr0sNBkOw2nmQ82EBQEKkpaWlL1myRJ/rAfwC6/HJnk1Y+VYKDMZw3PZEo/CYedlj0HYyT3gctZXm70VjTZDwOLc82gSDIQRP/CkVX+XtQmCYLvtUPPbYY9uio6MVO1qYXAsLABJFeuWVV2LCwsLq1E6kX669cye2VkgYlzT/x68lpSTAzd0qPPbrz5wUHkNtz9wlfhGbwWDH5LT/dhgcMToV3x014p7fbRMe24EmTpx45N577+VJfyQMCwASxmAwBH/zzTdlkuhn6I4QENyIbwt347EX0yAZT/+EKhmDsPDKHOE5/PO1FFitx4THUUtj3T7syxwvPM7ciw/AYDy9Ta4k+WPFI+n4tnA3AoLFz+gMkqenp/nLL7+UAXC3BAnDAoD+v727j4q6zvcA/p7fADIDIwgNzwikAgqGioKCYlrKtdZrN1ftHDRbsdayFrdb9nDMe1eva1m3u9p2T7eT7qqVqSfUfFi3EoVEHBBMUUEBhQIEeZABeRgYZu4fk6WmOCi/329meL/+K37M59056e8z30dRBQYGxr3zzjtZcufo0ZiJRThU0Yqg0Pg7PvO7VzpFz2HqdsKOj8pFryOXtWnS1Hn2tWt3/FlQaDwyfujAhEfFX9dxH3bv3n1CpVLxsh8SFRsAEt2CBQsSk5OTxf8GfS/++OfD+PuhIXByCu7xuSHDR0Pl1iZ6nvUrYwGTXc5X96i97QK+Thf/CucBrh0YPia6x2eUygD83/5wLH/XJhvTpUuXZsfExEySOwc5PjYAJAWnTZs2BQUFBV2WO8jP1JpW7C08ht/9+xRYc666QqHGbxeL38R0tLkhY5/jnQz41/+sh1mCmaCUF/OhUAyy4kkXzP9DEg6c10HjaTNrL2JjYy+sWLGCR/2SJNgAkCQEQXggIyOj0cXFRfyh9LsZPPRHZFXVIiS8dzeqLfiDs0iJbrbqxZEwm+88jG1vugzl+PzDOElqLXzZrVfPB4XG4/AP9Rg89EeREllt0KBBjbt373YF5/1JImwASDIajSYqPT1d/n3ZVeX+yM2sQG8v4fELGoOgUPFHMRprvfHNLvvcQnk7//3GZXQbnUSvExZRjkHevT1h0Izvj1ejukLWcxiUSmV3ZmZmuZOT02A5c1D/wgaAJBUbG5u0evVqeedeu41OeGHmFPzp+RyYzfpe/KYSy9aeFy3XjVY+NxYmk31tobydtmtF2Pa/0uxjf/XdCgDWnzBoNrdgTdoJLJ4+EcYu8RuUHuzYseOoVqsVf40E0Q3YAJDkFi9ePDElJUX+kwK/3JSAfxvdiI72Eqt/55FZI+DkbBQxlUVbizt2fHxO9Dpi+9OSVtGP/QUAZ5dOJEwbYfXzbdeKMWtkE7Z/NE7EVFZ58803DyckJEyWOwf1P2wASA7Ce++9F5WQkFAsdxBcLArD5MAAlBQetep5pdIHs1OlGZ5/99XxMBrt91yApvrT+MfOsZLUWvhyHgRBa8WTZpw+noXJgaEoL+l554cEZs+enffSSy9xxT/Jgg0AyUW9c+fOQYMHD66WOwjaW90we+xE/Dktx6oteMv+a6AEqYCuzgH4y4pKSWr1vW4smyfNokkAeHb53c/KN5nqsGLxScyfnARDh6sEqXoUExNT/MEHH0QAkHX6gfovNgAkG0EQfI8cOdLm6elpG7e2ffHRBDwSZkRtta7H59w0IzDlN9Kca7DlfxJQVyP/dElvncg6KsmpfwCQPLsAKreIHp+pKD2OKcFO+GqrTcyzh4WFVR44cMBToVBI00wS3QYbAJKVSqUampeXV6XRaGxj21tdjS+mPxiHT9Z9B6D1js+99aH46wCuezbZB0CHZPXul8l0BWlzpNvL/tr7d97NYTbrseGtbMyMGo+r9dacDyA6rVbbcOTIkS5BEPzkzkL9GxsAkp27u3tUbm5uuVqtbpc7CwDAbFZgw1uT8K/Rjaituv237wf8xuKhOOsXD96Pi8Uh+OeXPY9K2JJ1r5ShpUmab7YjxpTiAb/bfas3o+RsNh4N7cQn6xIlyWKFgQMHNh8/frzOxcUlTO4sRGwAyCZ4enpGHzt2rNgmDgq6rrwkGNMeHIf/WJIDo7HqVz9f8UGNZFlWLIpHp+GSZPXuVW1VHj7/cIJk9db+/Qpu3frXZSjHy08VYvaYRNTVWLMwUBKurq7tOp3uklqtjpQ7CxHABoBsiK+v7+isrKwCJycn6YbXrbHrbxOQoPVAxlffAPilQYkcFQcff2n26hs6XPHsv3TcVN/WmLsbMH9iiGT1ho8uRVjEjWcMtOEfO7IxQRuIb3c9JFkOK7i6unbodLpznp6evT2oiEg0bADIpoSEhIw/duzY9zY1EgAAHW3uWDZnGubF/4jKch0spwgOwOqN0u3VP3lsONI35UhWr3fMWPn7ctRW+0hW8b3P6mH5O6wbxd8fxYzwJry2IBGdBul2H1hBpVK16XS6cz4+PrFyZyG6ERsAsjnBwcFjdTrdaVdXV9tYE3Cjou+H4LGIeKROK0JNZR4mPDIBD0ZWSFb/Ty8k4Uq17e0KOJ6RhT1bpXvBRcWWIHhIHBrrCjB/Uhnmxk9EVUWAZPWt9NPL/7yPj49N7D4guhEbALJJfn5+YwsKCko0Gs2dV+LLKS9rBKYPGYc/zjmHlKXlktU1mxVISRwMk6lWspp309pyDi8+Ic1xv9fN+301Xph1Bg8HjcHp3HBJa1tJrVa3njhxolir1fJ2P7JJCvT2QpTefLhCYa6urhb/GFByWHq9vjA+Pn6wXq/3kDuLTRmdeA6bM0IA/HL7XZehHLEDQ0WrOSz6Er7Mv3n1erexEslDXXDlsnRD/3bAw8NDr9PpKjw8PGxqLQLZl4CAALNZxKO0OQJANs3Dw2NkQUFBbUBAgHQr7u3ByewReOvZQgDdsmUwm1swP8nAl//NgoKCLp88ebKOL3+ydWwAyOap1erw3NxcRWxsrDT77u3Fni3jsfNj6+4w6HsGLPttGc7mD5Gpvk2Kjo4uPX78uEmlUg2VOwvR3bABILugVCp99+7dGzB37lzbWwAnp9UvTcbuzZkSV23D6wsLcXjfKInr2rTJkyef+frrr72USmWg3FmIrMEGgOyGQqFwW79+/ajly5d/J3cWm7LyucnYvP4wzDCJXsts1uOFmWU48IU0t/zZidTU1JwvvvhiqEKh8JI7C5G1uAiQ7FJWVlZmSkpKotFo5E1q1yXPLsA/vxRvu5lvQC18AvUozLPJVfdyEATBtGnTpqzk5OTJuPVEQqL7JPYiQDYAZLeamppOTZkyxb+mpoaL0EhyGo3mWkZGxtmgoKB4ubOQY+IuAKI78PT0jMnPzzclJSWdkTsL9S8RERHlhYWFtXz5kz1jA0B2TRAEv+3btw97/fXXuS6AJDF//nzd4cOHvQcMGMAdEGTXOAVADqO8vPz4jBkzIpuamjzlzkKOx8XFxbBt2zZdQkLCJHC+nyTAKQAiK4WGho4vLCxsmzZt2im5s5BjGTFixMXi4uLyhISEJPDlTw6CDQA5FCcnp4AtW7ZEb926NdPZ2blL7jxk/9LS0rIPHTrkq1KpIuTOQtSXOAVADkuv1xfOmjVLc/78+VC5s5D98fX1rduzZ09ZSEiItBcdEf2EUwBE98jDw2PkkSNH/D7++ONMZ2fnTrnzkP1ITU3NKSgoUPLlT46MIwDUL7S3t19ISUkx5uTkjJA7C9kuf3//2q+++qqc2/vIFnAEgKgPqFSq8PT09PDPPvssU6VStcmdh2yLIAimFStWZOXn56v58qf+gg0A9SdOU6dOnVxaWtqclpaWrVAoRBv9Ivsxfvz4onPnzp1bunRpkkKh0Midh0gqnAKgfqulpeXsokWLcPTo0Si5s5D0/P39azdt2nRh1KhRieCXIbJBnAIgEolGo4nauXPn8MOHD2f7+vrWyZ2HpOHs7Ny1Zs2arPz8fPWoUaMmgX8PUj/F//GpvxMiIyMTT548qd66dWumh4eHXu5AJA5BEEypqak5paWl1YsWLeJwP/V7nAIguoHZbL66b9++06+88sqY5uZmviAcgEKhMM+bN+/EmjVrPNRqNa8yJrvB64CJZGAymeo3b958dtWqVXEdHR0qufPQvZkzZ07e22+/rVGr1ZFyZyHqLTYARDIymUyNGRkZhcuXL4+8fPmyr9x56O4EQTDNnTs3f9WqVWqNRsMFnmS32AAQ2QZDcXHxieeffz6guLg4TO4w9Gtqtbo1LS2tYMmSJcEuLi6hcuchul9sAIhsS/elS5dyV69erTp48GCMmH84yTrBwcHVq1evvjB9+vSHFAqFl9x5iPoKGwAiG9XZ2Vmenp5esXbt2qgrV648IHee/kQQBNPjjz/+/RtvvGEICwsbB8BJ7kxEfY0NAJHt6ywrK8tft27dgP3798d0d3cr5Q7kqMLCwipXrlxZOn369EhBEPzkzkMkJjYARHbEbDY3nj9/vuj9999X7du3bzSnCO6fl5dX44IFC4pSU1NVWq12FHh+CfUTbACI7JTRaKz+7rvvSjZs2OCj0+ki2QxYz8vLq/G55547O3/+fHdvb++HAHBUhfodNgBEDsBkMjVUVFRc2L59u2nz5s1RTU1NnnJnsjVDhgz5cdGiRZdmzpzprtVqowG4yJ2JSE5sAIgcj7GxsfHsoUOHrqanp3tnZ2dHdHV19buXnZeXV+OsWbMuPPXUU11RUVHhSqWS5ywQ3YANAJHj62ptbS3Nycm5sn//fvXBgweHOeIIQUBAwJUZM2aUPfbYY10xMTFaNze3CHA+n+iO2AAQ9T/dBoOhorKysragoMCQmZnpnpOTE1xdXW0X35CdnJyM4eHhPyQkJNQmJiYaoqOj1QEBAWGCIGjlzkZkT9gAEBEAyzqC5ubmyqqqqpYLFy4Yz5w543LmzJmBRUVF/nV1dd5SZlEqld2BgYG1w4YNq4+Ojm4ZPnx4V3h4uHNISIi3Wq0OBeAqZR4iRyRFA9AOEf+wVldXNysUioFifT4RAQBajUZjY3t7u76lpaW9sbHRUFNTY6ysrFQ0NzcLTU1Nys7OTkVDQ4NLd3e3or6+3tVkMv38F4u3t3eHUqk0A4BKpeoeOHCg0c/Pr8vPz8+k1WoVXl5eSk9PT2d3d3eVm5vbIGdnZz8AzrL91xI5vg5/f38xG+kOBYArAEQbmisvLy8dMGDAULE+n4iIyNEYjcbK4ODgIBFL1AkAWkQsgIaGhqtifj4REZGjqampqRK5RLMAoFnMCrt27WoX8/OJiIgczaefftolcolmBYBdAJ4Qq4JWq204ffq0B3hZBxERkTUMkZGRBr1eL+b6uS8FAMUiFkBdXZ13WVlZnpg1iIiIHMWpU6dyRX75A8B50RsAAHj66aeDABjErkNERGTPzGbztWeeeSZCglJFAoAzYle5ePFi8MGDB3PErkNERGTPNm7cWFBTU+MjQamzClhu2aoDMEjMSoIgmPLy8vIDAgLGiVmHiIjIHhUVFR2dOnXqRAlKXQWgFQB0A8gUu5rJZBKmTp0a0d7eXiJ2LSIiInvS0NBwMjk5OU6ichkAuoUb/kF0er1+YExMjP/ly5e5KJCIiAhASUnJsdjY2OES3gr6LfDLTVx7AZikqNrS0uIeFxc3+ptvvjkCoFOKmkRERLbGbDa3fPLJJ1lJSUkJBoNBqvszTAD2AZa7AK7LADBFogAAgPDw8IqtW7deHjx48DhY1iIQERE5OsOpU6dyFy5cGFlbWyv1LZnfApgG3NwAPA1gs8RBAAC+vr51S5YsKXryySfV3t7egUql0huAVEMhREREYuo0Go31NTU1ldu2bevcuHHjSL1e7yFTlgUAPgVubgDcAFQBkCsUERERiacJQCCANuCXNQAA0ArgQzkSERERkeg24KeXP3DzCAAAeAO4BEAjZSIiIiIS1TUAYQDqr/8L4ZYHGgB8JGUiIiIiEt1fccPLH/j1CABgORGwGIAURxESERGRuGoBRMKyBuBnt44AAJYjAl+VIhERERGJ7mXc8vIHbj8CcN0hAFNFi0NERERiy4TljB/zrT/oqQF4EEABuC2QiIjIHl0FEAvL4v5fud0UwHUXYTkw4FddAxEREdk0M4BU3OHlD9z9+N0LsGwNjO/DUERERCSuvwBY39MDPU0BXOcMYA+AGX2RiIiIiES1H8ATAIw9PWRNAwAAagBfA0i8z1BEREQknlxYFvC33u1BaxsAwDIVkAkg6h5DERERkXjOAHgYlkP97qqnRYC3agAwCUB27zMRERGRiHJh2e5n1csf6F0DAFi2FEwHcKCXv0dERETi+BbAo7jlqN+7udsugNvpArATlvMB4tC7aQQiIiLqG2ZYVvo/A6C9t798vy/vWQD+Bsv9AURERCSNZgCLYflCfk96OwVwqz0AxgI4cp+fQ0RERNbJADAK9/HyB+6/AQAsJwZOATAXlhuHiIiIqO/VAlgIy3z/HU/4s9a9rAG4k3MANsLSVMQAcOnDzyYiIuqvWmA52e8pALq++lCxFvA9AGAZgBfBy4SIiIjuhR7AB7C8/K3e3mctsVfwuwKYCeBpWI4S7ssRByIiIkdjApADYAuAzwFcE6uQlFv4QgD8Bpa5i4cBeEpYm4iIyFZdhWUx/bcA9gL4UYqicu3hV8KyTmAkgEgAEQDCAAyEpTHQwHIJERERkb3rgmUevwmW7XuXAJwHUATL8b2nAHTLlo6IiIiIiIiIiIiIiIiIiIiIiIiIiIiIiIiIiIiIiIiIiIiIiIiIiIiIiIiIiIiIiIiIiIiIiIiIiIiIiIiIiIiIiIiIiIiIiIiIiIiIiIiIiIiIiIiIiIiIiIiIiIiIiIiIiIiIiIiIiIiIiIiIiIiIiIiIiIiIiIiIiIiIiIiIiIiIiIiIiIiIiIiIiIiIiIiIiIiIiIiIiIiI7NH/A7UZ4BLSx3NIAAAAAElFTkSuQmCC;" vertex="1" parent="1">
          <mxGeometry x="373" y="320" width="152" height="152" as="geometry" />
        </mxCell>
        <mxCell id="05AAa1fjyTa9ZjowC4g--9" value="" style="endArrow=classic;startArrow=classic;html=1;rounded=0;exitX=1;exitY=0.75;exitDx=0;exitDy=0;" edge="1" parent="1" source="05AAa1fjyTa9ZjowC4g--5">
          <mxGeometry x="-1" y="-166" width="50" height="50" relative="1" as="geometry">
            <mxPoint x="373" y="249.31" as="sourcePoint" />
            <mxPoint x="430" y="310" as="targetPoint" />
            <mxPoint x="-90" y="-26" as="offset" />
          </mxGeometry>
        </mxCell>
        <mxCell id="05AAa1fjyTa9ZjowC4g--11" value="PÃ¡ginas web con sus&lt;div&gt;respectivas rutas&lt;/div&gt;" style="text;html=1;align=center;verticalAlign=middle;resizable=0;points=[];autosize=1;strokeColor=none;fillColor=none;" vertex="1" parent="1">
          <mxGeometry x="379" y="472" width="140" height="40" as="geometry" />
        </mxCell>
        <mxCell id="05AAa1fjyTa9ZjowC4g--12" value="Node JS Y Express" style="text;html=1;align=center;verticalAlign=middle;resizable=0;points=[];autosize=1;strokeColor=none;fillColor=none;" vertex="1" parent="1">
          <mxGeometry x="60" y="145" width="130" height="30" as="geometry" />
        </mxCell>
        <mxCell id="05AAa1fjyTa9ZjowC4g--13" value="MongoDB" style="text;html=1;align=center;verticalAlign=middle;resizable=0;points=[];autosize=1;strokeColor=none;fillColor=none;" vertex="1" parent="1">
          <mxGeometry x="670" y="145" width="80" height="30" as="geometry" />
        </mxCell>
        <mxCell id="05AAa1fjyTa9ZjowC4g--14" value="React" style="text;html=1;align=center;verticalAlign=middle;resizable=0;points=[];autosize=1;strokeColor=none;fillColor=none;" vertex="1" parent="1">
          <mxGeometry x="550" y="370" width="50" height="30" as="geometry" />
        </mxCell>
      </root>
    </mxGraphModel>
  </diagram>
</mxfile>
